<svg width="101" height="22" viewBox="0 0 101 22" fill="none" xmlns="http://www.w3.org/2000/svg">
<path fill-rule="evenodd" clip-rule="evenodd" d="M11 22C17.0751 22 22 17.0751 22 11C22 4.92487 17.0751 0 11 0C4.92486 0 0 4.92487 0 11C0 17.0751 4.92486 22 11 22ZM14.4316 5.12427C14.5987 4.53093 14.0229 4.18007 13.497 4.55472L6.15621 9.78427C5.58592 10.1906 5.67562 11 6.29096 11H8.22399V10.985H11.9914L8.92167 12.0681L7.56839 16.8758C7.40136 17.4691 7.9771 17.8199 8.50301 17.4453L15.8438 12.2158C16.4141 11.8095 16.3243 11 15.709 11H12.7777L14.4316 5.12427Z" fill="#444444"/>
<path d="M35.3232 16.8987C34.0912 16.8987 33.047 16.6758 32.1904 16.2299C31.3339 15.7723 30.6768 15.0859 30.2192 14.1707C29.7734 13.2438 29.5504 12.0704 29.5504 10.6507C29.5504 8.55043 30.0608 6.98403 31.0816 5.9515C32.1024 4.91897 33.5222 4.4027 35.3408 4.4027C36.3734 4.4027 37.2886 4.57283 38.0864 4.9131C38.8843 5.24163 39.5062 5.74617 39.952 6.4267C40.4096 7.0955 40.6384 7.9403 40.6384 8.9611H38.9488C38.9488 8.2571 38.7963 7.6763 38.4912 7.2187C38.1979 6.7611 37.7814 6.42083 37.2416 6.1979C36.7019 5.96323 36.0683 5.8459 35.3408 5.8459C34.496 5.8459 33.7686 6.01017 33.1584 6.3387C32.5483 6.66723 32.0848 7.17763 31.768 7.8699C31.4512 8.55043 31.2928 9.43043 31.2928 10.5099V10.8795C31.2928 11.9472 31.4512 12.8214 31.768 13.5019C32.0848 14.1707 32.5424 14.6635 33.1408 14.9803C33.751 15.2971 34.4843 15.4555 35.3408 15.4555C36.0918 15.4555 36.7371 15.344 37.2768 15.1211C37.8283 14.8982 38.2507 14.5579 38.544 14.1003C38.8491 13.631 39.0016 13.0443 39.0016 12.3403H40.6384C40.6384 13.3846 40.4038 14.2411 39.9344 14.9099C39.4768 15.5787 38.8491 16.0774 38.0512 16.4059C37.2534 16.7344 36.344 16.8987 35.3232 16.8987ZM46.2975 16.8987C45.3589 16.8987 44.5669 16.7286 43.9215 16.3883C43.2879 16.0363 42.801 15.5024 42.4607 14.7867C42.1322 14.071 41.9679 13.1616 41.9679 12.0587C41.9679 10.944 42.1322 10.0347 42.4607 9.3307C42.801 8.61497 43.2879 8.08697 43.9215 7.7467C44.5669 7.3947 45.3589 7.2187 46.2975 7.2187C47.2362 7.2187 48.0223 7.3947 48.6559 7.7467C49.3013 8.08697 49.7882 8.61497 50.1167 9.3307C50.4453 10.0347 50.6095 10.944 50.6095 12.0587C50.6095 13.1616 50.4453 14.071 50.1167 14.7867C49.7882 15.5024 49.3013 16.0363 48.6559 16.3883C48.0223 16.7286 47.2362 16.8987 46.2975 16.8987ZM46.2975 15.5963C46.8959 15.5963 47.3946 15.479 47.7935 15.2443C48.1925 15.0096 48.4917 14.6459 48.6911 14.1531C48.9023 13.6486 49.0079 13.015 49.0079 12.2523V11.8651C49.0079 11.0907 48.9023 10.4571 48.6911 9.9643C48.4917 9.4715 48.1925 9.10777 47.7935 8.8731C47.3946 8.63843 46.8959 8.5211 46.2975 8.5211C45.6991 8.5211 45.1946 8.63843 44.7839 8.8731C44.385 9.10777 44.0858 9.4715 43.8863 9.9643C43.6869 10.4571 43.5871 11.0907 43.5871 11.8651V12.2523C43.5871 13.015 43.6869 13.6486 43.8863 14.1531C44.0858 14.6459 44.385 15.0096 44.7839 15.2443C45.1946 15.479 45.6991 15.5963 46.2975 15.5963ZM55.5078 16.8987C54.7452 16.8987 54.0881 16.7286 53.5366 16.3883C52.9969 16.048 52.5745 15.52 52.2694 14.8043C51.9761 14.0768 51.8294 13.1382 51.8294 11.9883C51.8294 10.8971 51.982 9.9995 52.287 9.2955C52.5921 8.5915 53.0145 8.06937 53.5542 7.7291C54.094 7.38883 54.7217 7.2187 55.4374 7.2187C55.8481 7.2187 56.2294 7.26563 56.5814 7.3595C56.9334 7.45337 57.2444 7.60003 57.5142 7.7995C57.7958 7.99897 58.0422 8.26297 58.2534 8.5915H58.359V3.9627H59.9078V16.6875H58.6582L58.5174 15.3675H58.3942C58.0774 15.8838 57.6668 16.271 57.1622 16.5291C56.6577 16.7755 56.1062 16.8987 55.5078 16.8987ZM55.8774 15.5435C56.4641 15.5435 56.9393 15.4144 57.303 15.1563C57.6668 14.8982 57.9308 14.5227 58.095 14.0299C58.271 13.5371 58.359 12.927 58.359 12.1995V11.9179C58.359 11.2843 58.2945 10.7504 58.1654 10.3163C58.0364 9.88217 57.8604 9.53603 57.6374 9.2779C57.4145 9.01977 57.1564 8.8379 56.863 8.7323C56.5697 8.6267 56.2588 8.5739 55.9302 8.5739C55.3553 8.5739 54.886 8.69123 54.5222 8.9259C54.1585 9.14883 53.8886 9.5067 53.7126 9.9995C53.5366 10.4806 53.4486 11.1083 53.4486 11.8827V12.2523C53.4486 13.0502 53.5425 13.6955 53.7302 14.1883C53.918 14.6694 54.1878 15.0155 54.5398 15.2267C54.9036 15.4379 55.3494 15.5435 55.8774 15.5435ZM65.8634 16.8987C64.9482 16.8987 64.1738 16.7286 63.5402 16.3883C62.9183 16.0363 62.4431 15.5024 62.1146 14.7867C61.7978 14.071 61.6394 13.1616 61.6394 12.0587C61.6394 10.944 61.7978 10.0347 62.1146 9.3307C62.4431 8.61497 62.9242 8.08697 63.5578 7.7467C64.1914 7.3947 64.9834 7.2187 65.9338 7.2187C66.802 7.2187 67.5295 7.38883 68.1162 7.7291C68.7028 8.05763 69.1428 8.5563 69.4362 9.2251C69.7412 9.88217 69.8938 10.7094 69.8938 11.7067V12.4459H63.241C63.2644 13.1851 63.37 13.7952 63.5578 14.2763C63.7572 14.7456 64.0506 15.0918 64.4378 15.3147C64.825 15.5259 65.3119 15.6315 65.8986 15.6315C66.2975 15.6315 66.6436 15.5846 66.937 15.4907C67.242 15.3851 67.4943 15.2384 67.6938 15.0507C67.905 14.863 68.0634 14.64 68.169 14.3819C68.2746 14.1238 68.3332 13.8422 68.345 13.5371H69.8586C69.8468 14.0299 69.753 14.4875 69.577 14.9099C69.401 15.3206 69.1428 15.6726 68.8026 15.9659C68.4623 16.2592 68.0458 16.488 67.553 16.6523C67.0602 16.8166 66.497 16.8987 65.8634 16.8987ZM63.2762 11.2843H68.2922C68.2922 10.768 68.2335 10.3339 68.1162 9.9819C67.9988 9.6299 67.8287 9.34243 67.6058 9.1195C67.3946 8.89657 67.1423 8.73817 66.849 8.6443C66.5674 8.5387 66.2447 8.4859 65.881 8.4859C65.3412 8.4859 64.8836 8.58563 64.5082 8.7851C64.1327 8.98457 63.8452 9.28963 63.6458 9.7003C63.4463 10.111 63.3231 10.639 63.2762 11.2843ZM71.9327 16.6875V4.6139H73.6047V15.2267H79.6063V16.6875H71.9327ZM83.2167 16.8987C82.8764 16.8987 82.5362 16.8576 82.1959 16.7755C81.8556 16.6934 81.5388 16.5584 81.2455 16.3707C80.9522 16.183 80.7175 15.9248 80.5415 15.5963C80.3655 15.256 80.2775 14.8336 80.2775 14.3291C80.2775 13.6955 80.43 13.1734 80.7351 12.7627C81.0402 12.352 81.4626 12.0352 82.0023 11.8123C82.5538 11.5776 83.205 11.4192 83.9559 11.3371C84.7068 11.2432 85.5223 11.1963 86.4023 11.1963V10.1403C86.4023 9.80003 86.3436 9.5067 86.2263 9.2603C86.109 9.0139 85.8978 8.82617 85.5927 8.6971C85.2994 8.5563 84.877 8.4859 84.3255 8.4859C83.7975 8.4859 83.3751 8.5563 83.0583 8.6971C82.7532 8.82617 82.5362 8.9963 82.4071 9.2075C82.2898 9.4187 82.2311 9.65337 82.2311 9.9115V10.1755H80.7351C80.7234 10.1168 80.7175 10.0582 80.7175 9.9995C80.7175 9.94083 80.7175 9.87043 80.7175 9.7883C80.7175 9.2251 80.87 8.75577 81.1751 8.3803C81.4919 7.9931 81.9319 7.70563 82.4951 7.5179C83.0583 7.31843 83.7036 7.2187 84.4311 7.2187C85.2055 7.2187 85.8508 7.33017 86.3671 7.5531C86.8951 7.77603 87.2882 8.09283 87.5463 8.5035C87.8162 8.91417 87.9511 9.40697 87.9511 9.9819V14.9979C87.9511 15.2208 88.0039 15.3792 88.1095 15.4731C88.2151 15.5552 88.3442 15.5963 88.4967 15.5963H89.1831V16.6171C89.0188 16.6875 88.837 16.7462 88.6375 16.7931C88.438 16.8518 88.2092 16.8811 87.9511 16.8811C87.646 16.8811 87.3938 16.8166 87.1943 16.6875C86.9948 16.5702 86.8423 16.4059 86.7367 16.1947C86.6311 15.9718 86.5607 15.7254 86.5255 15.4555H86.4023C86.1911 15.7488 85.9212 16.007 85.5927 16.2299C85.2759 16.4411 84.918 16.6054 84.5191 16.7227C84.1202 16.84 83.686 16.8987 83.2167 16.8987ZM83.6039 15.5963C83.9794 15.5963 84.3314 15.5376 84.6599 15.4203C85.0002 15.303 85.2994 15.1387 85.5575 14.9275C85.8156 14.7046 86.021 14.4406 86.1735 14.1355C86.326 13.8304 86.4023 13.496 86.4023 13.1323V12.3579C85.4519 12.3579 84.6423 12.4107 83.9735 12.5163C83.3047 12.6219 82.7884 12.8096 82.4247 13.0795C82.0727 13.3494 81.8967 13.7307 81.8967 14.2235C81.8967 14.5403 81.9671 14.7984 82.1079 14.9979C82.2487 15.1974 82.4482 15.3499 82.7063 15.4555C82.9644 15.5494 83.2636 15.5963 83.6039 15.5963ZM94.7081 16.8987C94.0862 16.8987 93.5289 16.7755 93.0361 16.5291C92.5433 16.271 92.1385 15.8838 91.8217 15.3675H91.6985L91.5401 16.6875H90.3081V3.9627H91.8569V8.5915H91.9625C92.1737 8.26297 92.4201 7.99897 92.7017 7.7995C92.9833 7.60003 93.3001 7.45337 93.6521 7.3595C94.0041 7.26563 94.3796 7.2187 94.7785 7.2187C95.4942 7.2187 96.122 7.38883 96.6617 7.7291C97.2014 8.06937 97.618 8.5915 97.9113 9.2955C98.2164 9.9995 98.3689 10.8971 98.3689 11.9883C98.3689 13.1382 98.2222 14.0768 97.9289 14.8043C97.6356 15.52 97.219 16.048 96.6793 16.3883C96.1396 16.7286 95.4825 16.8987 94.7081 16.8987ZM94.3385 15.5435C94.8665 15.5435 95.3065 15.4379 95.6585 15.2267C96.0222 15.0155 96.298 14.6694 96.4857 14.1883C96.6734 13.6955 96.7673 13.0502 96.7673 12.2523V11.8827C96.7673 11.1083 96.6793 10.4806 96.5033 9.9995C96.3273 9.5067 96.0574 9.14883 95.6937 8.9259C95.33 8.69123 94.8606 8.5739 94.2857 8.5739C93.9572 8.5739 93.6462 8.6267 93.3529 8.7323C93.0596 8.8379 92.7956 9.01977 92.5609 9.2779C92.338 9.53603 92.162 9.88217 92.0329 10.3163C91.9156 10.7504 91.8569 11.2843 91.8569 11.9179V12.1995C91.8569 12.927 91.939 13.5371 92.1033 14.0299C92.2793 14.5227 92.5492 14.8982 92.9129 15.1563C93.2884 15.4144 93.7636 15.5435 94.3385 15.5435Z" fill="#444444"/>
</svg>
