<svg width="32" height="32" viewBox="0 0 32 32" fill="none" xmlns="http://www.w3.org/2000/svg">
<circle cx="16" cy="16" r="16" fill="#939888"/>
<mask id="mask0_455_206" style="mask-type:luminance" maskUnits="userSpaceOnUse" x="12" y="15" width="15" height="10">
<path d="M12.6226 15.7524H26.2902V24.3202H12.6226V15.7524Z" fill="white"/>
</mask>
<g mask="url(#mask0_455_206)">
<path d="M26.2685 15.7725C26.2049 15.939 26.1367 16.104 26.0681 16.2692C25.9961 16.4326 25.9224 16.5953 25.8469 16.7573C25.77 16.9188 25.6875 17.0771 25.6071 17.2373C25.5673 17.3177 25.5221 17.3947 25.4796 17.4736L25.3497 17.7092C24.9929 18.3356 24.5934 18.9336 24.1512 19.5027C23.2637 20.6411 22.1989 21.6611 20.9761 22.4641C20.363 22.8687 19.7166 23.2101 19.0369 23.4884L18.7807 23.5875C18.6951 23.6197 18.6107 23.6542 18.5233 23.6826C18.4362 23.7113 18.3501 23.7418 18.2631 23.7698C18.176 23.7978 18.0895 23.8275 18.0009 23.8504L17.7365 23.9239L17.6045 23.9603C17.5599 23.9721 17.5155 23.9815 17.4709 23.9914L17.2038 24.0504L17.0701 24.0794L16.9352 24.103C15.5001 24.3632 14.0201 24.3145 12.6401 23.9516C12.8184 23.9466 12.9965 23.9462 13.1746 23.9451C13.2192 23.9451 13.2636 23.9434 13.3082 23.9415L13.4417 23.9361C13.5307 23.9321 13.6181 23.9298 13.7061 23.9268C13.794 23.9237 13.8818 23.9159 13.9692 23.9106L14.2316 23.8925C14.2763 23.8887 14.319 23.8872 14.3624 23.8826L14.4929 23.8687L14.7532 23.8405C15.4411 23.7616 16.1187 23.6302 16.7861 23.4463C18.1124 23.0815 19.3625 22.4999 20.507 21.7489C21.6514 20.9979 22.6929 20.0824 23.6409 19.0672C24.1162 18.5604 24.5679 18.027 25.0028 17.4755L25.3259 17.0585L25.6435 16.6355C25.7462 16.4919 25.8519 16.3496 25.9565 16.2061C26.0613 16.0623 26.1615 15.9158 26.2685 15.7725Z" fill="#FFDB42"/>
</g>
<mask id="mask1_455_206" style="mask-type:luminance" maskUnits="userSpaceOnUse" x="14" y="7" width="12" height="15">
<path d="M14.9937 7.67993H25.5552V21.0329H14.9937V7.67993Z" fill="white"/>
</mask>
<g mask="url(#mask1_455_206)">
<path d="M20.1878 20.9051C20.4662 20.6928 20.7445 20.4823 21.0036 20.2495C21.2684 20.024 21.5157 19.7803 21.7605 19.537C22.2411 19.0404 22.6781 18.5081 23.0719 17.9404C23.2624 17.655 23.4503 17.3681 23.6156 17.0686C23.7863 16.7722 23.9376 16.4659 24.0818 16.1573L24.1828 15.9229L24.2331 15.8058C24.2496 15.7669 24.2639 15.7282 24.2792 15.6894C24.2946 15.6507 24.31 15.6122 24.3239 15.5728L24.3649 15.4549C24.3938 15.3771 24.4171 15.2967 24.4417 15.2171C24.5377 14.8961 24.6112 14.5701 24.6628 14.239C24.7147 13.9057 24.7488 13.5709 24.7648 13.2339C24.7823 12.8962 24.7863 12.5569 24.7773 12.2159C24.7587 11.5344 24.6992 10.8499 24.6194 10.1633C24.5796 9.81931 24.5375 9.47474 24.4931 9.12954L24.4262 8.61026L24.4093 8.48018L24.4007 8.41703C24.3984 8.40125 24.3963 8.38988 24.3948 8.38399C24.3933 8.37788 24.3927 8.37767 24.3948 8.38399C24.4005 8.39998 24.4087 8.41472 24.4188 8.4284C24.4377 8.45408 24.4607 8.47534 24.4876 8.49218C24.5108 8.5067 24.5354 8.51702 24.5619 8.52312C24.5975 8.52965 24.5927 8.5248 24.5674 8.52901L24.447 8.54606L24.1887 8.58248C24.0166 8.60711 23.845 8.63236 23.6741 8.65847C23.3323 8.71067 22.9921 8.76666 22.6551 8.83043C21.9803 8.9542 21.3156 9.10639 20.6734 9.31161C20.5128 9.36213 20.3534 9.41686 20.1962 9.47432L19.9634 9.56336C19.9242 9.57767 19.8859 9.59409 19.848 9.61093L19.7335 9.66039L19.6192 9.71007C19.5809 9.7267 19.5441 9.74585 19.5079 9.76374C19.4332 9.80016 19.358 9.8351 19.2839 9.87278C19.1383 9.95192 18.9903 10.0273 18.8495 10.1142L18.7423 10.1771C18.7063 10.1978 18.6727 10.2218 18.6377 10.2439C18.5687 10.2885 18.4988 10.3331 18.4302 10.3803L18.2298 10.5251L18.1795 10.5613L18.1309 10.5998L18.034 10.6768L17.9359 10.7549C17.9033 10.7806 17.8736 10.8088 17.8421 10.8358L17.7492 10.9174C17.7185 10.9448 17.6861 10.9707 17.6564 10.9993L17.4783 11.1711C17.4636 11.1854 17.4482 11.1993 17.4337 11.214L17.3914 11.2586L17.3068 11.3487L17.2218 11.439C17.194 11.4693 17.1685 11.5018 17.1416 11.5329C17.0887 11.5963 17.0336 11.6577 16.9822 11.7226L16.8324 11.9208C16.8199 11.9373 16.8071 11.9535 16.7951 11.9701L16.7602 12.0214L16.6899 12.1235L16.6193 12.2258C16.596 12.2599 16.5747 12.2959 16.5526 12.3309C16.5097 12.4016 16.4653 12.4719 16.423 12.543C16.3449 12.6891 16.2613 12.8325 16.1927 12.9836C16.0498 13.284 15.931 13.5936 15.8365 13.9127C15.7429 14.2341 15.6728 14.5608 15.6258 14.8923C15.5793 15.2278 15.5534 15.5648 15.5486 15.9035C15.5418 16.2439 15.5553 16.5857 15.5827 16.9277C15.6361 17.6129 15.7485 18.298 15.8847 18.9804C15.9536 19.3214 16.0281 19.6624 16.1057 20.003L16.2228 20.5151C16.263 20.6852 16.3026 20.8559 16.3413 21.0272L16.2489 20.7824L16.1586 20.5359L15.9805 20.0413C15.8654 19.7102 15.7546 19.3774 15.6528 19.0413C15.4478 18.369 15.2754 17.683 15.164 16.9799C15.1084 16.6267 15.071 16.2714 15.0516 15.9144C15.0331 15.5537 15.0377 15.1933 15.0659 14.8332C15.0943 14.4694 15.1508 14.1099 15.2354 13.755C15.32 13.397 15.4339 13.0486 15.5772 12.7097C15.6467 12.539 15.7307 12.3759 15.8108 12.2111C15.854 12.1301 15.8999 12.0503 15.9445 11.9697C15.9668 11.9299 15.9889 11.8888 16.0127 11.8499L16.086 11.7331L16.1594 11.6163L16.1979 11.5565L16.2377 11.4999L16.3975 11.2746C16.4524 11.2005 16.5111 11.1294 16.5678 11.0568C16.5966 11.021 16.6244 10.9839 16.6543 10.9488L16.7454 10.845L16.837 10.741L16.8824 10.6893C16.898 10.6724 16.9144 10.656 16.9304 10.6394L17.1232 10.4413C17.1889 10.3765 17.2567 10.315 17.3251 10.2523C17.3594 10.2216 17.392 10.1889 17.4276 10.1593L17.5335 10.0702L17.6396 9.98118L17.6928 9.93677L17.7476 9.89488L17.9679 9.72943C18.0427 9.67597 18.1191 9.62482 18.1948 9.57346C18.2329 9.54799 18.2698 9.52042 18.3091 9.49642L18.4262 9.42338L18.543 9.35076L18.6019 9.31456L18.6617 9.28067L18.9023 9.14722C18.9833 9.10449 19.0656 9.06429 19.1471 9.02282C19.1884 9.00261 19.2288 8.98114 19.2704 8.96199L19.3957 8.90558L19.5207 8.84896C19.5624 8.83001 19.6043 8.81149 19.6468 8.79486L19.9013 8.69256C20.0711 8.62731 20.2419 8.56627 20.4134 8.50944C21.1011 8.28485 21.8007 8.12235 22.4996 7.991C22.8494 7.92681 23.1992 7.87124 23.548 7.81946C23.7225 7.79357 23.8968 7.76873 24.0709 7.74494L24.3317 7.70937L24.3969 7.70032L24.4293 7.6959L24.4706 7.69085C24.56 7.67927 24.6491 7.68201 24.7377 7.69927C24.8076 7.714 24.8728 7.7401 24.9334 7.77778C24.9979 7.81819 25.0526 7.86892 25.0974 7.93017C25.1328 7.9788 25.161 8.03121 25.1818 8.08762C25.1972 8.12887 25.2092 8.17097 25.2178 8.21433C25.2252 8.25117 25.2296 8.28295 25.2332 8.31053L25.241 8.3783L25.2559 8.50818L25.3159 9.02914C25.3557 9.37729 25.395 9.72691 25.4273 10.0788C25.4912 10.7819 25.5386 11.4921 25.5319 12.2084C25.5285 12.5664 25.5144 12.9257 25.4809 13.2848C25.4481 13.6454 25.3963 14.0034 25.3252 14.3585C25.253 14.7166 25.1547 15.0672 25.0305 15.4105C24.9987 15.4966 24.9684 15.5825 24.9326 15.6669L24.8804 15.7938C24.8623 15.8357 24.8429 15.8772 24.8244 15.9189C24.8057 15.9605 24.7872 16.0029 24.7672 16.0435L24.7063 16.1635L24.5849 16.4034C24.2481 17.0355 23.8555 17.631 23.4076 18.1898C22.9591 18.7417 22.4642 19.2484 21.923 19.7096C21.3833 20.1644 20.8051 20.5631 20.1878 20.9051Z" fill="#FFDB42"/>
</g>
<mask id="mask2_455_206" style="mask-type:luminance" maskUnits="userSpaceOnUse" x="5" y="14" width="13" height="10">
<path d="M5.75977 14.8901H17.8492V23.0807H5.75977V14.8901Z" fill="white"/>
</mask>
<g mask="url(#mask2_455_206)">
<path d="M15.4831 19.6091C15.4598 19.5447 15.4368 19.4807 15.4124 19.4169C15.388 19.3534 15.3642 19.2894 15.3398 19.2258C15.2897 19.0993 15.2379 18.9734 15.1828 18.8495C15.0744 18.6007 14.9567 18.3573 14.8302 18.1193C14.7673 18.0006 14.6997 17.8842 14.6323 17.7684C14.5652 17.6526 14.4932 17.5398 14.4185 17.4295C14.2722 17.2089 14.1124 16.9984 13.9392 16.798C13.5959 16.4023 13.1972 16.0657 12.7472 15.854C12.5234 15.7492 12.2898 15.6742 12.0467 15.6292C11.8044 15.5869 11.5607 15.5751 11.3154 15.5936C11.066 15.6144 10.821 15.6595 10.5806 15.7285C10.3339 15.7978 10.0929 15.8828 9.85739 15.9834C9.61912 16.0838 9.38505 16.2017 9.1512 16.323C8.91735 16.4444 8.68644 16.576 8.45595 16.7128C8.22568 16.8498 7.99435 16.9892 7.76176 17.1304C7.52938 17.2714 7.29532 17.415 7.05578 17.5554C6.99663 17.5907 6.93559 17.6252 6.87476 17.6596C6.81393 17.6939 6.75268 17.728 6.69079 17.7619L6.59797 17.813L6.50346 17.8623L6.40874 17.9115C6.42621 17.9031 6.44284 17.8932 6.45862 17.882C6.47567 17.8696 6.49167 17.8562 6.50682 17.8412C6.52072 17.8275 6.53356 17.8126 6.54534 17.7968C6.55545 17.7823 6.56492 17.7675 6.57355 17.7522C6.58029 17.74 6.58639 17.7271 6.59165 17.7141C6.59691 17.7008 6.60133 17.6865 6.60344 17.68C6.60596 17.6718 6.60807 17.6633 6.60975 17.6547C6.61165 17.6469 6.61312 17.6354 6.61375 17.6307C6.61565 17.6208 6.61649 17.6107 6.61649 17.6008V17.5825C6.61628 17.5762 6.61586 17.5701 6.61502 17.5638C6.61502 17.5606 6.61502 17.5619 6.61502 17.5606C6.61565 17.5625 6.61607 17.5644 6.61628 17.5663L6.61944 17.5766L6.62365 17.5897C6.63038 17.609 6.63901 17.6322 6.64933 17.6564C6.67016 17.7063 6.69584 17.7608 6.723 17.816C6.77814 17.9273 6.84045 18.0405 6.90507 18.154C7.03389 18.3824 7.17218 18.6112 7.31405 18.8375C7.38498 18.9505 7.45718 19.0633 7.53022 19.1747L7.6401 19.3403L7.6944 19.4201L7.71945 19.4559L7.7285 19.4687L7.74324 19.4872C8.05497 19.8994 8.40628 20.2743 8.79737 20.6117C9.18972 20.9516 9.6128 21.2476 10.0664 21.4995L10.238 21.5917L10.3238 21.6378L10.4118 21.6801L10.5876 21.7649C10.6166 21.7793 10.6465 21.7925 10.6766 21.8051L10.7657 21.8439L10.9437 21.922L11.1266 21.9929C11.2475 22.0424 11.3714 22.0819 11.4958 22.1245C11.5272 22.1348 11.5577 22.1468 11.5893 22.1556L11.6834 22.1832L11.872 22.2398C11.9349 22.2587 11.9989 22.2731 12.0623 22.2901C12.1258 22.3069 12.1894 22.324 12.2536 22.3389L12.4466 22.3804C12.511 22.3943 12.5754 22.4092 12.6403 22.4193C12.7703 22.4417 12.8998 22.4688 13.0311 22.4848L13.2275 22.513C13.2932 22.5216 13.3591 22.5271 13.425 22.5351C13.4909 22.5433 13.5567 22.5499 13.6228 22.5549L13.8215 22.5686C13.9539 22.5804 14.087 22.5812 14.2198 22.5869C14.2867 22.5903 14.3534 22.5894 14.4202 22.5888H14.6205C14.6875 22.5888 14.7542 22.5846 14.8209 22.5829C14.8879 22.581 14.9546 22.5791 15.0213 22.5753L15.2217 22.561C15.2886 22.556 15.3554 22.5526 15.4221 22.5448L15.6225 22.5244C15.6557 22.5206 15.6894 22.5181 15.7227 22.5134L15.8224 22.4993L16.0228 22.4718C16.0898 22.4631 16.1565 22.4494 16.2222 22.4391C16.2878 22.4286 16.3558 22.4168 16.4225 22.4044L16.621 22.3631C16.7545 22.3381 16.8848 22.3038 17.017 22.2724L17.1161 22.2489L17.2144 22.2219L17.4112 22.1678C17.4779 22.151 17.5411 22.1278 17.6063 22.1082L17.8025 22.0483C17.6806 22.1095 17.5592 22.1735 17.4346 22.2303L17.2468 22.3145L17.1527 22.3568L17.0574 22.3956C16.9296 22.4461 16.8021 22.4985 16.6713 22.5423L16.476 22.6092C16.4103 22.6313 16.3442 22.6496 16.2781 22.6703C15.7456 22.8317 15.203 22.9441 14.65 23.0075C14.373 23.0367 14.0935 23.058 13.8146 23.0637L13.6035 23.0677C13.5334 23.0677 13.4635 23.0649 13.3934 23.0639C13.3233 23.0626 13.2534 23.0613 13.1831 23.0578L12.973 23.0447C12.4083 23.0079 11.8526 22.9163 11.306 22.7698C11.17 22.7315 11.0326 22.6959 10.8983 22.6498L10.6958 22.5831L10.4954 22.5092L10.3956 22.4718C10.3621 22.4593 10.3289 22.4463 10.2965 22.432L10.1003 22.3478L10.0022 22.3055L9.9058 22.2592L9.71299 22.1661L9.66479 22.1438L9.61806 22.1181L9.52397 22.0674L9.33538 21.9655L9.15141 21.8542C9.09058 21.8165 9.02806 21.7814 8.96955 21.7403L8.79126 21.6203C8.76179 21.6003 8.73148 21.581 8.70223 21.5599L8.61614 21.4966L8.44332 21.3684C8.41428 21.3473 8.38649 21.3238 8.35892 21.3014L8.27556 21.2335C7.82933 20.867 7.42856 20.4565 7.07325 20.0019L7.05599 19.9796L7.03368 19.9512L6.99958 19.9059L6.93854 19.8169L6.8213 19.6426C6.74426 19.5264 6.66869 19.41 6.59439 19.2932C6.44557 19.058 6.30055 18.8217 6.15973 18.5758C6.09069 18.452 6.0227 18.3266 5.95724 18.1931C5.9244 18.1262 5.89241 18.057 5.86104 17.9808C5.84547 17.9427 5.8301 17.902 5.81516 17.8574L5.80379 17.8221L5.79285 17.7831L5.78253 17.7387C5.77916 17.7208 5.77601 17.7052 5.77306 17.6852C5.76948 17.6621 5.76717 17.6387 5.76611 17.6154V17.5947C5.76611 17.5876 5.76611 17.5819 5.76611 17.5724C5.76611 17.5541 5.76843 17.5356 5.77053 17.5171C5.7718 17.5082 5.77474 17.4926 5.77706 17.4806C5.77958 17.4684 5.78316 17.4552 5.78674 17.4428C5.79095 17.427 5.79642 17.4116 5.80253 17.3967C5.80968 17.3796 5.81747 17.363 5.82589 17.3468C5.83621 17.3276 5.84799 17.3093 5.86104 17.292C5.87515 17.2729 5.89072 17.2548 5.90756 17.2379C5.92587 17.2196 5.94545 17.203 5.9665 17.1883C5.98586 17.1746 6.00607 17.1624 6.02691 17.1514L6.11384 17.107L6.20077 17.0624L6.28771 17.0157C6.40368 16.954 6.51924 16.8883 6.63585 16.8233C7.10209 16.5619 7.56958 16.2766 8.05413 16.0095C8.53868 15.7422 9.04174 15.4858 9.57807 15.2848C9.84897 15.1821 10.1256 15.0985 10.4078 15.0339C10.697 14.9685 10.9896 14.9318 11.286 14.924C11.588 14.9179 11.8855 14.9516 12.1787 15.0247C12.4706 15.0979 12.7472 15.2093 13.0084 15.3587C13.2644 15.5058 13.4984 15.682 13.7104 15.8875C13.8154 15.9876 13.9125 16.0944 14.0061 16.2026C14.0998 16.3107 14.1867 16.4238 14.2684 16.5395C14.5894 17.0009 14.8487 17.4947 15.0462 18.021C15.2438 18.536 15.3895 19.0654 15.4831 19.6091Z" fill="#FFDB42"/>
</g>
</svg>
