<svg width="50" height="50" viewBox="0 0 50 50" fill="none" xmlns="http://www.w3.org/2000/svg">
<circle cx="25" cy="25" r="25" fill="#939888"/>
<mask id="mask0_397_1512" style="mask-type:luminance" maskUnits="userSpaceOnUse" x="19" y="24" width="23" height="15">
<path d="M19.7227 24.613H41.0784V38.0001H19.7227V24.613Z" fill="white"/>
</mask>
<g mask="url(#mask0_397_1512)">
<path d="M41.0443 24.6443C40.9449 24.9044 40.8384 25.1623 40.7312 25.4205C40.6187 25.6757 40.5036 25.9299 40.3855 26.1832C40.2655 26.4354 40.1365 26.6827 40.0109 26.933C39.9487 27.0587 39.878 27.179 39.8116 27.3024L39.6087 27.6704C39.0512 28.6492 38.427 29.5835 37.736 30.4729C36.3494 32.2515 34.6855 33.8453 32.775 35.1C31.8169 35.7321 30.8069 36.2656 29.7449 36.7004L29.3447 36.8553C29.2108 36.9056 29.0789 36.9595 28.9425 37.0039C28.8063 37.0487 28.6718 37.0964 28.5359 37.1401C28.3998 37.1838 28.2646 37.2302 28.1262 37.2661L27.7131 37.3808L27.5069 37.4377C27.4371 37.4562 27.3677 37.471 27.298 37.4864L26.8806 37.5785L26.6718 37.6239L26.461 37.6607C24.2186 38.0672 21.9062 37.9913 19.75 37.4243C20.0286 37.4164 20.3068 37.4157 20.585 37.4141C20.6548 37.4141 20.7242 37.4114 20.7939 37.4085L21.0024 37.3999C21.1415 37.3937 21.278 37.3901 21.4155 37.3855C21.553 37.3805 21.6901 37.3684 21.8266 37.3601L22.2367 37.3318C22.3065 37.3259 22.3732 37.3236 22.441 37.3164L22.6449 37.2947L23.0517 37.2506C24.1265 37.1273 25.1852 36.922 26.2281 36.6346C28.3005 36.0646 30.2537 35.1559 32.0419 33.9824C33.8301 32.809 35.4574 31.3786 36.9387 29.7924C37.6814 29.0004 38.3872 28.167 39.0667 27.3053L39.5715 26.6538L40.0678 25.9927C40.2283 25.7684 40.3934 25.5461 40.5568 25.3218C40.7206 25.0972 40.8772 24.8683 41.0443 24.6443Z" fill="#FFDB42"/>
</g>
<mask id="mask1_397_1512" style="mask-type:luminance" maskUnits="userSpaceOnUse" x="23" y="12" width="17" height="21">
<path d="M23.4272 12H39.9296V32.8641H23.4272V12Z" fill="white"/>
</mask>
<g mask="url(#mask1_397_1512)">
<path d="M31.543 32.6644C31.9782 32.3325 32.4129 32.0036 32.8178 31.6399C33.2316 31.2877 33.618 30.9068 34.0005 30.5266C34.7514 29.7508 35.4341 28.919 36.0495 28.032C36.3471 27.586 36.6408 27.1377 36.899 26.6697C37.1657 26.2066 37.4022 25.7281 37.6275 25.246L37.7854 24.8796L37.864 24.6967C37.8896 24.6359 37.912 24.5754 37.936 24.5148C37.96 24.4543 37.984 24.3941 38.0057 24.3326L38.0698 24.1485C38.1149 24.0268 38.1514 23.9011 38.1899 23.7768C38.3399 23.2753 38.4546 22.7658 38.5352 22.2485C38.6165 21.7278 38.6697 21.2046 38.6947 20.678C38.722 20.1505 38.7283 19.6203 38.7141 19.0875C38.6852 18.0226 38.5921 16.953 38.4675 15.8802C38.4053 15.3428 38.3395 14.8044 38.2701 14.265L38.1656 13.4536L38.1392 13.2504L38.1258 13.1517C38.1221 13.1271 38.1188 13.1093 38.1165 13.1001C38.1133 13.0902 38.1142 13.0905 38.1165 13.1001C38.1254 13.1251 38.1383 13.1481 38.154 13.1695C38.1836 13.2096 38.2195 13.2428 38.2616 13.2691C38.2978 13.2918 38.3362 13.3079 38.3777 13.3175C38.4333 13.3277 38.4257 13.3201 38.3862 13.3267L38.1981 13.3533L37.7946 13.4102C37.5255 13.4487 37.2575 13.4882 36.9904 13.529C36.4563 13.6105 35.9248 13.698 35.3983 13.7977C34.3439 13.991 33.3052 14.2288 32.3018 14.5495C32.0508 14.6284 31.8019 14.7139 31.5562 14.8037L31.1924 14.9429C31.1313 14.9652 31.0714 14.9909 31.0122 15.0172L30.8333 15.0945L30.6547 15.1721C30.5949 15.1981 30.5373 15.228 30.4807 15.256C30.364 15.3129 30.2466 15.3674 30.1308 15.4263C29.9032 15.55 29.672 15.6677 29.452 15.8036L29.2846 15.9019C29.2283 15.9341 29.1757 15.9716 29.1211 16.0062C29.0132 16.0759 28.904 16.1456 28.7968 16.2193L28.4837 16.4455L28.4051 16.5021L28.3291 16.5623L28.1778 16.6827L28.0246 16.8047C27.9736 16.8448 27.9272 16.8889 27.8779 16.931L27.7329 17.0586C27.6848 17.1014 27.6342 17.1418 27.5878 17.1865L27.3096 17.4549C27.2866 17.4773 27.2625 17.499 27.2399 17.522L27.1737 17.5917L27.0415 17.7325L26.9087 17.8736C26.8652 17.9209 26.8255 17.9716 26.7834 18.0203C26.7008 18.1193 26.6146 18.2153 26.5344 18.3166L26.3002 18.6264C26.2808 18.6521 26.2607 18.6774 26.242 18.7034L26.1874 18.7836L26.0776 18.9431L25.9674 19.103C25.9309 19.1563 25.8977 19.2125 25.8631 19.2671C25.796 19.3776 25.7266 19.4874 25.6605 19.5986C25.5385 19.8269 25.4079 20.0508 25.3007 20.287C25.0774 20.7563 24.8919 21.2401 24.7442 21.7387C24.5979 22.2409 24.4884 22.7513 24.415 23.2693C24.3423 23.7936 24.3019 24.3201 24.2943 24.8493C24.2838 25.3811 24.3048 25.9153 24.3476 26.4497C24.4311 27.5202 24.6068 28.5908 24.8196 29.657C24.9271 30.1898 25.0435 30.7226 25.1649 31.2548L25.3478 32.055C25.4106 32.3207 25.4724 32.5874 25.5329 32.8551L25.3885 32.4726L25.2474 32.0875L24.9692 31.3146C24.7893 30.7973 24.6163 30.2773 24.4571 29.7521C24.1368 28.7016 23.8674 27.6298 23.6934 26.5313C23.6066 25.9794 23.5481 25.4242 23.5178 24.8664C23.4889 24.3027 23.4961 23.7397 23.5402 23.1769C23.5846 22.6086 23.6727 22.0469 23.8049 21.4924C23.9371 20.9329 24.1151 20.3886 24.339 19.8591C24.4476 19.5924 24.5788 19.3375 24.7041 19.08C24.7715 18.9533 24.8432 18.8287 24.913 18.7027C24.9478 18.6406 24.9824 18.5764 25.0195 18.5156L25.134 18.333L25.2488 18.1505L25.3089 18.0571L25.3711 17.9686L25.6207 17.6167C25.7066 17.501 25.7983 17.3898 25.8868 17.2763C25.9319 17.2204 25.9753 17.1625 26.022 17.1076L26.1644 16.9455L26.3075 16.783L26.3785 16.7021C26.4028 16.6758 26.4285 16.6501 26.4535 16.6241L26.7547 16.3146C26.8574 16.2134 26.9633 16.1173 27.0701 16.0193C27.1238 15.9713 27.1747 15.9203 27.2303 15.8739L27.3957 15.7348L27.5615 15.5957L27.6447 15.5263L27.7302 15.4609L28.0746 15.2023C28.1913 15.1188 28.3107 15.0389 28.4291 14.9586C28.4886 14.9188 28.5462 14.8758 28.6077 14.8383L28.7906 14.7241L28.9731 14.6107L29.0652 14.5541L29.1586 14.5012L29.5345 14.2926C29.6611 14.2259 29.7897 14.1631 29.917 14.0983C29.9815 14.0667 30.0446 14.0331 30.1097 14.0032L30.3054 13.9151L30.5008 13.8266C30.5659 13.797 30.6314 13.7681 30.6978 13.7421L31.0954 13.5822C31.3608 13.4803 31.6276 13.3849 31.8956 13.2961C32.9701 12.9452 34.0633 12.6913 35.1552 12.4861C35.7018 12.3857 36.2485 12.2989 36.7934 12.218C37.0661 12.1776 37.3384 12.1387 37.6104 12.1016L38.0179 12.046L38.1198 12.0319L38.1705 12.0249L38.2349 12.0171C38.3747 11.999 38.5138 12.0032 38.6523 12.0302C38.7615 12.0532 38.8635 12.094 38.9582 12.1529C39.0588 12.216 39.1443 12.2953 39.2144 12.391C39.2696 12.467 39.3137 12.5489 39.3463 12.637C39.3703 12.7015 39.389 12.7673 39.4025 12.835C39.414 12.8926 39.4209 12.9422 39.4265 12.9853L39.4387 13.0912L39.462 13.2941L39.5558 14.1081C39.6179 14.6521 39.6794 15.1984 39.7297 15.7483C39.8297 16.8468 39.9037 17.9565 39.8932 19.0757C39.8879 19.6351 39.8659 20.1965 39.8136 20.7576C39.7623 21.321 39.6814 21.8804 39.5702 22.4353C39.4574 22.9947 39.3038 23.5426 39.1098 24.0791C39.0601 24.2136 39.0128 24.3478 38.9569 24.4797L38.8753 24.678C38.847 24.7434 38.8168 24.8082 38.7878 24.8733C38.7585 24.9385 38.7296 25.0046 38.6984 25.068L38.6033 25.2555L38.4135 25.6304C37.8873 26.6181 37.2739 27.5485 36.5741 28.4217C35.8732 29.2841 35.1 30.0757 34.2544 30.7963C33.4111 31.507 32.5077 32.1299 31.543 32.6644Z" fill="#FFDB42"/>
</g>
<mask id="mask2_397_1512" style="mask-type:luminance" maskUnits="userSpaceOnUse" x="9" y="23" width="19" height="14">
<path d="M9 23.2659H27.8897V36.0636H9V23.2659Z" fill="white"/>
</mask>
<g mask="url(#mask2_397_1512)">
<path d="M24.1926 30.6391C24.1561 30.5385 24.1203 30.4385 24.0821 30.3389C24.0439 30.2395 24.0068 30.1396 23.9686 30.0402C23.8904 29.8426 23.8095 29.6459 23.7233 29.4522C23.5539 29.0634 23.3701 28.6832 23.1724 28.3113C23.0741 28.1258 22.9685 27.9439 22.8632 27.763C22.7583 27.5821 22.6458 27.4058 22.5291 27.2335C22.3005 26.8888 22.0509 26.5599 21.7802 26.2468C21.2438 25.6285 20.6209 25.1026 19.9177 24.7718C19.5681 24.608 19.203 24.4909 18.8232 24.4205C18.4446 24.3544 18.0638 24.336 17.6806 24.3649C17.2909 24.3975 16.908 24.4679 16.5324 24.5757C16.147 24.6839 15.7704 24.8168 15.4024 24.974C15.0301 25.1309 14.6644 25.3151 14.299 25.5045C13.9336 25.6943 13.5728 25.8998 13.2126 26.1136C12.8528 26.3277 12.4914 26.5455 12.128 26.7661C11.7649 26.9865 11.3991 27.2108 11.0249 27.4302C10.9325 27.4854 10.8371 27.5394 10.742 27.593C10.647 27.6466 10.5513 27.6999 10.4546 27.7528L10.3095 27.8327L10.1619 27.9097L10.0139 27.9866C10.0412 27.9735 10.0671 27.958 10.0918 27.9406C10.1185 27.9212 10.1434 27.9002 10.1671 27.8768C10.1888 27.8554 10.2089 27.8321 10.2273 27.8074C10.2431 27.7847 10.2579 27.7617 10.2714 27.7377C10.2819 27.7186 10.2914 27.6985 10.2997 27.6782C10.3079 27.6574 10.3148 27.6351 10.3181 27.6249C10.322 27.612 10.3253 27.5989 10.328 27.5854C10.3309 27.5732 10.3332 27.5551 10.3342 27.5479C10.3372 27.5325 10.3385 27.5167 10.3385 27.5012V27.4726C10.3381 27.4627 10.3375 27.4532 10.3362 27.4433C10.3362 27.4384 10.3362 27.4404 10.3362 27.4384C10.3372 27.4414 10.3378 27.4443 10.3381 27.4473L10.3431 27.4634L10.3497 27.4838C10.3602 27.514 10.3737 27.5502 10.3898 27.588C10.4223 27.666 10.4625 27.7512 10.5049 27.8373C10.5911 28.0113 10.6884 28.1883 10.7894 28.3655C10.9907 28.7224 11.2067 29.0799 11.4284 29.4334C11.5393 29.61 11.6521 29.7863 11.7662 29.9603L11.9379 30.2191L12.0227 30.3438L12.0619 30.3997L12.076 30.4198L12.099 30.4487C12.5861 31.0927 13.135 31.6784 13.7461 32.2056C14.3591 32.7368 15.0202 33.1992 15.729 33.5929L15.997 33.7369L16.1312 33.809L16.2687 33.8751L16.5433 34.0076C16.5887 34.03 16.6354 34.0507 16.6824 34.0704L16.8215 34.131L17.0998 34.253L17.3856 34.3638C17.5744 34.4411 17.7681 34.5029 17.9625 34.5694C18.0115 34.5855 18.0592 34.6042 18.1085 34.618L18.2555 34.6611L18.5502 34.7496C18.6485 34.7792 18.7485 34.8016 18.8475 34.8282C18.9468 34.8545 19.0461 34.8812 19.1465 34.9045L19.4481 34.9693C19.5487 34.991 19.6493 35.0144 19.7506 35.0301C19.9539 35.065 20.1561 35.1074 20.3614 35.1324L20.6682 35.1765C20.7708 35.19 20.8738 35.1985 20.9767 35.211C21.0797 35.2239 21.1826 35.2341 21.2859 35.2419L21.5964 35.2633C21.8032 35.2817 22.0111 35.2831 22.2186 35.2919C22.3232 35.2972 22.4275 35.2959 22.5317 35.2949H22.8448C22.9494 35.2949 23.0537 35.2883 23.1579 35.2857C23.2625 35.2827 23.3668 35.2798 23.471 35.2738L23.7841 35.2515C23.8887 35.2436 23.993 35.2383 24.0972 35.2262L24.4103 35.1943C24.4623 35.1883 24.5149 35.1844 24.5669 35.1772L24.7228 35.1551L25.0359 35.112C25.1405 35.0985 25.2447 35.0772 25.3473 35.0611C25.45 35.0446 25.5562 35.0262 25.6604 35.0068L25.9706 34.9423C26.1791 34.9032 26.3827 34.8496 26.5892 34.8006L26.7441 34.7637L26.8977 34.7216L27.2052 34.6371C27.3095 34.6108 27.4082 34.5746 27.5101 34.544L27.8166 34.4503C27.6262 34.546 27.4364 34.646 27.2417 34.7348L26.9484 34.8664L26.8014 34.9325L26.6524 34.993C26.4527 35.0719 26.2534 35.1538 26.0492 35.2222L25.744 35.3268C25.6414 35.3613 25.5381 35.3899 25.4348 35.4222C24.6027 35.6744 23.7549 35.8501 22.8909 35.9491C22.458 35.9948 22.0213 36.028 21.5855 36.0369L21.2556 36.0431C21.1461 36.0431 21.0369 36.0388 20.9274 36.0372C20.8179 36.0352 20.7087 36.0333 20.5988 36.0277L20.2706 36.0073C19.3882 35.9497 18.5199 35.8066 17.6658 35.5777C17.4533 35.5179 17.2386 35.4623 17.0287 35.3903L16.7124 35.286L16.3992 35.1706L16.2434 35.112C16.1911 35.0926 16.1391 35.0722 16.0884 35.0499L15.7819 34.9183L15.6287 34.8522L15.478 34.7799L15.1768 34.6345L15.1015 34.5996L15.0284 34.5595L14.8814 34.4802L14.5867 34.3211L14.2993 34.1471C14.2042 34.0882 14.1066 34.0333 14.0151 33.9691L13.7366 33.7817C13.6905 33.7504 13.6432 33.7202 13.5974 33.6873L13.4629 33.5883L13.1929 33.388C13.1475 33.3551 13.1041 33.3183 13.061 33.2834L12.9308 33.1772C12.2335 32.6046 11.6073 31.9632 11.0522 31.2528L11.0252 31.218L10.9903 31.1736L10.9371 31.1029L10.8417 30.9638L10.6585 30.6914C10.5381 30.5099 10.42 30.328 10.3039 30.1455C10.0714 29.7781 9.84482 29.4088 9.62479 29.0246C9.51691 28.8312 9.41068 28.6352 9.3084 28.4267C9.25709 28.3221 9.2071 28.2139 9.15809 28.0949C9.13376 28.0353 9.10975 27.9718 9.0864 27.9021L9.06864 27.8469L9.05153 27.786L9.03542 27.7166C9.03016 27.6887 9.02522 27.6643 9.02062 27.6331C9.01503 27.5969 9.01141 27.5604 9.00977 27.5239V27.4917C9.00977 27.4805 9.00977 27.4716 9.00977 27.4568C9.00977 27.4282 9.01338 27.3993 9.01667 27.3703C9.01865 27.3565 9.02325 27.3322 9.02687 27.3134C9.03081 27.2943 9.03641 27.2736 9.042 27.2542C9.04857 27.2295 9.05713 27.2055 9.06666 27.1822C9.07785 27.1555 9.09001 27.1296 9.10317 27.1042C9.11929 27.0743 9.1377 27.0457 9.15809 27.0187C9.18013 26.9888 9.20447 26.9605 9.23078 26.9342C9.25939 26.9056 9.28998 26.8796 9.32287 26.8566C9.35313 26.8352 9.3847 26.8161 9.41726 26.799L9.55309 26.7296L9.68892 26.6599L9.82475 26.5869C10.006 26.4905 10.1865 26.3879 10.3687 26.2863C11.0972 25.8778 11.8277 25.4322 12.5848 25.0148C13.3419 24.5971 14.1279 24.1965 14.9659 23.8824C15.3892 23.7219 15.8214 23.5914 16.2624 23.4904C16.7143 23.3881 17.1715 23.3309 17.6346 23.3187C18.1065 23.3092 18.5712 23.3618 19.0294 23.4759C19.4855 23.5904 19.9177 23.7644 20.3259 23.9979C20.7258 24.2278 21.0915 24.5031 21.4227 24.8241C21.5868 24.9806 21.7384 25.1473 21.8848 25.3164C22.0311 25.4854 22.167 25.6621 22.2946 25.8429C22.7961 26.5639 23.2013 27.3354 23.5098 28.1577C23.8187 28.9625 24.0463 29.7896 24.1926 30.6391Z" fill="#FFDB42"/>
</g>
</svg>
