<svg width="16" height="20" viewBox="0 0 16 20" fill="none" xmlns="http://www.w3.org/2000/svg">
<path d="M0 8C0 11.8267 5.0845 16.6702 7.14655 18.4772C7.63387 18.9043 8.34897 18.8837 8.816 18.4346C10.8532 16.4755 16 11.2084 16 8C16 4 12.8 0 8 0C3.2 0 0 3.2 0 8Z" fill="white"/>
<path d="M8.00016 9.59994C9.47292 9.59994 10.6668 8.40603 10.6668 6.93327C10.6668 5.46051 9.47292 4.2666 8.00016 4.2666C6.5274 4.2666 5.3335 5.46051 5.3335 6.93327C5.3335 8.40603 6.5274 9.59994 8.00016 9.59994Z" fill="#836243"/>
</svg>
