<svg width="70" height="500" viewBox="0 0 70 500" fill="none" xmlns="http://www.w3.org/2000/svg">
<path d="M69.1693 499.062H68.2557C68.035 498.34 67.6924 497.639 67.2278 496.954C66.758 496.264 65.93 495.519 64.7463 494.722C63.5575 493.92 61.7769 493.048 59.4097 492.105L16.8826 474.901C15.7769 474.46 14.6711 474.515 13.5706 475.068L12.4908 475.555L10.6738 471.34L59.4928 451.239C61.8055 450.243 63.5575 449.389 64.7463 448.675C65.93 447.956 66.758 447.294 67.2278 446.692C67.6924 446.085 68.035 445.503 68.2557 444.948H69.1693V455.372H68.2557C68.035 454.598 67.6924 454.102 67.2278 453.887C66.758 453.666 65.93 453.721 64.7463 454.053C63.5575 454.38 61.8055 455.04 59.4928 456.036L47.0752 461.165V485.824L59.4097 490.787C62.0001 491.833 64.0507 492.329 65.5666 492.271C67.0824 492.217 67.9805 491.472 68.2557 490.039H69.1693V499.062ZM45.9227 485.326V461.664L16.8826 473.655L45.9227 485.326Z" fill="white"/>
<path d="M69.9999 410.779C69.9999 416.85 68.8423 422.158 66.5218 426.706C64.2039 431.253 60.91 434.799 56.6375 437.337C52.3599 439.879 47.3244 441.148 41.5309 441.148C36.9002 441.148 32.6823 440.322 28.8745 438.666C25.0693 437.005 21.8143 434.7 19.1149 431.752C16.4102 428.803 14.3259 425.343 12.8646 421.369C11.4058 417.398 10.6738 413.094 10.6738 408.463C10.6738 405.759 10.9516 403.153 11.5044 400.645C12.0521 398.133 12.6569 395.939 13.3214 394.063C13.9859 392.189 14.5102 390.922 14.8892 390.263L23.4963 389.93L23.6624 390.585C20.4101 392.137 17.708 394.675 15.5536 398.205C13.4019 401.735 12.3247 406.34 12.3247 412.014C12.3247 416.375 13.2902 420.377 15.2214 424.017C17.1526 427.658 20.0493 430.596 23.9116 432.831C27.774 435.061 32.6019 436.203 38.3953 436.258C42.1409 436.258 45.8059 435.694 49.3905 434.565C52.9777 433.439 56.2067 431.7 59.0775 429.353C61.943 427.007 64.2324 424.11 65.9403 420.663C67.6509 417.216 68.5048 413.177 68.5048 408.546C68.5048 404.243 67.4744 400.323 65.4108 396.793C63.3421 393.263 59.9885 390.644 55.3501 388.934L55.4332 388.103L65.0371 389.432C65.8054 390.59 66.5789 392.313 67.3524 394.603C68.1207 396.895 68.754 399.462 69.2524 402.307C69.7508 405.146 69.9999 407.97 69.9999 410.779Z" fill="white"/>
<path d="M69.169 380.253H68.2553C68.0347 379.48 67.6635 378.846 67.1444 378.353C66.62 377.855 65.709 377.497 64.4137 377.273C63.1211 377.053 61.2029 376.941 58.6618 376.941H21.7621C19.2235 376.941 17.3053 377.053 16.0101 377.273C14.7175 377.497 13.7934 377.855 13.238 378.353C12.6851 378.846 12.3243 379.48 12.1582 380.253H11.2549V343.104L21.0976 342.108L21.2637 342.855C18.0114 344.122 15.709 345.928 14.3593 348.275C13.0043 350.616 12.3243 353.661 12.3243 357.412V372.311H37.8135V358.741C37.8135 355.87 37.6059 353.674 37.1906 352.158C36.7753 350.642 36.1991 349.57 35.4567 348.939C34.7091 348.303 33.8422 347.875 32.8507 347.652V346.738H43.8458V347.652C42.8024 347.875 41.9225 348.303 41.2086 348.939C40.4897 349.57 39.9212 350.642 39.5059 352.158C39.0906 353.674 38.8829 355.87 38.8829 358.741V372.311H64.7875C66.9886 372.311 68.0892 371.207 68.0892 368.999V355.179C68.0892 351.429 67.4714 348.41 66.2307 346.126C64.9926 343.836 62.6357 342.001 59.1601 340.623L59.3263 339.875L69.169 340.623V380.253Z" fill="white"/>
<path d="M69.9999 313.071C69.9999 315.993 69.6807 318.695 69.0447 321.179C68.4088 323.658 67.6379 325.836 66.7294 327.71C65.8158 329.587 64.9488 331.105 64.1234 332.268L53.5331 332.839L53.4501 332.019C56.0951 331.079 58.5765 329.823 60.8944 328.25C63.2149 326.68 65.1045 324.572 66.5633 321.927C68.0247 319.277 68.754 315.936 68.754 311.908C68.754 309.374 68.2453 307.088 67.2278 305.045C66.2051 303.005 64.8242 301.364 63.0851 300.123C61.3486 298.878 59.376 298.255 57.1671 298.255C55.0776 298.255 53.2321 298.782 51.6331 299.833C50.029 300.879 48.6326 302.242 47.449 303.923C46.2653 305.605 45.2349 307.441 44.3549 309.426C43.4698 311.415 42.6678 313.317 41.9462 315.137C39.7399 320.71 37.4505 324.821 35.0833 327.471C32.7109 330.116 29.5649 331.437 25.6455 331.437C22.6138 331.437 19.9844 330.638 17.7548 329.039C15.5199 327.44 13.7834 325.223 12.5427 322.384C11.2968 319.539 10.6738 316.242 10.6738 312.489C10.6738 307.916 11.2007 304.305 12.252 301.66C13.298 299.01 14.1494 297.159 14.8061 296.105L23.1641 295.773L23.3302 296.438C21.399 297.325 19.5665 298.483 17.8274 299.916C16.0909 301.349 14.6711 303.238 13.5706 305.585C12.4648 307.926 11.9094 310.942 11.9094 314.638C11.9094 316.902 12.3402 319.028 13.1968 321.013C14.0482 323.001 15.32 324.6 17.0072 325.81C18.6892 327.022 20.8254 327.627 23.4133 327.627C25.456 327.627 27.2211 327.147 28.7084 326.184C30.1983 325.216 31.4961 323.931 32.6019 322.332C33.7024 320.733 34.6965 318.968 35.5817 317.037C36.4616 315.106 37.2896 313.203 38.0631 311.326C39.3869 308.019 40.7626 305.084 42.1954 302.522C43.6282 299.955 45.2972 297.941 47.1998 296.479C49.105 295.02 51.5189 294.288 54.4468 294.288C57.4785 294.288 60.1676 295.158 62.5141 296.894C64.8554 298.634 66.6879 300.923 68.0169 303.768C69.338 306.607 69.9999 309.707 69.9999 313.071Z" fill="white"/>
<path d="M69.9999 267.732C69.9999 270.654 69.6807 273.356 69.0447 275.84C68.4088 278.319 67.6379 280.497 66.7294 282.371C65.8158 284.248 64.9488 285.766 64.1234 286.929L53.5331 287.5L53.4501 286.68C56.0951 285.74 58.5765 284.484 60.8944 282.911C63.2149 281.341 65.1045 279.233 66.5633 276.588C68.0247 273.938 68.754 270.597 68.754 266.569C68.754 264.035 68.2453 261.749 67.2278 259.706C66.2051 257.666 64.8242 256.025 63.0851 254.785C61.3486 253.539 59.376 252.916 57.1671 252.916C55.0776 252.916 53.2321 253.443 51.6331 254.494C50.029 255.54 48.6326 256.903 47.449 258.585C46.2653 260.267 45.2349 262.102 44.3549 264.087C43.4698 266.076 42.6678 267.978 41.9462 269.798C39.7399 275.371 37.4505 279.482 35.0833 282.132C32.7109 284.777 29.5649 286.098 25.6455 286.098C22.6138 286.098 19.9844 285.299 17.7548 283.7C15.5199 282.101 13.7834 279.885 12.5427 277.045C11.2968 274.2 10.6738 270.904 10.6738 267.15C10.6738 262.577 11.2007 258.966 12.252 256.321C13.298 253.671 14.1494 251.82 14.8061 250.767L23.1641 250.434L23.3302 251.099C21.399 251.986 19.5665 253.144 17.8274 254.577C16.0909 256.01 14.6711 257.899 13.5706 260.246C12.4648 262.587 11.9094 265.603 11.9094 269.299C11.9094 271.563 12.3402 273.689 13.1968 275.674C14.0482 277.663 15.32 279.262 17.0072 280.471C18.6892 281.683 20.8254 282.288 23.4133 282.288C25.456 282.288 27.2211 281.808 28.7084 280.845C30.1983 279.877 31.4961 278.592 32.6019 276.993C33.7024 275.394 34.6965 273.629 35.5817 271.698C36.4616 269.767 37.2896 267.864 38.0631 265.987C39.3869 262.681 40.7626 259.745 42.1954 257.183C43.6282 254.616 45.2972 252.602 47.1998 251.14C49.105 249.682 51.5189 248.95 54.4468 248.95C57.4785 248.95 60.1676 249.819 62.5141 251.556C64.8554 253.295 66.6879 255.584 68.0169 258.429C69.338 261.269 69.9999 264.368 69.9999 267.732Z" fill="white"/>
<path d="M69.9994 212.54C69.9994 216.078 69.4076 219.569 68.224 223.016C67.0352 226.463 65.213 229.606 62.7627 232.443C60.3073 235.283 57.2158 237.546 53.4911 239.234C49.7689 240.916 45.3693 241.757 40.2948 241.757C34.4468 241.757 29.2893 240.542 24.8248 238.112C20.3551 235.683 16.8665 232.277 14.3591 227.896C11.8465 223.509 10.5902 218.39 10.5902 212.54C10.5902 209.067 11.2002 205.604 12.4176 202.157C13.6297 198.71 15.4649 195.57 17.9203 192.73C20.3706 189.893 23.4724 187.632 27.2231 185.95C30.9764 184.263 35.389 183.417 40.4609 183.417C45.647 183.417 50.1012 184.273 53.8233 185.981C57.5481 187.692 60.6109 189.955 63.0119 192.771C65.4077 195.583 67.1727 198.71 68.307 202.157C69.4335 205.604 69.9994 209.067 69.9994 212.54ZM35.8199 237.282C40.0145 237.282 44.0585 236.622 47.9468 235.299C51.8377 233.977 55.3262 232.101 58.4124 229.671C61.5013 227.242 63.9412 224.386 65.7322 221.106C67.5257 217.825 68.4212 214.253 68.4212 210.391C68.4212 205.76 67.4323 201.75 65.4518 198.357C63.4662 194.967 60.694 192.361 57.1354 190.539C53.5793 188.72 49.4523 187.809 44.7593 187.809C40.518 187.809 36.4507 188.483 32.5598 189.833C28.6715 191.183 25.1959 193.088 22.1357 195.544C19.0702 197.994 16.6407 200.878 14.8471 204.192C13.0561 207.502 12.158 211.086 12.158 214.949C12.158 219.579 13.1807 223.564 15.2209 226.899C17.2636 230.237 20.0644 232.802 23.6204 234.593C27.179 236.386 31.2464 237.282 35.8199 237.282ZM7.52738 218.666L1.31859 210.474C0.716399 209.705 0.347817 209.114 0.207652 208.698C0.0700826 208.283 0 207.883 0 207.494C0 206.837 0.223226 206.152 0.664486 205.438C1.10055 204.719 1.54181 204.358 1.98307 204.358C2.59305 204.358 3.14592 204.992 3.64429 206.258L7.94268 218.333L7.52738 218.666Z" fill="white"/>
<path d="M69.7504 132.545C69.7504 134.525 69.2416 136.054 68.2241 137.134C67.2015 138.208 65.7635 139.117 63.9154 139.864C62.0673 140.607 59.9025 141.531 57.4159 142.637C54.7735 143.794 52.318 144.814 50.0546 145.699C47.7912 146.579 45.8471 147.599 44.2196 148.762C42.5947 149.92 41.328 151.462 40.4196 153.393C39.5059 155.324 39.0491 157.889 39.0491 161.086V166.797H58.6618C61.2029 166.797 63.1211 166.688 64.4137 166.465C65.709 166.244 66.62 165.883 67.1443 165.385C67.6635 164.886 68.0347 164.253 68.2553 163.485H69.169V174.74H68.2553C68.0347 173.966 67.6635 173.333 67.1443 172.84C66.62 172.341 65.709 171.983 64.4137 171.76C63.1211 171.539 61.2029 171.427 58.6618 171.427H21.7621C19.2235 171.427 17.3053 171.539 16.0101 171.76C14.7175 171.983 13.7934 172.341 13.238 172.84C12.6851 173.333 12.3243 173.966 12.1582 174.74H11.2549V159.508C11.2549 151.791 12.3451 146.25 14.5254 142.886C16.7005 139.522 19.7998 137.84 23.8282 137.84C27.8021 137.84 31.1687 139.288 33.9305 142.18C36.687 145.074 38.3379 149.167 38.8829 154.462C39.2723 151.708 39.9498 149.476 40.9179 147.766C41.8809 146.058 43.1061 144.679 44.5934 143.633C46.0833 142.582 47.7912 141.671 49.7224 140.903C51.6535 140.129 53.7794 139.299 56.0973 138.411C60.4528 136.646 63.6091 135.117 65.5662 133.822C67.5259 132.529 68.5045 131.221 68.5045 129.897C68.5045 129.622 68.4915 129.373 68.4629 129.15C68.437 128.929 68.3955 128.708 68.3383 128.485H69.169C69.278 128.763 69.4026 129.274 69.5427 130.022C69.6803 130.764 69.7504 131.605 69.7504 132.545ZM37.8966 166.797V158.024C37.8966 153.227 36.822 149.52 34.6676 146.904C32.5158 144.282 29.5075 142.969 25.6451 142.969C21.57 142.969 18.3306 144.443 15.927 147.392C13.5261 150.34 12.3243 155.428 12.3243 162.654C12.3243 163.319 12.3399 163.983 12.3658 164.648C12.3944 165.307 12.4359 166.023 12.4904 166.797H37.8966Z" fill="white"/>
<path d="M69.169 124.685H68.2553C68.0347 123.911 67.6635 123.278 67.1444 122.785C66.62 122.286 65.709 121.928 64.4137 121.705C63.1211 121.484 61.2029 121.373 58.6618 121.373H21.7621C19.2235 121.373 17.3053 121.484 16.0101 121.705C14.7175 121.928 13.7934 122.286 13.238 122.785C12.6851 123.278 12.3243 123.911 12.1582 124.685H11.2549V113.43H12.1582C12.3243 114.198 12.6851 114.832 13.238 115.33C13.7934 115.828 14.7175 116.189 16.0101 116.41C17.3053 116.633 19.2235 116.742 21.7621 116.742H58.6618C61.2029 116.742 63.1211 116.633 64.4137 116.41C65.709 116.189 66.62 115.828 67.1444 115.33C67.6635 114.832 68.0347 114.198 68.2553 113.43H69.169V124.685Z" fill="white"/>
<path d="M70 75.5309C70 79.0687 69.4082 82.5599 68.2246 86.0069C67.0358 89.4539 65.2136 92.5973 62.7633 95.4343C60.3078 98.2739 57.2164 100.537 53.4917 102.225C49.7695 103.906 45.3699 104.747 40.2954 104.747C34.4474 104.747 29.2899 103.533 24.8253 101.103C20.3556 98.6737 16.8671 95.2682 14.3597 90.8867C11.8471 86.5001 10.5908 81.3815 10.5908 75.5309C10.5908 72.0579 11.2008 68.5953 12.4182 65.1483C13.6303 61.7013 15.4654 58.5605 17.9209 55.7209C20.3712 52.8839 23.473 50.623 27.2237 48.9411C30.977 47.2539 35.3896 46.4077 40.4615 46.4077C45.6476 46.4077 50.1018 47.2643 53.8239 48.9722C57.5487 50.6827 60.6115 52.9461 63.0125 55.7624C65.4083 58.5735 67.1733 61.7013 68.3076 65.1483C69.4341 68.5953 70 72.0579 70 75.5309ZM35.8205 100.273C40.0151 100.273 44.0591 99.6133 47.9474 98.2895C51.8382 96.9683 55.3268 95.0917 58.413 92.6621C61.5018 90.2326 63.9417 87.3774 65.7327 84.0965C67.5263 80.8156 68.4218 77.244 68.4218 73.3817C68.4218 68.751 67.4329 64.7408 65.4524 61.3483C63.4667 57.9583 60.6946 55.3523 57.136 53.5302C53.5799 51.7106 49.4528 50.7995 44.7599 50.7995C40.5186 50.7995 36.4513 51.4744 32.5604 52.8242C28.6721 54.1739 25.1965 56.0791 22.1363 58.5346C19.0708 60.9849 16.6413 63.8686 14.8477 67.1833C13.0567 70.4927 12.1586 74.0773 12.1586 77.9396C12.1586 82.5703 13.1813 86.5546 15.2215 89.89C17.2642 93.228 20.0649 95.7925 23.621 97.5835C27.1796 99.3771 31.247 100.273 35.8205 100.273Z" fill="white"/>
<path d="M69.9999 18.7823C69.9999 21.705 69.6807 24.4071 69.0447 26.8911C68.4088 29.37 67.6379 31.5477 66.7294 33.4218C65.8158 35.2984 64.9488 36.8169 64.1234 37.9798L53.5331 38.5508L53.4501 37.7306C56.0951 36.7909 58.5765 35.5347 60.8944 33.9617C63.2149 32.3913 65.1045 30.2837 66.5633 27.6387C68.0247 24.9885 68.754 21.6479 68.754 17.6195C68.754 15.0861 68.2453 12.7994 67.2278 10.7566C66.2051 8.71643 64.8242 7.07598 63.0851 5.83526C61.3486 4.58935 59.376 3.96639 57.1671 3.96639C55.0776 3.96639 53.2321 4.49331 51.6331 5.54455C50.029 6.59059 48.6326 7.95331 47.449 9.63529C46.2653 11.3173 45.2349 13.1524 44.3549 15.1381C43.4698 17.1263 42.6678 19.0289 41.9462 20.8485C39.7399 26.4213 37.4505 30.5328 35.0833 33.183C32.7109 35.828 29.5649 37.1491 25.6455 37.1491C22.6138 37.1491 19.9844 36.3497 17.7548 34.7508C15.5199 33.1518 13.7834 30.9352 12.5427 28.0955C11.2968 25.2507 10.6738 21.9542 10.6738 18.2009C10.6738 13.6274 11.2007 10.0168 12.252 7.37188C13.298 4.72173 14.1494 2.87103 14.8061 1.8172L23.1641 1.48495L23.3302 2.14944C21.399 3.03715 19.5665 4.19481 17.8274 5.62761C16.0909 7.0604 14.6711 8.95004 13.5706 11.2965C12.4648 13.6378 11.9094 16.6539 11.9094 20.3501C11.9094 22.6135 12.3402 24.7394 13.1968 26.725C14.0482 28.7133 15.32 30.3122 17.0072 31.5218C18.6892 32.7339 20.8254 33.3387 23.4133 33.3387C25.456 33.3387 27.2211 32.8585 28.7084 31.8956C30.1983 30.9274 31.4961 29.6425 32.6019 28.0436C33.7024 26.4447 34.6965 24.6797 35.5817 22.7485C36.4616 20.8173 37.2896 18.9147 38.0631 17.0381C39.3869 13.7312 40.7626 10.7955 42.1954 8.23364C43.6282 5.66654 45.2972 3.65232 47.1998 2.19097C49.105 0.732216 51.5189 0.000244141 54.4468 0.000244141C57.4785 0.000244141 60.1676 0.869786 62.5141 2.60627C64.8554 4.34536 66.6879 6.63472 68.0169 9.47955C69.338 12.3192 69.9999 15.4184 69.9999 18.7823Z" fill="white"/>
</svg>
