<svg width="212" height="116" viewBox="0 0 212 116" fill="none" xmlns="http://www.w3.org/2000/svg">
<path d="M167.328 1.4249C167.424 1.5209 167.615 1.4249 167.711 1.4249C168.095 1.23291 168.383 1.0409 168.863 1.23291C169.151 1.3289 169.439 1.23291 169.727 1.1369C169.919 1.1369 170.015 1.1369 170.015 1.23291C170.207 1.61691 170.495 1.4249 170.687 1.3289C170.975 1.23291 171.071 1.0409 170.879 0.752906C170.783 0.464904 170.591 -0.0150955 170.111 0.176902C169.823 0.272901 169.439 0.176902 169.247 0.272901C168.671 0.560903 168.191 0.464904 167.711 0.176902C167.615 0.176902 167.52 0.176902 167.424 0.272901L167.615 0.560903C167.807 0.944904 167.807 1.0409 167.424 1.0409H167.232C167.136 1.0409 167.04 1.1369 167.136 1.23291C167.136 1.3289 167.232 1.4249 167.328 1.4249ZM160.992 1.61691C161.472 1.61691 161.856 1.71291 162.336 1.5209C162.624 1.4249 162.912 1.5209 163.2 1.23291C163.488 0.944904 163.584 1.5209 163.776 1.5209C164.448 1.5209 165.216 1.61691 165.888 1.3289C166.272 1.1369 166.272 1.0409 166.272 0.464904C166.272 0.368905 166.176 0.368905 166.08 0.272901C165.696 0.752906 165.12 0.656902 164.544 0.848905C164.256 0.944904 164.064 0.848905 163.968 0.560903C163.776 0.272901 163.584 0.0809033 163.2 0.272901C162.816 0.464904 162.336 0.368905 162.048 0.368905H160.896C160.704 0.464904 160.512 0.464904 160.416 0.656902C160.32 0.944904 160.128 1.23291 160.224 1.4249C160.416 1.8089 160.704 1.71291 160.992 1.61691ZM175.487 1.4249C175.583 1.5209 175.679 1.4249 175.583 1.3289C175.583 1.23291 175.487 1.0409 175.487 1.0409C174.911 1.0409 174.431 0.944904 173.951 0.656902C173.471 0.368905 172.895 0.368905 172.415 0.656902C172.127 0.848905 171.743 0.944904 171.455 1.1369C171.647 1.3289 171.839 1.3289 172.031 1.3289C172.895 1.5209 173.855 1.71291 174.719 1.3289C174.911 1.23291 175.199 1.4249 175.487 1.4249ZM81.8978 115.281C82.5697 115.473 83.2416 115.185 83.9135 115.185H87.7531C88.9049 115.185 89.9608 115.185 91.0167 115.089C91.6886 114.801 92.2645 114.897 92.9364 114.897H95.2402C95.6241 114.801 96.1041 114.993 96.392 114.513C96.392 114.417 96.488 114.417 96.584 114.609C96.68 114.801 96.872 114.801 97.064 114.801C97.5439 114.513 98.0238 114.609 98.4078 114.609C98.7917 114.609 99.0797 114.609 99.3677 114.513C100.424 114.129 101.383 114.225 102.439 114.225C103.495 114.225 104.455 113.937 105.511 113.937H105.799C106.183 113.745 106.471 113.553 106.855 113.553C107.239 113.553 107.623 113.649 108.103 113.553C108.487 113.457 108.871 113.265 109.254 113.265C109.638 113.265 110.118 113.361 110.406 112.881C110.406 112.785 110.502 112.785 110.694 112.881C111.366 113.169 112.038 112.977 112.806 112.785C112.998 112.689 113.19 112.689 113.382 112.689C115.398 112.689 117.414 112.017 119.333 111.633C121.637 111.153 123.941 110.577 126.148 110.097L129.796 109.233C131.524 108.849 133.156 108.369 134.883 107.889C135.555 107.697 136.227 107.601 136.803 107.217C137.091 107.025 137.187 106.833 137.571 106.929C138.147 107.025 138.819 106.833 139.395 106.545C139.491 106.449 139.491 106.257 139.683 106.353C140.259 106.641 140.835 106.257 141.315 106.065C142.946 105.393 144.482 105.105 146.114 104.529C147.842 103.953 149.666 103.281 151.393 102.609C152.449 102.225 153.505 101.649 154.657 101.361C154.849 101.361 155.137 101.265 155.233 101.073C155.425 100.689 156.001 100.689 156.481 100.593C156.865 100.401 157.249 100.305 157.633 100.113C158.017 99.9209 158.305 99.8249 158.689 99.7289C158.977 99.6329 159.36 99.5369 159.552 99.2489C159.936 98.9609 160.32 99.2489 160.608 98.9609C160.896 98.6729 161.568 98.7689 161.76 98.3849C161.856 98.1929 162.144 98.0969 162.336 98.0969C162.912 98.0969 163.392 97.7129 163.968 97.5209C164.352 97.0409 165.12 97.0409 165.312 96.3689C165.408 96.2729 165.6 96.3689 165.696 96.2729C166.272 96.2729 166.944 96.1769 167.52 95.8889C168.671 95.3129 169.823 95.0249 170.879 93.9689C170.975 93.8729 171.071 93.7769 171.167 93.7769C171.839 93.7769 172.319 93.5849 172.799 93.2969C173.663 92.7209 174.623 92.4329 175.295 91.7609C176.35 91.4729 177.214 90.8969 178.078 90.4169C179.422 89.6489 180.766 88.8809 182.11 88.0169C183.358 87.2489 184.413 86.3849 185.661 85.6169C186.141 85.3289 186.525 85.1369 186.813 84.8489C187.773 83.8889 188.925 83.2169 189.885 82.2569C189.981 82.1609 190.077 82.0649 190.173 82.0649C191.133 81.6809 191.901 81.1049 192.668 80.3369C192.86 80.1449 193.052 79.9529 193.244 79.8569C194.3 78.8969 195.356 78.0329 196.412 76.9769C196.604 76.7849 196.604 76.4009 196.988 76.3049C197.564 76.1129 197.948 75.6329 198.332 75.2489C198.332 75.1529 198.428 74.9609 198.332 74.9609C198.14 74.7689 197.948 74.5769 198.428 74.5769C198.812 74.5769 199.1 74.3849 199.388 74.0969C199.676 73.8089 199.868 73.2329 200.348 73.1369C200.636 72.3689 201.691 72.0809 201.691 71.1209C201.691 71.0249 201.883 70.9289 201.979 70.8329C202.843 69.9689 203.419 68.9129 204.379 68.2409C204.667 68.0489 204.859 67.7609 205.051 67.4729C205.243 67.1849 205.339 66.8969 205.531 66.5129C205.723 66.2249 205.819 65.9369 206.011 65.7449C207.163 64.5929 207.643 62.9609 208.507 61.6169C208.795 61.3289 208.795 61.0409 208.891 60.6569C208.987 60.2729 208.987 59.8889 209.179 59.6009C209.754 59.0249 209.85 58.1609 210.138 57.4889C210.042 56.9129 210.426 56.4329 210.618 55.8569L211.386 53.3609C211.578 52.7849 211.386 52.2089 211.482 51.6329C211.674 50.7689 211.962 49.9049 211.77 48.9449C211.674 48.7529 211.77 48.5609 211.77 48.4649C212.058 47.9849 212.058 47.5049 211.866 47.1209C211.578 46.5449 211.962 46.0649 211.77 45.5849C211.674 45.2969 211.578 44.9129 211.674 44.5289C211.77 44.2409 211.674 43.9529 211.674 43.6649C211.674 42.5129 211.482 41.3609 211.002 40.4009C210.81 40.0169 210.714 39.5369 210.714 39.0569C210.714 38.8649 210.714 38.6729 210.618 38.4809C210.426 38.0009 210.426 37.4249 210.042 37.0409C209.562 36.5609 209.946 35.8889 209.658 35.4089C209.179 34.6409 208.891 33.7769 208.699 32.9129C208.603 32.3369 208.219 31.6649 207.835 31.0889C207.643 30.8009 207.355 30.4169 207.259 30.0329C206.971 28.8809 206.299 28.0169 205.627 27.0569C205.147 26.3849 204.859 25.8089 204.187 25.3289C203.899 25.1369 203.803 24.8489 203.611 24.4649C203.035 23.6969 202.555 22.8329 201.691 22.2569C201.499 22.2569 201.403 22.0649 201.307 21.9689C200.54 21.2009 199.964 20.4329 199.292 19.6649C198.716 18.9929 197.66 18.8009 197.372 17.8409C197.372 17.7449 197.18 17.7449 197.084 17.7449C196.796 17.5529 196.508 17.3609 196.22 17.0729C195.356 16.2089 194.3 15.4409 193.34 14.6729C192.956 14.3849 192.572 14.0009 192.093 13.9049C191.613 13.8089 191.325 13.0409 190.845 12.9449C190.173 12.9449 190.077 12.2729 189.693 12.0809C188.733 11.6009 187.869 10.9289 187.005 10.4489C186.333 10.0649 185.565 9.8729 184.893 9.3929C184.222 8.9129 183.454 8.9129 182.782 8.43291C182.782 8.33691 182.494 8.33691 182.398 8.43291C182.206 8.43291 182.11 9.0089 181.918 8.43291C181.822 8.1449 181.726 7.6649 181.246 7.6649C180.67 7.6649 180.286 7.2809 179.902 6.99291C179.518 6.7049 179.23 6.7049 178.846 6.7049C178.27 6.7049 177.79 6.60891 177.406 6.2249C176.926 5.7449 176.254 5.8409 175.775 5.64891C175.679 5.5529 175.583 5.5529 175.487 5.64891C175.295 5.8409 175.103 5.9369 174.911 5.7449C174.527 5.3609 174.239 5.16891 173.663 5.16891C173.375 5.16891 173.087 5.0729 172.895 4.78491C172.703 4.6889 172.511 4.5929 172.319 4.5929C172.031 4.4009 171.743 4.30491 171.455 4.2089C171.167 4.2089 170.879 4.2089 170.687 4.1129C170.303 3.92091 170.111 4.1129 169.919 4.30491C169.535 4.1129 169.151 4.30491 168.863 3.92091C168.575 3.44091 168.095 3.5369 167.615 3.5369C167.424 3.5369 167.136 3.7289 167.136 3.6329C166.848 3.2489 166.56 3.44091 166.368 3.6329C166.176 3.7289 166.08 3.7289 165.888 3.6329C165.696 3.5369 165.312 3.3449 165.216 3.44091C164.928 3.5369 164.832 3.8249 164.64 3.44091C164.448 3.2489 164.256 2.96091 163.872 3.1529C163.776 3.1529 163.584 3.05691 163.488 2.96091C162.912 2.3849 162.048 2.4809 161.28 2.4809C161.184 2.4809 160.992 2.57691 160.8 2.4809C160.512 2.1929 160.032 2.4809 159.648 2.1929C159.552 2.1929 159.456 2.09691 159.36 2.0009C159.264 1.9049 159.169 1.8089 159.169 1.61691C159.169 1.4249 159.36 1.5209 159.552 1.5209C159.648 1.5209 159.744 1.4249 159.648 1.3289C159.456 0.656902 159.073 0.368905 158.593 0.560903C157.825 0.848905 156.865 0.560903 156.289 1.1369C156.193 1.23291 156.097 1.23291 156.097 1.1369C155.809 0.656902 155.329 0.752906 154.945 0.848905C153.697 1.1369 152.545 1.1369 151.297 1.1369C150.913 1.1369 150.53 1.0409 150.146 1.1369C149.762 1.23291 149.378 1.23291 148.994 1.23291C148.322 1.23291 147.65 1.3289 146.978 1.23291C146.498 1.1369 146.018 1.71291 145.442 1.23291C144.962 1.71291 144.194 1.71291 143.618 1.9049C143.33 2.0009 142.946 2.09691 143.138 1.5209C142.658 1.0409 141.987 1.0409 141.411 1.5209C141.603 2.1929 141.027 2.0009 140.739 1.9049C140.451 1.71291 140.067 1.61691 139.779 1.61691C139.491 1.61691 139.299 1.3289 139.011 1.4249C138.723 1.61691 138.723 1.9049 138.723 2.1929C138.723 2.2889 138.627 2.3849 138.627 2.4809L137.091 3.05691C136.899 3.05691 136.611 3.2489 136.419 3.05691C135.939 2.7689 135.555 2.96091 135.075 3.1529C134.691 3.44091 134.307 2.8649 133.732 3.1529C132.58 3.7289 131.332 3.92091 130.18 4.2089C128.74 4.5929 127.204 4.5929 125.765 4.9769C124.613 5.2649 123.461 5.2649 122.405 5.8409C121.925 5.64891 121.349 6.51291 120.869 6.0329C120.773 5.9369 120.485 6.0329 120.293 6.12891C119.333 6.6089 118.181 6.7049 117.126 6.8969C115.398 7.1849 113.67 7.6649 111.942 8.1449C110.79 8.43291 109.542 8.81691 108.391 9.1049L103.303 10.5449C102.055 10.9289 100.903 11.3129 99.7516 11.6009C99.0797 11.7929 98.5998 12.1769 97.9278 12.2729C96.872 12.4649 95.9121 12.9449 94.8562 13.3289C94.2803 13.5209 93.8003 13.7129 93.1284 13.7129C92.8405 13.7129 92.3605 14.0969 91.9766 14.1929C91.2087 14.1929 90.5367 14.6729 89.7688 14.7689C88.9049 14.8649 88.329 15.5369 87.4651 15.6329C86.0253 16.4009 84.3935 16.6889 82.8577 17.4569C82.6657 17.5529 82.4737 17.6489 82.2817 17.6489C81.6098 17.6489 80.9379 18.0329 80.362 18.2249L76.3304 19.9529C75.5625 20.2409 74.7946 20.4329 74.1227 20.8169C73.1628 21.3929 72.011 21.5849 70.9551 22.0649C69.5153 22.7369 68.0754 23.4089 66.5396 23.8889C65.9637 24.3689 65.2918 24.5609 64.6198 24.8489C63.66 25.2329 62.7961 25.6169 61.9322 26.0969C61.5482 26.1929 61.3562 26.4809 61.2602 26.8649C61.1643 27.2489 61.0683 27.2489 60.7803 27.0569C60.3964 26.8649 60.2044 26.7689 59.9164 26.9609C59.0525 27.5369 58.1886 28.4009 57.0368 28.4009C56.9408 28.4009 56.7488 28.5929 56.6528 28.5929C56.0769 28.9769 55.5969 29.3609 55.021 29.5529C54.3491 29.7449 53.8691 30.1289 53.1972 30.4169C52.1413 30.8969 51.1815 31.1849 50.3176 32.0489C50.2216 32.1449 50.1256 32.1449 50.0296 32.1449C49.4537 32.3369 48.9737 32.7209 48.3978 32.9129L46.67 33.7769L45.1342 34.7369C44.5583 35.1209 43.9823 35.4089 43.5024 35.6969C42.9264 35.9849 42.3505 36.2729 41.8706 36.5609L39.8548 37.7129C39.4709 37.9049 39.0869 38.3849 38.703 38.5769C37.1671 39.3449 35.8233 40.3049 34.4795 41.1689C32.3677 42.5129 30.256 43.8569 28.2402 45.2969C27.8563 45.4889 27.5683 45.7769 27.2803 46.0649C26.5124 46.8329 25.5525 47.5049 24.5926 47.9849C24.4007 48.1769 24.1127 48.3689 23.8247 48.5609C22.8648 49.2329 22.0969 50.1929 21.1371 50.8649C19.9852 51.6329 19.1213 52.5929 18.1614 53.5529C18.0654 53.6489 17.8734 53.8409 17.7775 53.8409C17.2975 53.8409 17.1055 54.3209 16.8176 54.6089C16.3376 55.0889 15.9537 55.5689 15.4737 55.9529C14.9938 56.3369 14.6098 56.6249 14.2259 57.1049C13.362 57.8729 12.6901 58.8329 11.8262 59.6969C11.4422 60.0809 10.9623 60.3689 10.7703 60.7529C10.2904 61.7129 9.42646 62.3849 8.75454 63.1529C8.2746 63.7289 7.69867 64.4009 7.31471 64.9769C6.54681 66.1289 5.7789 67.1849 5.10698 68.3369C4.72303 69.0089 4.33907 69.7769 3.85913 70.3529C3.57116 70.7369 3.37919 71.2169 3.09122 71.6969C2.80326 72.1769 2.89924 72.7529 2.70727 73.3289C2.51529 73.8089 2.03535 74.2889 1.84337 74.7689C1.74738 75.3449 1.45942 75.8249 1.45942 76.3049C1.26744 76.8809 1.07546 77.2649 0.787497 77.8409C0.691509 78.0329 0.59552 78.2249 0.59552 78.5129C0.787497 79.0889 0.787497 79.5689 0.403544 79.9529C0.307555 80.0489 0.307555 80.2409 0.307555 80.4329L0.0195896 82.8329C-0.0763991 83.6969 0.211566 84.4649 0.211566 85.3289C0.211566 86.0969 0.691509 86.7689 0.499532 87.6329C0.499532 87.6329 0.59552 87.8249 0.691509 87.8249C1.07546 88.3049 0.787497 89.0729 1.36343 89.4569C1.36343 89.8409 1.65139 90.1289 1.5554 90.5129C1.45942 90.8009 1.5554 90.9929 1.74738 91.1849C1.93936 91.3769 2.22732 91.5689 2.22732 91.8569C2.22732 92.6249 2.89924 93.0089 3.2832 93.4889C3.76314 94.0649 4.05111 94.5449 4.43506 95.1209C4.62704 95.4089 4.72303 95.7929 5.01099 95.8889C5.39495 96.1769 5.68291 96.6569 5.97088 97.0409C6.54681 97.7129 7.12274 98.2889 7.69867 98.8649C8.56256 99.7289 9.42646 100.497 10.3863 101.073C10.8663 101.361 11.2502 101.841 11.7302 102.321C12.2101 102.801 12.7861 102.993 13.266 103.377C13.65 103.665 14.3219 103.569 14.6098 104.145C14.7058 104.241 14.8978 104.241 14.9938 104.241C15.6657 104.241 16.0497 104.913 16.6256 105.201C17.2015 105.489 17.9694 105.585 18.4494 105.969C19.3133 106.449 20.3691 106.641 21.1371 107.121C21.329 107.313 21.617 107.313 21.905 107.409C22.8648 107.697 23.8247 108.081 24.7846 108.369C25.6485 108.657 26.5124 108.849 27.2803 109.137C27.3763 109.233 27.5683 109.041 27.7603 109.041C27.8563 109.041 27.9522 109.137 27.8563 109.233C27.8563 109.425 27.9522 109.521 28.1442 109.521C28.6242 109.521 29.0081 109.713 29.3921 110.001C29.968 109.809 30.352 110.193 30.9279 110.193C31.1199 110.289 31.3118 110.289 31.5038 110.385C31.8878 110.577 32.2717 110.865 32.6557 110.673C33.2316 110.385 33.3276 111.057 33.7116 111.057H34.0955C34.2875 111.057 34.4795 110.961 34.6714 111.057C35.0554 111.441 35.6313 111.441 36.1113 111.441C36.5912 111.441 37.0711 111.537 37.5511 111.633C38.607 111.825 39.7588 112.305 41.0067 112.305C41.1987 112.305 41.3906 112.305 41.5826 112.401C42.7345 112.977 44.0783 112.593 45.3262 112.977C46.478 112.881 47.5339 113.361 48.6858 113.361C49.0697 113.361 49.3577 113.553 49.7416 113.553C50.2216 113.553 50.7015 113.649 51.2774 113.649C51.7574 113.649 52.2373 113.649 52.8133 113.841C53.1012 113.937 53.3892 113.937 53.6772 113.937C54.637 113.937 55.5969 113.841 56.4608 114.033C57.7087 114.321 58.8605 114.225 60.0124 114.417C61.1643 114.609 62.2201 114.609 63.276 114.609C64.3319 114.609 65.4837 114.705 66.5396 114.705C67.6915 114.705 68.9393 114.897 70.0912 114.897C70.4751 114.993 70.8591 115.089 71.339 115.089C71.819 115.089 72.2989 114.993 72.8749 115.089C73.3548 115.185 73.9307 115.185 74.5067 114.993C74.9866 114.801 75.4665 115.377 76.0425 115.089C76.6184 115.281 77.2903 114.993 77.8663 115.089C78.5382 115.185 79.2101 115.185 79.882 115.185C80.5539 115.185 81.2259 115.089 81.8978 115.281ZM87.0812 112.881C86.8892 112.785 86.7932 112.497 86.4092 112.593C85.6413 112.593 84.8734 112.497 84.1055 112.497C82.9536 112.497 81.8018 112.305 80.6499 112.593C80.4579 112.593 80.266 112.593 80.17 112.497H77.4823C75.7545 112.497 73.9307 112.593 72.1069 112.305C71.819 112.209 71.531 112.209 71.339 112.209C71.0511 112.305 70.6671 112.209 70.4751 112.305C69.8032 112.305 69.1313 112.017 68.4594 112.305C66.9236 111.921 65.1958 112.593 63.8519 111.921C63.66 111.825 63.372 111.825 63.18 111.921C62.0282 112.113 60.9723 111.633 59.8204 111.921C59.6284 112.017 59.3405 111.921 59.0525 111.825C58.5726 111.537 57.9966 111.441 57.4207 111.729C57.2287 111.825 56.9408 111.729 56.6528 111.729C56.3648 111.633 56.1729 111.537 55.8849 111.537C55.309 111.537 54.733 111.633 54.2531 111.441C53.6772 111.345 53.1972 111.153 52.5253 111.153H51.9494C51.4694 111.153 51.0855 110.865 50.6055 110.961C50.1256 111.057 49.6456 110.865 49.1657 110.865C48.2058 110.865 47.2459 110.385 46.286 110.385C45.8061 110.385 45.4221 110.289 44.9422 110.193C44.2703 110.193 43.6944 110.193 43.0224 110.001C42.4465 109.809 41.8706 109.905 41.1987 109.713C40.9107 109.617 40.5267 109.617 40.1428 109.617C39.7588 109.617 39.2789 109.425 38.9909 109.425C38.415 109.617 38.223 109.233 37.8391 109.041H37.6471C36.3032 109.041 34.9594 108.369 33.6156 108.369C33.1356 108.369 32.6557 108.081 32.1757 108.081C31.5038 108.081 30.9279 107.697 30.256 107.505L28.3362 107.025C27.9522 106.833 27.4723 106.641 26.9924 106.641C26.6084 106.641 26.3204 106.449 25.9365 106.353C25.4565 106.257 25.0726 105.777 24.4967 106.065C24.4007 106.065 24.2087 105.969 24.0167 105.873C23.4408 105.585 22.8648 105.585 22.2889 105.201C21.809 104.913 21.233 104.625 20.6571 104.337C20.2732 104.145 19.9852 103.953 19.5053 103.953C19.3133 104.049 19.1213 103.953 18.9293 103.857L15.8577 102.225C15.2818 101.937 14.7058 101.457 14.2259 101.073C13.8419 100.881 13.554 100.497 13.17 100.497C13.074 100.497 12.882 100.497 12.882 100.401C12.5941 99.5369 11.6342 99.6329 11.1543 99.1529C10.6743 98.6729 10.1944 98.1929 9.61844 97.9049C9.23448 97.7129 8.85053 97.4249 8.75454 97.0409C8.65855 96.7529 8.56256 96.5609 8.17861 96.4649C7.79466 96.3689 7.4107 96.0809 7.4107 95.6969C7.4107 95.5049 7.31471 95.3129 7.12274 95.3129C6.25884 94.8329 5.97088 93.6809 5.29896 93.0089C5.10698 92.8169 5.01099 92.4329 4.62704 92.2409C4.53105 92.1449 4.33907 91.8569 4.33907 91.7609C4.33907 91.1849 4.05111 90.8969 3.76314 90.4169C3.2832 89.6489 2.99523 88.8809 2.99523 87.9209C2.99523 87.7289 2.89924 87.4409 2.80326 87.2489C2.4193 86.4809 2.70727 85.6169 2.4193 84.8489C2.32331 84.5609 2.51529 84.2729 2.51529 84.0809C2.51529 83.7929 2.51529 83.5049 2.61128 83.3129C2.61128 82.9289 2.32331 82.6409 2.4193 82.2569C2.61128 81.9689 2.70727 81.6809 2.70727 81.3929C2.70727 80.6249 3.37919 79.9529 3.18721 79.0889C3.57116 78.8009 3.66715 78.3209 3.47517 77.8409C4.1471 77.0729 3.76314 76.0169 4.62704 75.1529C4.915 74.8649 5.10698 74.3849 5.20297 73.9049C5.29896 73.4249 5.39495 73.0409 5.68291 72.6569C6.25884 71.8889 6.64279 70.9289 7.21873 70.1609C8.46658 68.5289 9.52245 66.8969 10.3863 65.1689C10.5783 64.7849 10.7703 64.5929 11.0583 64.4009C11.4422 64.1129 11.8262 63.7289 12.1141 63.3449L13.554 61.6169C14.0339 60.9449 14.6098 60.4649 15.0898 59.7929C15.2818 59.5049 15.5697 59.3129 15.8577 59.0249L17.3935 57.4889C17.9694 56.9129 18.4494 56.3369 19.2173 55.9529C19.3133 55.8569 19.5053 55.7609 19.5053 55.6649C19.9852 54.8009 20.8491 54.4169 21.521 53.7449C22.1929 53.0729 22.8648 52.4009 23.7287 52.0169C23.9207 51.9209 24.0167 51.8249 24.1127 51.7289C24.7846 51.0569 25.4565 50.5769 26.1285 50.0009C26.8004 49.4249 27.5683 49.1369 28.0482 48.4649C28.9121 47.6009 30.16 47.1209 31.1199 46.3529C32.0797 45.5849 33.1356 44.9129 34.0955 44.1449C34.0955 44.0489 34.1915 43.9529 34.2875 43.9529C35.3434 43.9529 36.1113 42.8969 36.9752 42.3209L39.8548 40.4969L43.7903 38.0009C44.0783 37.9049 44.3663 37.7129 44.6542 37.6169L46.574 36.5609C47.3419 35.9849 48.1098 35.5049 49.0697 35.1209C49.5497 34.9289 49.8376 34.5449 50.2216 34.3529C50.9895 33.9689 51.7574 33.6809 52.4293 33.3929C52.5253 33.2969 52.7173 33.2969 52.7173 33.2009C53.4852 32.5289 54.4451 32.1449 55.309 31.7609L56.5568 31.1849C57.6127 30.7049 58.5726 30.0329 59.5325 29.5529C59.9164 29.3609 60.3004 29.1689 60.6843 29.0729C60.9723 28.9769 61.2602 28.7849 61.4522 28.5929C61.6442 28.4969 61.7402 28.3049 61.8362 28.3049C62.7961 28.3049 63.564 27.6329 64.4279 27.2489C64.5239 27.1529 64.6198 27.0569 64.8118 27.0569C66.4436 26.6729 67.8835 25.7129 69.3233 25.0409L69.8992 24.7529C70.4751 24.7529 70.8591 24.4649 71.339 24.2729L75.0826 22.5449C75.5625 22.3529 76.0425 22.2569 76.5224 21.9689C77.0024 21.6809 77.5783 21.4889 78.1542 21.2969C78.7302 21.1049 79.3061 21.0089 79.594 20.4329C79.69 20.2409 79.882 20.1449 80.074 20.1449C81.2259 20.1449 82.1857 19.3769 83.2416 19.3769C83.7216 19.3769 84.2015 18.9929 84.5854 18.7049C85.0654 18.3209 85.6413 18.2249 86.1213 18.0329C86.6012 17.8409 87.0812 17.9369 87.5611 17.4569C87.6571 17.3609 87.7531 17.3609 87.8491 17.3609C88.233 17.5529 88.425 17.3609 88.713 17.2649C89.1929 17.0729 89.5769 16.8809 89.8648 16.4969C90.2488 16.6889 90.6327 16.4969 91.0167 16.4009C91.4966 16.4009 91.6886 15.8249 92.1685 15.9209C92.6485 16.0169 92.9364 15.6329 93.3204 15.6329C93.7044 15.6329 94.1843 15.4409 94.5683 15.3449C94.8562 15.2489 95.2402 15.1529 95.5281 14.9609C95.3362 14.8649 95.2402 14.7689 95.1442 14.6729C95.1442 14.5769 95.0482 14.5769 95.0482 14.4809C95.0482 14.3849 95.1442 14.2889 95.2402 14.2889L95.8161 14.5769C96.0081 14.6729 96.2001 14.6729 96.392 14.6729C96.968 14.6729 97.1599 13.8089 97.6399 14.0009C98.3118 14.2889 98.6958 13.9049 99.0797 13.6169C99.3677 13.4249 99.5596 13.3289 99.9436 13.5209C100.04 13.5209 100.232 13.5209 100.328 13.4249C100.999 12.7529 101.959 12.8489 102.727 12.6569C103.111 12.5609 103.495 12.4649 104.071 12.1769C104.263 12.0809 104.647 12.1769 104.935 12.0809C105.895 11.7929 106.855 11.6969 107.719 11.2169C108.391 10.8329 109.35 10.9289 110.118 10.6409C110.79 10.3529 111.558 10.2569 112.326 10.0649L114.726 9.3929H114.918C116.454 8.81691 118.085 8.5289 119.717 8.1449C120.101 8.0489 120.485 7.95291 120.869 7.95291C121.253 7.95291 121.541 7.7609 121.733 7.5689C121.925 7.47291 122.117 7.2809 122.309 7.2809C123.269 7.2809 124.229 6.8009 125.189 6.8009H125.477C127.684 6.12891 129.892 5.9369 132.004 5.4569C132.868 5.4569 133.636 5.16891 134.499 4.9769C134.979 4.9769 135.459 4.8809 135.843 4.5929C136.131 4.4009 136.131 4.30491 136.419 4.5929C136.515 4.6889 136.515 4.6889 136.611 4.6889C137.475 4.30491 138.435 4.4969 139.299 4.2089C140.259 3.92091 141.315 3.8249 142.275 3.7289C142.946 3.6329 143.714 3.5369 144.386 3.3449C144.674 2.8649 145.058 3.0569 145.442 3.1529C145.73 3.2489 146.018 3.2489 146.114 3.1529C146.69 2.57691 147.266 2.8649 147.842 2.8649H148.13C149.09 2.8649 150.05 2.6729 151.105 2.8649C151.969 3.05691 152.929 2.8649 153.889 2.8649C154.273 2.8649 154.657 2.96091 155.137 2.7689C155.329 2.6729 155.329 2.8649 155.425 2.96091C155.713 3.2489 156.001 3.2489 156.289 3.1529C156.481 3.1529 156.481 3.05691 156.481 2.8649C156.385 2.6729 156.289 2.4809 156.481 2.4809C156.577 2.3849 156.769 2.57691 156.865 2.6729C156.865 2.7689 156.961 2.8649 156.961 2.96091C157.153 3.1529 157.249 3.1529 157.633 2.96091C158.017 2.57691 158.305 2.57691 158.305 3.2489C158.305 3.3449 158.305 3.44091 158.401 3.44091C158.881 3.44091 159.36 3.2489 159.84 3.44091C159.84 3.44091 160.032 3.3449 160.032 3.2489C160.128 3.0569 160.32 2.96091 160.512 3.2489C160.704 3.5369 160.896 3.8249 161.28 3.8249C161.856 3.8249 162.336 4.30491 163.008 4.0169C163.2 3.92091 163.584 4.0169 163.872 4.2089C164.256 4.4969 164.736 4.4009 165.216 4.4969C165.6 4.6889 165.984 4.78491 166.464 4.5929C166.56 4.5929 166.752 4.5929 166.848 4.6889C167.615 5.4569 168.479 4.9769 169.343 4.9769C169.727 4.9769 170.111 4.8809 170.303 5.0729C170.783 5.5529 171.263 5.64891 171.839 5.8409C172.799 6.12891 173.663 6.51291 174.623 6.7049C174.911 7.0889 175.103 6.4169 175.295 6.60891C175.487 6.8009 175.775 6.8969 175.966 7.0889C176.638 7.7609 177.694 7.85691 178.558 8.33691C179.134 8.33691 179.71 8.5289 180.094 8.9129C180.19 9.0089 180.382 9.1049 180.574 9.1049C180.766 9.1049 181.054 9.0089 181.246 9.1049C181.438 9.20091 181.534 9.4889 181.726 9.68091L182.302 9.9689C183.838 10.7369 185.277 11.4089 186.717 12.2729L189.597 14.0009C190.749 14.6729 191.901 15.2489 192.764 16.2089C192.86 16.4009 192.956 16.4969 193.052 16.4969C193.82 16.8809 194.492 17.3609 195.068 18.0329C196.124 18.5129 196.796 19.3769 197.564 20.1449C198.524 21.1049 199.484 21.8729 200.252 23.0249H200.444C200.732 23.0249 200.827 23.2169 201.019 23.3129C201.403 23.6969 201.307 24.3689 201.979 24.6569C202.555 24.9449 202.555 25.6169 202.939 26.0969L204.379 27.9209C204.571 28.2089 204.763 28.4969 204.955 28.8809C205.723 30.4169 206.779 31.9529 207.355 33.7769L207.739 34.3529C207.931 34.8329 208.219 35.2169 208.219 35.6969C208.219 36.6569 208.891 37.4249 208.987 38.3849C209.658 39.0569 209.37 40.0169 209.754 40.6889C209.85 41.9369 210.042 43.0889 210.426 44.2409C210.234 44.7209 210.33 45.2969 210.426 45.8729C210.138 46.4489 210.522 47.1209 210.234 47.6969C210.138 47.8889 210.234 48.0809 210.33 48.2729C210.426 48.8489 210.618 49.4249 210.042 49.7129C209.85 49.8089 209.946 50.0969 210.138 50.1929C210.426 50.5769 210.522 50.8649 210.234 51.2489L209.946 51.6329C209.658 51.9209 209.754 52.2089 209.658 52.5929C209.658 53.0729 209.85 53.6489 209.275 54.0329C209.275 54.6089 208.699 54.9929 208.987 55.6649C208.603 56.0489 208.795 56.6249 208.411 57.0089C208.315 57.2009 208.123 57.2969 208.027 57.4889C207.739 58.0649 208.027 58.8329 207.451 59.4089C206.971 59.8889 206.875 60.3689 206.491 60.9449L205.339 62.6729L205.051 63.2489C204.763 63.8249 204.571 64.5929 203.899 65.1689C203.323 65.6489 203.035 66.4169 202.555 66.9929C201.403 68.3369 200.348 69.6809 199.292 71.0249C198.908 71.5049 198.14 71.6969 198.14 72.4649C198.14 72.5609 197.948 72.6569 197.756 72.7529C196.316 73.4249 195.452 74.8649 194.3 76.0169C194.108 76.2089 193.916 76.4009 193.724 76.4969C192.956 76.8809 192.285 77.5529 191.613 78.1289C190.845 78.7049 190.269 79.3769 189.501 79.9529C187.581 80.8169 186.141 82.5449 184.222 83.5049C182.782 84.8489 180.862 85.5209 179.326 86.7689C178.654 87.3449 177.79 87.7289 177.022 88.0169C176.734 88.1129 176.446 88.2089 176.35 88.4009C176.062 88.9769 175.391 88.9769 174.911 89.2649C174.143 89.7449 173.471 90.0329 172.703 90.5129C172.415 90.7049 171.935 90.8969 171.551 90.9929C169.727 91.4729 168.287 92.6249 166.656 93.2969C165.408 93.7769 164.16 94.6409 162.816 95.0249C161.76 95.3129 160.704 95.9849 159.648 96.3689C158.785 96.6569 157.921 97.2329 156.961 97.5209C155.905 97.8089 154.849 98.3849 153.889 98.8649C153.697 99.3449 153.313 98.9609 153.025 99.0569C151.777 99.7289 150.434 99.9209 149.186 100.497C148.034 100.977 146.69 101.361 145.442 101.841L144.77 102.129L144.194 102.417C142.562 102.513 141.123 103.089 139.683 103.665C138.147 104.241 136.611 104.625 135.075 104.913C134.116 105.105 133.252 105.393 132.292 105.681C131.14 106.065 129.892 106.353 128.74 106.641C126.82 107.121 124.901 107.505 122.981 107.985C121.349 108.369 119.717 108.657 118.085 108.945L113.862 109.809C113.094 110.001 112.326 110.193 111.558 110.193C110.694 110.193 109.926 110.385 109.063 110.577C108.199 110.769 107.335 110.961 106.471 110.961H106.183C105.415 111.441 104.647 111.153 103.879 111.249C103.015 111.345 102.055 111.345 101.191 111.633C100.04 112.017 98.8877 111.921 97.8319 111.921C97.4479 111.921 97.064 111.921 96.68 112.017C96.1041 112.209 95.4321 112.209 94.7602 112.209C94.4723 112.209 94.1843 112.305 93.9923 112.305C93.5124 112.305 93.0324 112.305 92.5525 112.401C92.1685 112.593 91.7846 112.401 91.4006 112.401C90.5367 112.401 89.5769 112.209 88.713 112.593C88.233 112.785 87.4651 112.209 87.0812 112.881Z" fill="white"/>
<path d="M61.5525 64.8512H55.9269L54.8901 68H53.1237L57.2517 55.904H60.4581L64.4325 68H62.5893L61.5525 64.8512ZM61.2261 63.8528L58.8837 56.7488H58.6149L56.2725 63.8528H61.2261ZM66.0882 68V58.8416H67.6818V61.184C67.8354 60.7744 68.0338 60.4224 68.277 60.128C68.533 59.8208 68.8082 59.5712 69.1026 59.3792C69.397 59.1744 69.7042 59.0208 70.0242 58.9184C70.3442 58.816 70.6578 58.7648 70.965 58.7648C72.2322 58.7648 73.1794 59.1232 73.8066 59.84C74.4466 60.544 74.7666 61.5104 74.7666 62.7392V68H73.1154V62.912C73.1154 62.0928 72.917 61.4464 72.5202 60.9728C72.1234 60.4864 71.4962 60.2432 70.6386 60.2432C69.6786 60.2432 68.9554 60.5184 68.469 61.0688C67.9826 61.6192 67.7394 62.3552 67.7394 63.2768V68H66.0882ZM81.046 68H79.3564C79.0108 68 78.7228 67.9552 78.4924 67.8656C78.2748 67.7632 78.102 67.6224 77.974 67.4432C77.846 67.2512 77.7564 67.0144 77.7052 66.7328C77.6668 66.4512 77.6476 66.1248 77.6476 65.7536V60.2048H76.0924V58.8416H77.686V56.7296H79.2988V58.8416H81.0844V60.2048H79.2988V65.7344C79.2988 65.9648 79.318 66.144 79.3564 66.272C79.3948 66.3872 79.4716 66.4768 79.5868 66.5408C79.7148 66.592 79.894 66.624 80.1244 66.6368C80.3548 66.6368 80.662 66.6368 81.046 66.6368V68ZM82.8252 56.768C82.8252 56.4608 82.934 56.2048 83.1516 56C83.3692 55.7952 83.6316 55.6928 83.9388 55.6928C84.2332 55.6928 84.4956 55.7888 84.726 55.9808C84.9564 56.16 85.0716 56.416 85.0716 56.7488C85.0716 57.0688 84.9628 57.3312 84.7452 57.536C84.5276 57.7408 84.2588 57.8432 83.9388 57.8432C83.6316 57.8432 83.3692 57.7472 83.1516 57.5552C82.934 57.3632 82.8252 57.1008 82.8252 56.768ZM83.1132 68V58.8416H84.7644V68H83.1132ZM95.3731 68C94.8355 67.9872 94.4003 67.84 94.0675 67.5584C93.7475 67.264 93.5875 66.848 93.5875 66.3104C93.3827 66.9504 92.9987 67.4304 92.4355 67.7504C91.8723 68.0704 91.2451 68.2432 90.5539 68.2688C90.1059 68.2944 89.6579 68.2496 89.2099 68.1344C88.7747 68.0192 88.3779 67.8464 88.0195 67.616C87.6739 67.3856 87.3859 67.0976 87.1555 66.752C86.9379 66.4064 86.8227 66.0032 86.8099 65.5424C86.7971 64.8384 86.9187 64.2816 87.1747 63.872C87.4435 63.4624 87.7763 63.1552 88.1731 62.9504C88.5827 62.7328 89.0307 62.5984 89.5171 62.5472C90.0035 62.4832 90.4579 62.4512 90.8803 62.4512H93.6067V61.3568C93.6067 61.1136 93.5363 60.9088 93.3955 60.7424C93.2547 60.5632 93.0627 60.4224 92.8195 60.32C92.5891 60.2048 92.3203 60.1216 92.0131 60.0704C91.7187 60.0192 91.4051 59.9936 91.0723 59.9936C90.7651 59.9936 90.4707 60.0256 90.1891 60.0896C89.9075 60.1408 89.6579 60.224 89.4403 60.3392C89.2227 60.4544 89.0499 60.608 88.9219 60.8C88.7939 60.9792 88.7299 61.1904 88.7299 61.4336H87.1939C87.1939 60.9088 87.3027 60.4736 87.5203 60.128C87.7379 59.7696 88.0259 59.4816 88.3843 59.264C88.7555 59.0464 89.1715 58.8928 89.6323 58.8032C90.1059 58.7008 90.5987 58.6496 91.1107 58.6496C91.9171 58.6496 92.5827 58.7392 93.1075 58.9184C93.6451 59.0848 94.0739 59.296 94.3939 59.552C94.7139 59.808 94.9379 60.0896 95.0659 60.3968C95.1939 60.6912 95.2579 60.9728 95.2579 61.2416V66.0992C95.2579 66.496 95.4563 66.6944 95.8531 66.6944H96.0259V68H95.3731ZM88.4611 65.1776C88.4355 65.472 88.4739 65.7344 88.5763 65.9648C88.6787 66.1824 88.8259 66.368 89.0179 66.5216C89.2099 66.6752 89.4403 66.7968 89.7091 66.8864C89.9779 66.9632 90.2659 67.0016 90.5731 67.0016C90.8675 67.0016 91.1619 66.9696 91.4563 66.9056C91.7635 66.8288 92.0515 66.72 92.3203 66.5792C92.5891 66.4256 92.8323 66.2336 93.0499 66.0032C93.2803 65.76 93.4595 65.4784 93.5875 65.1584V63.5264H90.8227C90.6563 63.5264 90.4451 63.5392 90.1891 63.5648C89.9331 63.5904 89.6835 63.6608 89.4403 63.776C89.1971 63.8784 88.9795 64.0384 88.7875 64.256C88.6083 64.4736 88.4995 64.7808 88.4611 65.1776ZM97.9257 68V54.2912H99.5769V68H97.9257ZM105.232 57.5168L107.575 55.2704H109.687L106.788 57.5168H105.232ZM110.474 64.9472C110.423 65.5232 110.282 66.0096 110.052 66.4064C109.821 66.7904 109.514 67.104 109.13 67.3472C108.746 67.5776 108.285 67.744 107.748 67.8464C107.223 67.9488 106.634 68 105.981 68C105.277 68 104.644 67.8912 104.08 67.6736C103.53 67.456 103.063 67.1552 102.679 66.7712C102.295 66.3744 102 65.9072 101.796 65.3696C101.591 64.832 101.488 64.2496 101.488 63.6224C101.488 62.944 101.584 62.3104 101.776 61.7216C101.968 61.1328 102.256 60.6208 102.64 60.1856C103.037 59.7376 103.536 59.3856 104.138 59.1296C104.752 58.8736 105.476 58.7456 106.308 58.7456C107.024 58.7456 107.658 58.8736 108.208 59.1296C108.759 59.3856 109.213 59.744 109.572 60.2048C109.943 60.6528 110.218 61.1904 110.397 61.8176C110.576 62.432 110.647 63.1104 110.608 63.8528H103.197C103.197 64.2752 103.274 64.6592 103.428 65.0048C103.594 65.3376 103.812 65.6256 104.08 65.8688C104.349 66.112 104.663 66.2976 105.021 66.4256C105.38 66.5536 105.757 66.6176 106.154 66.6176C106.807 66.6176 107.312 66.5536 107.671 66.4256C108.029 66.2848 108.298 66.1248 108.477 65.9456C108.656 65.7664 108.772 65.5872 108.823 65.408C108.874 65.216 108.912 65.0624 108.938 64.9472H110.474ZM109.053 62.8736C109.028 62.5536 108.957 62.2336 108.842 61.9136C108.74 61.5936 108.58 61.312 108.362 61.0688C108.144 60.8128 107.856 60.608 107.498 60.4544C107.152 60.288 106.717 60.2048 106.192 60.2048C105.744 60.2048 105.335 60.288 104.964 60.4544C104.605 60.608 104.292 60.8128 104.023 61.0688C103.767 61.312 103.562 61.5936 103.408 61.9136C103.268 62.2336 103.197 62.5536 103.197 62.8736H109.053ZM112.605 58.8416H114.256V61.184C114.487 60.3776 114.82 59.7824 115.255 59.3984C115.703 59.0144 116.292 58.8224 117.021 58.8224H118.48V60.3008H117.021C116.624 60.3008 116.253 60.3776 115.908 60.5312C115.575 60.6848 115.287 60.896 115.044 61.1648C114.8 61.4336 114.608 61.7536 114.468 62.1248C114.327 62.4832 114.256 62.8672 114.256 63.2768V68H112.605V58.8416ZM125.002 69.8624C125.36 69.8624 125.686 69.8432 125.981 69.8048C126.288 69.7664 126.55 69.6704 126.768 69.5168C126.986 69.376 127.152 69.1648 127.267 68.8832C127.395 68.6144 127.459 68.2368 127.459 67.7504V65.6C127.114 66.368 126.634 66.9632 126.019 67.3856C125.418 67.7952 124.797 68 124.157 68C123.504 68 122.896 67.8912 122.333 67.6736C121.77 67.4432 121.277 67.1296 120.854 66.7328C120.432 66.3232 120.099 65.8368 119.856 65.2736C119.626 64.6976 119.51 64.064 119.51 63.3728C119.51 62.6688 119.626 62.0352 119.856 61.472C120.099 60.896 120.432 60.4096 120.854 60.0128C121.277 59.6032 121.77 59.2896 122.333 59.072C122.896 58.8544 123.504 58.7456 124.157 58.7456C124.81 58.7456 125.411 58.9376 125.962 59.3216C126.525 59.6928 127.05 60.3264 127.536 61.2224V58.8224H129.11V67.6736C129.11 68.3776 129.014 68.96 128.822 69.4208C128.643 69.8944 128.374 70.272 128.016 70.5536C127.658 70.8352 127.222 71.0336 126.71 71.1488C126.211 71.2768 125.642 71.3408 125.002 71.3408H120.624V69.8624H125.002ZM124.349 66.5408C124.797 66.5408 125.206 66.4704 125.578 66.3296C125.962 66.176 126.294 65.9584 126.576 65.6768C126.87 65.3952 127.094 65.0624 127.248 64.6784C127.414 64.2816 127.498 63.84 127.498 63.3536C127.498 62.8672 127.414 62.432 127.248 62.048C127.094 61.6512 126.877 61.3184 126.595 61.0496C126.314 60.7808 125.981 60.576 125.597 60.4352C125.213 60.2816 124.797 60.2048 124.349 60.2048C123.901 60.2048 123.478 60.2752 123.082 60.416C122.698 60.5568 122.365 60.7616 122.083 61.0304C121.802 61.2992 121.578 61.632 121.411 62.0288C121.258 62.4128 121.181 62.8544 121.181 63.3536C121.181 63.84 121.264 64.2816 121.43 64.6784C121.597 65.0752 121.821 65.4144 122.102 65.696C122.384 65.9648 122.717 66.176 123.101 66.3296C123.498 66.4704 123.914 66.5408 124.349 66.5408ZM131.406 56.768C131.406 56.4608 131.515 56.2048 131.733 56C131.95 55.7952 132.213 55.6928 132.52 55.6928C132.814 55.6928 133.077 55.7888 133.307 55.9808C133.538 56.16 133.653 56.416 133.653 56.7488C133.653 57.0688 133.544 57.3312 133.326 57.536C133.109 57.7408 132.84 57.8432 132.52 57.8432C132.213 57.8432 131.95 57.7472 131.733 57.5552C131.515 57.3632 131.406 57.1008 131.406 56.768ZM131.694 68V58.8416H133.346V68H131.694ZM140.114 66.6368C140.844 66.6368 141.465 66.496 141.977 66.2144C142.502 65.9328 142.86 65.4208 143.052 64.6784L144.761 64.6592C144.646 65.2608 144.447 65.7792 144.166 66.2144C143.897 66.6496 143.558 67.008 143.148 67.2896C142.751 67.5584 142.29 67.7632 141.766 67.904C141.254 68.032 140.703 68.096 140.114 68.096C139.436 68.096 138.802 68.0064 138.214 67.8272C137.638 67.648 137.138 67.3728 136.716 67.0016C136.294 66.6176 135.961 66.1312 135.718 65.5424C135.474 64.9536 135.353 64.2432 135.353 63.4112C135.353 62.5792 135.474 61.8688 135.718 61.28C135.961 60.6784 136.294 60.192 136.716 59.8208C137.138 59.4496 137.638 59.1808 138.214 59.0144C138.802 58.8352 139.436 58.7456 140.114 58.7456C141.471 58.7456 142.527 59.0592 143.282 59.6864C144.05 60.3008 144.556 61.1968 144.799 62.3744H143.11C142.956 61.5808 142.617 61.024 142.092 60.704C141.567 60.3712 140.908 60.2048 140.114 60.2048C139.654 60.2048 139.231 60.2624 138.847 60.3776C138.463 60.48 138.137 60.6592 137.868 60.9152C137.599 61.1584 137.388 61.4848 137.234 61.8944C137.094 62.304 137.023 62.8096 137.023 63.4112C137.023 64 137.094 64.5056 137.234 64.928C137.388 65.3376 137.599 65.6704 137.868 65.9264C138.137 66.1696 138.463 66.3488 138.847 66.464C139.231 66.5792 139.654 66.6368 140.114 66.6368ZM154.848 68C154.311 67.9872 153.875 67.84 153.543 67.5584C153.223 67.264 153.063 66.848 153.063 66.3104C152.858 66.9504 152.474 67.4304 151.911 67.7504C151.347 68.0704 150.72 68.2432 150.029 68.2688C149.581 68.2944 149.133 68.2496 148.685 68.1344C148.25 68.0192 147.853 67.8464 147.495 67.616C147.149 67.3856 146.861 67.0976 146.631 66.752C146.413 66.4064 146.298 66.0032 146.285 65.5424C146.272 64.8384 146.394 64.2816 146.65 63.872C146.919 63.4624 147.251 63.1552 147.648 62.9504C148.058 62.7328 148.506 62.5984 148.992 62.5472C149.479 62.4832 149.933 62.4512 150.355 62.4512H153.082V61.3568C153.082 61.1136 153.011 60.9088 152.871 60.7424C152.73 60.5632 152.538 60.4224 152.295 60.32C152.064 60.2048 151.795 60.1216 151.488 60.0704C151.194 60.0192 150.88 59.9936 150.547 59.9936C150.24 59.9936 149.946 60.0256 149.664 60.0896C149.383 60.1408 149.133 60.224 148.915 60.3392C148.698 60.4544 148.525 60.608 148.397 60.8C148.269 60.9792 148.205 61.1904 148.205 61.4336H146.669C146.669 60.9088 146.778 60.4736 146.995 60.128C147.213 59.7696 147.501 59.4816 147.859 59.264C148.231 59.0464 148.647 58.8928 149.107 58.8032C149.581 58.7008 150.074 58.6496 150.586 58.6496C151.392 58.6496 152.058 58.7392 152.583 58.9184C153.12 59.0848 153.549 59.296 153.869 59.552C154.189 59.808 154.413 60.0896 154.541 60.3968C154.669 60.6912 154.733 60.9728 154.733 61.2416V66.0992C154.733 66.496 154.931 66.6944 155.328 66.6944H155.501V68H154.848ZM147.936 65.1776C147.911 65.472 147.949 65.7344 148.051 65.9648C148.154 66.1824 148.301 66.368 148.493 66.5216C148.685 66.6752 148.915 66.7968 149.184 66.8864C149.453 66.9632 149.741 67.0016 150.048 67.0016C150.343 67.0016 150.637 66.9696 150.931 66.9056C151.239 66.8288 151.527 66.72 151.795 66.5792C152.064 66.4256 152.307 66.2336 152.525 66.0032C152.755 65.76 152.935 65.4784 153.063 65.1584V63.5264H150.298C150.131 63.5264 149.92 63.5392 149.664 63.5648C149.408 63.5904 149.159 63.6608 148.915 63.776C148.672 63.8784 148.455 64.0384 148.263 64.256C148.083 64.4736 147.975 64.7808 147.936 65.1776ZM163.545 61.4336C163.545 61.1776 163.468 60.96 163.314 60.7808C163.173 60.6016 162.988 60.4544 162.757 60.3392C162.527 60.224 162.258 60.1408 161.951 60.0896C161.644 60.0256 161.324 59.9936 160.991 59.9936C160.684 59.9936 160.389 60.0192 160.108 60.0704C159.826 60.1216 159.577 60.2112 159.359 60.3392C159.141 60.4544 158.969 60.6016 158.841 60.7808C158.713 60.96 158.649 61.1712 158.649 61.4144C158.649 61.7856 158.815 62.0608 159.148 62.24C159.481 62.4192 159.89 62.5536 160.377 62.6432C160.876 62.7328 161.413 62.8096 161.989 62.8736C162.565 62.9376 163.097 63.0528 163.583 63.2192C164.082 63.3728 164.498 63.6096 164.831 63.9296C165.164 64.2368 165.33 64.6848 165.33 65.2736C165.33 65.7856 165.228 66.2272 165.023 66.5984C164.818 66.9568 164.537 67.2512 164.178 67.4816C163.833 67.712 163.417 67.8848 162.93 68C162.444 68.1024 161.913 68.1536 161.337 68.1536C160.377 68.1536 159.615 68.032 159.052 67.7888C158.489 67.5456 158.053 67.2576 157.746 66.9248C157.452 66.5792 157.26 66.2208 157.17 65.8496C157.081 65.4784 157.029 65.1648 157.017 64.9088H158.457C158.482 65.2416 158.585 65.5232 158.764 65.7536C158.956 65.984 159.18 66.176 159.436 66.3296C159.692 66.4832 159.973 66.5984 160.281 66.6752C160.588 66.752 160.882 66.7968 161.164 66.8096C161.484 66.8224 161.797 66.8032 162.105 66.752C162.412 66.7008 162.681 66.6176 162.911 66.5024C163.154 66.3744 163.346 66.2208 163.487 66.0416C163.641 65.8496 163.717 65.632 163.717 65.3888C163.717 65.0688 163.551 64.8384 163.218 64.6976C162.898 64.544 162.495 64.4224 162.009 64.3328C161.522 64.2432 160.991 64.16 160.415 64.0832C159.839 63.9936 159.308 63.8592 158.821 63.68C158.335 63.488 157.925 63.2256 157.593 62.8928C157.273 62.5472 157.113 62.0736 157.113 61.472C157.113 60.9472 157.221 60.5056 157.439 60.1472C157.657 59.7888 157.945 59.5008 158.303 59.2832C158.674 59.0528 159.09 58.8928 159.551 58.8032C160.025 58.7008 160.517 58.6496 161.029 58.6496C161.849 58.6496 162.514 58.7456 163.026 58.9376C163.551 59.1296 163.954 59.3664 164.236 59.648C164.53 59.9296 164.729 60.2304 164.831 60.5504C164.933 60.8704 164.985 61.1648 164.985 61.4336H163.545Z" fill="white"/>
</svg>
