<svg width="212" height="116" viewBox="0 0 212 116" fill="none" xmlns="http://www.w3.org/2000/svg">
<path d="M167.328 1.4249C167.424 1.5209 167.615 1.4249 167.711 1.4249C168.095 1.23291 168.383 1.0409 168.863 1.23291C169.151 1.3289 169.439 1.23291 169.727 1.1369C169.919 1.1369 170.015 1.1369 170.015 1.23291C170.207 1.61691 170.495 1.4249 170.687 1.3289C170.975 1.23291 171.071 1.0409 170.879 0.752906C170.783 0.464904 170.591 -0.0150955 170.111 0.176902C169.823 0.272901 169.439 0.176902 169.247 0.272901C168.671 0.560903 168.191 0.464904 167.711 0.176902C167.615 0.176902 167.52 0.176902 167.424 0.272901L167.615 0.560903C167.807 0.944904 167.807 1.0409 167.424 1.0409H167.232C167.136 1.0409 167.04 1.1369 167.136 1.23291C167.136 1.3289 167.232 1.4249 167.328 1.4249ZM160.992 1.61691C161.472 1.61691 161.856 1.71291 162.336 1.5209C162.624 1.4249 162.912 1.5209 163.2 1.23291C163.488 0.944904 163.584 1.5209 163.776 1.5209C164.448 1.5209 165.216 1.61691 165.888 1.3289C166.272 1.1369 166.272 1.0409 166.272 0.464904C166.272 0.368905 166.176 0.368905 166.08 0.272901C165.696 0.752906 165.12 0.656902 164.544 0.848905C164.256 0.944904 164.064 0.848905 163.968 0.560903C163.776 0.272901 163.584 0.0809033 163.2 0.272901C162.816 0.464904 162.336 0.368905 162.048 0.368905H160.896C160.704 0.464904 160.512 0.464904 160.416 0.656902C160.32 0.944904 160.128 1.23291 160.224 1.4249C160.416 1.8089 160.704 1.71291 160.992 1.61691ZM175.487 1.4249C175.583 1.5209 175.679 1.4249 175.583 1.3289C175.583 1.23291 175.487 1.0409 175.487 1.0409C174.911 1.0409 174.431 0.944904 173.951 0.656902C173.471 0.368905 172.895 0.368905 172.415 0.656902C172.127 0.848905 171.743 0.944904 171.455 1.1369C171.647 1.3289 171.839 1.3289 172.031 1.3289C172.895 1.5209 173.855 1.71291 174.719 1.3289C174.911 1.23291 175.199 1.4249 175.487 1.4249ZM81.8978 115.281C82.5697 115.473 83.2416 115.185 83.9135 115.185H87.7531C88.9049 115.185 89.9608 115.185 91.0167 115.089C91.6886 114.801 92.2645 114.897 92.9364 114.897H95.2402C95.6241 114.801 96.1041 114.993 96.392 114.513C96.392 114.417 96.488 114.417 96.584 114.609C96.68 114.801 96.872 114.801 97.064 114.801C97.5439 114.513 98.0238 114.609 98.4078 114.609C98.7917 114.609 99.0797 114.609 99.3677 114.513C100.424 114.129 101.383 114.225 102.439 114.225C103.495 114.225 104.455 113.937 105.511 113.937H105.799C106.183 113.745 106.471 113.553 106.855 113.553C107.239 113.553 107.623 113.649 108.103 113.553C108.487 113.457 108.871 113.265 109.254 113.265C109.638 113.265 110.118 113.361 110.406 112.881C110.406 112.785 110.502 112.785 110.694 112.881C111.366 113.169 112.038 112.977 112.806 112.785C112.998 112.689 113.19 112.689 113.382 112.689C115.398 112.689 117.414 112.017 119.333 111.633C121.637 111.153 123.941 110.577 126.148 110.097L129.796 109.233C131.524 108.849 133.156 108.369 134.883 107.889C135.555 107.697 136.227 107.601 136.803 107.217C137.091 107.025 137.187 106.833 137.571 106.929C138.147 107.025 138.819 106.833 139.395 106.545C139.491 106.449 139.491 106.257 139.683 106.353C140.259 106.641 140.835 106.257 141.315 106.065C142.946 105.393 144.482 105.105 146.114 104.529C147.842 103.953 149.666 103.281 151.393 102.609C152.449 102.225 153.505 101.649 154.657 101.361C154.849 101.361 155.137 101.265 155.233 101.073C155.425 100.689 156.001 100.689 156.481 100.593C156.865 100.401 157.249 100.305 157.633 100.113C158.017 99.9209 158.305 99.8249 158.689 99.7289C158.977 99.6329 159.36 99.5369 159.552 99.2489C159.936 98.9609 160.32 99.2489 160.608 98.9609C160.896 98.6729 161.568 98.7689 161.76 98.3849C161.856 98.1929 162.144 98.0969 162.336 98.0969C162.912 98.0969 163.392 97.7129 163.968 97.5209C164.352 97.0409 165.12 97.0409 165.312 96.3689C165.408 96.2729 165.6 96.3689 165.696 96.2729C166.272 96.2729 166.944 96.1769 167.52 95.8889C168.671 95.3129 169.823 95.0249 170.879 93.9689C170.975 93.8729 171.071 93.7769 171.167 93.7769C171.839 93.7769 172.319 93.5849 172.799 93.2969C173.663 92.7209 174.623 92.4329 175.295 91.7609C176.35 91.4729 177.214 90.8969 178.078 90.4169C179.422 89.6489 180.766 88.8809 182.11 88.0169C183.358 87.2489 184.413 86.3849 185.661 85.6169C186.141 85.3289 186.525 85.1369 186.813 84.8489C187.773 83.8889 188.925 83.2169 189.885 82.2569C189.981 82.1609 190.077 82.0649 190.173 82.0649C191.133 81.6809 191.901 81.1049 192.668 80.3369C192.86 80.1449 193.052 79.9529 193.244 79.8569C194.3 78.8969 195.356 78.0329 196.412 76.9769C196.604 76.7849 196.604 76.4009 196.988 76.3049C197.564 76.1129 197.948 75.6329 198.332 75.2489C198.332 75.1529 198.428 74.9609 198.332 74.9609C198.14 74.7689 197.948 74.5769 198.428 74.5769C198.812 74.5769 199.1 74.3849 199.388 74.0969C199.676 73.8089 199.868 73.2329 200.348 73.1369C200.636 72.3689 201.691 72.0809 201.691 71.1209C201.691 71.0249 201.883 70.9289 201.979 70.8329C202.843 69.9689 203.419 68.9129 204.379 68.2409C204.667 68.0489 204.859 67.7609 205.051 67.4729C205.243 67.1849 205.339 66.8969 205.531 66.5129C205.723 66.2249 205.819 65.9369 206.011 65.7449C207.163 64.5929 207.643 62.9609 208.507 61.6169C208.795 61.3289 208.795 61.0409 208.891 60.6569C208.987 60.2729 208.987 59.8889 209.179 59.6009C209.754 59.0249 209.85 58.1609 210.138 57.4889C210.042 56.9129 210.426 56.4329 210.618 55.8569L211.386 53.3609C211.578 52.7849 211.386 52.2089 211.482 51.6329C211.674 50.7689 211.962 49.9049 211.77 48.9449C211.674 48.7529 211.77 48.5609 211.77 48.4649C212.058 47.9849 212.058 47.5049 211.866 47.1209C211.578 46.5449 211.962 46.0649 211.77 45.5849C211.674 45.2969 211.578 44.9129 211.674 44.5289C211.77 44.2409 211.674 43.9529 211.674 43.6649C211.674 42.5129 211.482 41.3609 211.002 40.4009C210.81 40.0169 210.714 39.5369 210.714 39.0569C210.714 38.8649 210.714 38.6729 210.618 38.4809C210.426 38.0009 210.426 37.4249 210.042 37.0409C209.562 36.5609 209.946 35.8889 209.658 35.4089C209.179 34.6409 208.891 33.7769 208.699 32.9129C208.603 32.3369 208.219 31.6649 207.835 31.0889C207.643 30.8009 207.355 30.4169 207.259 30.0329C206.971 28.8809 206.299 28.0169 205.627 27.0569C205.147 26.3849 204.859 25.8089 204.187 25.3289C203.899 25.1369 203.803 24.8489 203.611 24.4649C203.035 23.6969 202.555 22.8329 201.691 22.2569C201.499 22.2569 201.403 22.0649 201.307 21.9689C200.54 21.2009 199.964 20.4329 199.292 19.6649C198.716 18.9929 197.66 18.8009 197.372 17.8409C197.372 17.7449 197.18 17.7449 197.084 17.7449C196.796 17.5529 196.508 17.3609 196.22 17.0729C195.356 16.2089 194.3 15.4409 193.34 14.6729C192.956 14.3849 192.572 14.0009 192.093 13.9049C191.613 13.8089 191.325 13.0409 190.845 12.9449C190.173 12.9449 190.077 12.2729 189.693 12.0809C188.733 11.6009 187.869 10.9289 187.005 10.4489C186.333 10.0649 185.565 9.8729 184.893 9.3929C184.222 8.9129 183.454 8.9129 182.782 8.43291C182.782 8.33691 182.494 8.33691 182.398 8.43291C182.206 8.43291 182.11 9.0089 181.918 8.43291C181.822 8.1449 181.726 7.6649 181.246 7.6649C180.67 7.6649 180.286 7.2809 179.902 6.99291C179.518 6.7049 179.23 6.7049 178.846 6.7049C178.27 6.7049 177.79 6.60891 177.406 6.2249C176.926 5.7449 176.254 5.8409 175.775 5.64891C175.679 5.5529 175.583 5.5529 175.487 5.64891C175.295 5.8409 175.103 5.9369 174.911 5.7449C174.527 5.3609 174.239 5.16891 173.663 5.16891C173.375 5.16891 173.087 5.0729 172.895 4.78491C172.703 4.6889 172.511 4.5929 172.319 4.5929C172.031 4.4009 171.743 4.30491 171.455 4.2089C171.167 4.2089 170.879 4.2089 170.687 4.1129C170.303 3.92091 170.111 4.1129 169.919 4.30491C169.535 4.1129 169.151 4.30491 168.863 3.92091C168.575 3.44091 168.095 3.5369 167.615 3.5369C167.424 3.5369 167.136 3.7289 167.136 3.6329C166.848 3.2489 166.56 3.44091 166.368 3.6329C166.176 3.7289 166.08 3.7289 165.888 3.6329C165.696 3.5369 165.312 3.3449 165.216 3.44091C164.928 3.5369 164.832 3.8249 164.64 3.44091C164.448 3.2489 164.256 2.96091 163.872 3.1529C163.776 3.1529 163.584 3.05691 163.488 2.96091C162.912 2.3849 162.048 2.4809 161.28 2.4809C161.184 2.4809 160.992 2.57691 160.8 2.4809C160.512 2.1929 160.032 2.4809 159.648 2.1929C159.552 2.1929 159.456 2.09691 159.36 2.0009C159.264 1.9049 159.169 1.8089 159.169 1.61691C159.169 1.4249 159.36 1.5209 159.552 1.5209C159.648 1.5209 159.744 1.4249 159.648 1.3289C159.456 0.656902 159.073 0.368905 158.593 0.560903C157.825 0.848905 156.865 0.560903 156.289 1.1369C156.193 1.23291 156.097 1.23291 156.097 1.1369C155.809 0.656902 155.329 0.752906 154.945 0.848905C153.697 1.1369 152.545 1.1369 151.297 1.1369C150.913 1.1369 150.53 1.0409 150.146 1.1369C149.762 1.23291 149.378 1.23291 148.994 1.23291C148.322 1.23291 147.65 1.3289 146.978 1.23291C146.498 1.1369 146.018 1.71291 145.442 1.23291C144.962 1.71291 144.194 1.71291 143.618 1.9049C143.33 2.0009 142.946 2.09691 143.138 1.5209C142.658 1.0409 141.987 1.0409 141.411 1.5209C141.603 2.1929 141.027 2.0009 140.739 1.9049C140.451 1.71291 140.067 1.61691 139.779 1.61691C139.491 1.61691 139.299 1.3289 139.011 1.4249C138.723 1.61691 138.723 1.9049 138.723 2.1929C138.723 2.2889 138.627 2.3849 138.627 2.4809L137.091 3.05691C136.899 3.05691 136.611 3.2489 136.419 3.05691C135.939 2.7689 135.555 2.96091 135.075 3.1529C134.691 3.44091 134.307 2.8649 133.732 3.1529C132.58 3.7289 131.332 3.92091 130.18 4.2089C128.74 4.5929 127.204 4.5929 125.765 4.9769C124.613 5.2649 123.461 5.2649 122.405 5.8409C121.925 5.64891 121.349 6.51291 120.869 6.0329C120.773 5.9369 120.485 6.0329 120.293 6.12891C119.333 6.6089 118.181 6.7049 117.126 6.8969C115.398 7.1849 113.67 7.6649 111.942 8.1449C110.79 8.43291 109.542 8.81691 108.391 9.1049L103.303 10.5449C102.055 10.9289 100.903 11.3129 99.7516 11.6009C99.0797 11.7929 98.5998 12.1769 97.9278 12.2729C96.872 12.4649 95.9121 12.9449 94.8562 13.3289C94.2803 13.5209 93.8003 13.7129 93.1284 13.7129C92.8405 13.7129 92.3605 14.0969 91.9766 14.1929C91.2087 14.1929 90.5367 14.6729 89.7688 14.7689C88.9049 14.8649 88.329 15.5369 87.4651 15.6329C86.0253 16.4009 84.3935 16.6889 82.8577 17.4569C82.6657 17.5529 82.4737 17.6489 82.2817 17.6489C81.6098 17.6489 80.9379 18.0329 80.362 18.2249L76.3304 19.9529C75.5625 20.2409 74.7946 20.4329 74.1227 20.8169C73.1628 21.3929 72.011 21.5849 70.9551 22.0649C69.5153 22.7369 68.0754 23.4089 66.5396 23.8889C65.9637 24.3689 65.2918 24.5609 64.6198 24.8489C63.66 25.2329 62.7961 25.6169 61.9322 26.0969C61.5482 26.1929 61.3562 26.4809 61.2602 26.8649C61.1643 27.2489 61.0683 27.2489 60.7803 27.0569C60.3964 26.8649 60.2044 26.7689 59.9164 26.9609C59.0525 27.5369 58.1886 28.4009 57.0368 28.4009C56.9408 28.4009 56.7488 28.5929 56.6528 28.5929C56.0769 28.9769 55.5969 29.3609 55.021 29.5529C54.3491 29.7449 53.8691 30.1289 53.1972 30.4169C52.1413 30.8969 51.1815 31.1849 50.3176 32.0489C50.2216 32.1449 50.1256 32.1449 50.0296 32.1449C49.4537 32.3369 48.9737 32.7209 48.3978 32.9129L46.67 33.7769L45.1342 34.7369C44.5583 35.1209 43.9823 35.4089 43.5024 35.6969C42.9264 35.9849 42.3505 36.2729 41.8706 36.5609L39.8548 37.7129C39.4709 37.9049 39.0869 38.3849 38.703 38.5769C37.1671 39.3449 35.8233 40.3049 34.4795 41.1689C32.3677 42.5129 30.256 43.8569 28.2402 45.2969C27.8563 45.4889 27.5683 45.7769 27.2803 46.0649C26.5124 46.8329 25.5525 47.5049 24.5926 47.9849C24.4007 48.1769 24.1127 48.3689 23.8247 48.5609C22.8648 49.2329 22.0969 50.1929 21.1371 50.8649C19.9852 51.6329 19.1213 52.5929 18.1614 53.5529C18.0654 53.6489 17.8734 53.8409 17.7775 53.8409C17.2975 53.8409 17.1055 54.3209 16.8176 54.6089C16.3376 55.0889 15.9537 55.5689 15.4737 55.9529C14.9938 56.3369 14.6098 56.6249 14.2259 57.1049C13.362 57.8729 12.6901 58.8329 11.8262 59.6969C11.4422 60.0809 10.9623 60.3689 10.7703 60.7529C10.2904 61.7129 9.42646 62.3849 8.75454 63.1529C8.2746 63.7289 7.69867 64.4009 7.31471 64.9769C6.54681 66.1289 5.7789 67.1849 5.10698 68.3369C4.72303 69.0089 4.33907 69.7769 3.85913 70.3529C3.57116 70.7369 3.37919 71.2169 3.09122 71.6969C2.80326 72.1769 2.89924 72.7529 2.70727 73.3289C2.51529 73.8089 2.03535 74.2889 1.84337 74.7689C1.74738 75.3449 1.45942 75.8249 1.45942 76.3049C1.26744 76.8809 1.07546 77.2649 0.787497 77.8409C0.691509 78.0329 0.59552 78.2249 0.59552 78.5129C0.787497 79.0889 0.787497 79.5689 0.403544 79.9529C0.307555 80.0489 0.307555 80.2409 0.307555 80.4329L0.0195896 82.8329C-0.0763991 83.6969 0.211566 84.4649 0.211566 85.3289C0.211566 86.0969 0.691509 86.7689 0.499532 87.6329C0.499532 87.6329 0.59552 87.8249 0.691509 87.8249C1.07546 88.3049 0.787497 89.0729 1.36343 89.4569C1.36343 89.8409 1.65139 90.1289 1.5554 90.5129C1.45942 90.8009 1.5554 90.9929 1.74738 91.1849C1.93936 91.3769 2.22732 91.5689 2.22732 91.8569C2.22732 92.6249 2.89924 93.0089 3.2832 93.4889C3.76314 94.0649 4.05111 94.5449 4.43506 95.1209C4.62704 95.4089 4.72303 95.7929 5.01099 95.8889C5.39495 96.1769 5.68291 96.6569 5.97088 97.0409C6.54681 97.7129 7.12274 98.2889 7.69867 98.8649C8.56256 99.7289 9.42646 100.497 10.3863 101.073C10.8663 101.361 11.2502 101.841 11.7302 102.321C12.2101 102.801 12.7861 102.993 13.266 103.377C13.65 103.665 14.3219 103.569 14.6098 104.145C14.7058 104.241 14.8978 104.241 14.9938 104.241C15.6657 104.241 16.0497 104.913 16.6256 105.201C17.2015 105.489 17.9694 105.585 18.4494 105.969C19.3133 106.449 20.3691 106.641 21.1371 107.121C21.329 107.313 21.617 107.313 21.905 107.409C22.8648 107.697 23.8247 108.081 24.7846 108.369C25.6485 108.657 26.5124 108.849 27.2803 109.137C27.3763 109.233 27.5683 109.041 27.7603 109.041C27.8563 109.041 27.9522 109.137 27.8563 109.233C27.8563 109.425 27.9522 109.521 28.1442 109.521C28.6242 109.521 29.0081 109.713 29.3921 110.001C29.968 109.809 30.352 110.193 30.9279 110.193C31.1199 110.289 31.3118 110.289 31.5038 110.385C31.8878 110.577 32.2717 110.865 32.6557 110.673C33.2316 110.385 33.3276 111.057 33.7116 111.057H34.0955C34.2875 111.057 34.4795 110.961 34.6714 111.057C35.0554 111.441 35.6313 111.441 36.1113 111.441C36.5912 111.441 37.0711 111.537 37.5511 111.633C38.607 111.825 39.7588 112.305 41.0067 112.305C41.1987 112.305 41.3906 112.305 41.5826 112.401C42.7345 112.977 44.0783 112.593 45.3262 112.977C46.478 112.881 47.5339 113.361 48.6858 113.361C49.0697 113.361 49.3577 113.553 49.7416 113.553C50.2216 113.553 50.7015 113.649 51.2774 113.649C51.7574 113.649 52.2373 113.649 52.8133 113.841C53.1012 113.937 53.3892 113.937 53.6772 113.937C54.637 113.937 55.5969 113.841 56.4608 114.033C57.7087 114.321 58.8605 114.225 60.0124 114.417C61.1643 114.609 62.2201 114.609 63.276 114.609C64.3319 114.609 65.4837 114.705 66.5396 114.705C67.6915 114.705 68.9393 114.897 70.0912 114.897C70.4751 114.993 70.8591 115.089 71.339 115.089C71.819 115.089 72.2989 114.993 72.8749 115.089C73.3548 115.185 73.9307 115.185 74.5067 114.993C74.9866 114.801 75.4665 115.377 76.0425 115.089C76.6184 115.281 77.2903 114.993 77.8663 115.089C78.5382 115.185 79.2101 115.185 79.882 115.185C80.5539 115.185 81.2259 115.089 81.8978 115.281ZM87.0812 112.881C86.8892 112.785 86.7932 112.497 86.4092 112.593C85.6413 112.593 84.8734 112.497 84.1055 112.497C82.9536 112.497 81.8018 112.305 80.6499 112.593C80.4579 112.593 80.266 112.593 80.17 112.497H77.4823C75.7545 112.497 73.9307 112.593 72.1069 112.305C71.819 112.209 71.531 112.209 71.339 112.209C71.0511 112.305 70.6671 112.209 70.4751 112.305C69.8032 112.305 69.1313 112.017 68.4594 112.305C66.9236 111.921 65.1958 112.593 63.8519 111.921C63.66 111.825 63.372 111.825 63.18 111.921C62.0282 112.113 60.9723 111.633 59.8204 111.921C59.6284 112.017 59.3405 111.921 59.0525 111.825C58.5726 111.537 57.9966 111.441 57.4207 111.729C57.2287 111.825 56.9408 111.729 56.6528 111.729C56.3648 111.633 56.1729 111.537 55.8849 111.537C55.309 111.537 54.733 111.633 54.2531 111.441C53.6772 111.345 53.1972 111.153 52.5253 111.153H51.9494C51.4694 111.153 51.0855 110.865 50.6055 110.961C50.1256 111.057 49.6456 110.865 49.1657 110.865C48.2058 110.865 47.2459 110.385 46.286 110.385C45.8061 110.385 45.4221 110.289 44.9422 110.193C44.2703 110.193 43.6944 110.193 43.0224 110.001C42.4465 109.809 41.8706 109.905 41.1987 109.713C40.9107 109.617 40.5267 109.617 40.1428 109.617C39.7588 109.617 39.2789 109.425 38.9909 109.425C38.415 109.617 38.223 109.233 37.8391 109.041H37.6471C36.3032 109.041 34.9594 108.369 33.6156 108.369C33.1356 108.369 32.6557 108.081 32.1757 108.081C31.5038 108.081 30.9279 107.697 30.256 107.505L28.3362 107.025C27.9522 106.833 27.4723 106.641 26.9924 106.641C26.6084 106.641 26.3204 106.449 25.9365 106.353C25.4565 106.257 25.0726 105.777 24.4967 106.065C24.4007 106.065 24.2087 105.969 24.0167 105.873C23.4408 105.585 22.8648 105.585 22.2889 105.201C21.809 104.913 21.233 104.625 20.6571 104.337C20.2732 104.145 19.9852 103.953 19.5053 103.953C19.3133 104.049 19.1213 103.953 18.9293 103.857L15.8577 102.225C15.2818 101.937 14.7058 101.457 14.2259 101.073C13.8419 100.881 13.554 100.497 13.17 100.497C13.074 100.497 12.882 100.497 12.882 100.401C12.5941 99.5369 11.6342 99.6329 11.1543 99.1529C10.6743 98.6729 10.1944 98.1929 9.61844 97.9049C9.23448 97.7129 8.85053 97.4249 8.75454 97.0409C8.65855 96.7529 8.56256 96.5609 8.17861 96.4649C7.79466 96.3689 7.4107 96.0809 7.4107 95.6969C7.4107 95.5049 7.31471 95.3129 7.12274 95.3129C6.25884 94.8329 5.97088 93.6809 5.29896 93.0089C5.10698 92.8169 5.01099 92.4329 4.62704 92.2409C4.53105 92.1449 4.33907 91.8569 4.33907 91.7609C4.33907 91.1849 4.05111 90.8969 3.76314 90.4169C3.2832 89.6489 2.99523 88.8809 2.99523 87.9209C2.99523 87.7289 2.89924 87.4409 2.80326 87.2489C2.4193 86.4809 2.70727 85.6169 2.4193 84.8489C2.32331 84.5609 2.51529 84.2729 2.51529 84.0809C2.51529 83.7929 2.51529 83.5049 2.61128 83.3129C2.61128 82.9289 2.32331 82.6409 2.4193 82.2569C2.61128 81.9689 2.70727 81.6809 2.70727 81.3929C2.70727 80.6249 3.37919 79.9529 3.18721 79.0889C3.57116 78.8009 3.66715 78.3209 3.47517 77.8409C4.1471 77.0729 3.76314 76.0169 4.62704 75.1529C4.915 74.8649 5.10698 74.3849 5.20297 73.9049C5.29896 73.4249 5.39495 73.0409 5.68291 72.6569C6.25884 71.8889 6.64279 70.9289 7.21873 70.1609C8.46658 68.5289 9.52245 66.8969 10.3863 65.1689C10.5783 64.7849 10.7703 64.5929 11.0583 64.4009C11.4422 64.1129 11.8262 63.7289 12.1141 63.3449L13.554 61.6169C14.0339 60.9449 14.6098 60.4649 15.0898 59.7929C15.2818 59.5049 15.5697 59.3129 15.8577 59.0249L17.3935 57.4889C17.9694 56.9129 18.4494 56.3369 19.2173 55.9529C19.3133 55.8569 19.5053 55.7609 19.5053 55.6649C19.9852 54.8009 20.8491 54.4169 21.521 53.7449C22.1929 53.0729 22.8648 52.4009 23.7287 52.0169C23.9207 51.9209 24.0167 51.8249 24.1127 51.7289C24.7846 51.0569 25.4565 50.5769 26.1285 50.0009C26.8004 49.4249 27.5683 49.1369 28.0482 48.4649C28.9121 47.6009 30.16 47.1209 31.1199 46.3529C32.0797 45.5849 33.1356 44.9129 34.0955 44.1449C34.0955 44.0489 34.1915 43.9529 34.2875 43.9529C35.3434 43.9529 36.1113 42.8969 36.9752 42.3209L39.8548 40.4969L43.7903 38.0009C44.0783 37.9049 44.3663 37.7129 44.6542 37.6169L46.574 36.5609C47.3419 35.9849 48.1098 35.5049 49.0697 35.1209C49.5497 34.9289 49.8376 34.5449 50.2216 34.3529C50.9895 33.9689 51.7574 33.6809 52.4293 33.3929C52.5253 33.2969 52.7173 33.2969 52.7173 33.2009C53.4852 32.5289 54.4451 32.1449 55.309 31.7609L56.5568 31.1849C57.6127 30.7049 58.5726 30.0329 59.5325 29.5529C59.9164 29.3609 60.3004 29.1689 60.6843 29.0729C60.9723 28.9769 61.2602 28.7849 61.4522 28.5929C61.6442 28.4969 61.7402 28.3049 61.8362 28.3049C62.7961 28.3049 63.564 27.6329 64.4279 27.2489C64.5239 27.1529 64.6198 27.0569 64.8118 27.0569C66.4436 26.6729 67.8835 25.7129 69.3233 25.0409L69.8992 24.7529C70.4751 24.7529 70.8591 24.4649 71.339 24.2729L75.0826 22.5449C75.5625 22.3529 76.0425 22.2569 76.5224 21.9689C77.0024 21.6809 77.5783 21.4889 78.1542 21.2969C78.7302 21.1049 79.3061 21.0089 79.594 20.4329C79.69 20.2409 79.882 20.1449 80.074 20.1449C81.2259 20.1449 82.1857 19.3769 83.2416 19.3769C83.7216 19.3769 84.2015 18.9929 84.5854 18.7049C85.0654 18.3209 85.6413 18.2249 86.1213 18.0329C86.6012 17.8409 87.0812 17.9369 87.5611 17.4569C87.6571 17.3609 87.7531 17.3609 87.8491 17.3609C88.233 17.5529 88.425 17.3609 88.713 17.2649C89.1929 17.0729 89.5769 16.8809 89.8648 16.4969C90.2488 16.6889 90.6327 16.4969 91.0167 16.4009C91.4966 16.4009 91.6886 15.8249 92.1685 15.9209C92.6485 16.0169 92.9364 15.6329 93.3204 15.6329C93.7044 15.6329 94.1843 15.4409 94.5683 15.3449C94.8562 15.2489 95.2402 15.1529 95.5281 14.9609C95.3362 14.8649 95.2402 14.7689 95.1442 14.6729C95.1442 14.5769 95.0482 14.5769 95.0482 14.4809C95.0482 14.3849 95.1442 14.2889 95.2402 14.2889L95.8161 14.5769C96.0081 14.6729 96.2001 14.6729 96.392 14.6729C96.968 14.6729 97.1599 13.8089 97.6399 14.0009C98.3118 14.2889 98.6958 13.9049 99.0797 13.6169C99.3677 13.4249 99.5596 13.3289 99.9436 13.5209C100.04 13.5209 100.232 13.5209 100.328 13.4249C100.999 12.7529 101.959 12.8489 102.727 12.6569C103.111 12.5609 103.495 12.4649 104.071 12.1769C104.263 12.0809 104.647 12.1769 104.935 12.0809C105.895 11.7929 106.855 11.6969 107.719 11.2169C108.391 10.8329 109.35 10.9289 110.118 10.6409C110.79 10.3529 111.558 10.2569 112.326 10.0649L114.726 9.3929H114.918C116.454 8.81691 118.085 8.5289 119.717 8.1449C120.101 8.0489 120.485 7.95291 120.869 7.95291C121.253 7.95291 121.541 7.7609 121.733 7.5689C121.925 7.47291 122.117 7.2809 122.309 7.2809C123.269 7.2809 124.229 6.8009 125.189 6.8009H125.477C127.684 6.12891 129.892 5.9369 132.004 5.4569C132.868 5.4569 133.636 5.16891 134.499 4.9769C134.979 4.9769 135.459 4.8809 135.843 4.5929C136.131 4.4009 136.131 4.30491 136.419 4.5929C136.515 4.6889 136.515 4.6889 136.611 4.6889C137.475 4.30491 138.435 4.4969 139.299 4.2089C140.259 3.92091 141.315 3.8249 142.275 3.7289C142.946 3.6329 143.714 3.5369 144.386 3.3449C144.674 2.8649 145.058 3.0569 145.442 3.1529C145.73 3.2489 146.018 3.2489 146.114 3.1529C146.69 2.57691 147.266 2.8649 147.842 2.8649H148.13C149.09 2.8649 150.05 2.6729 151.105 2.8649C151.969 3.05691 152.929 2.8649 153.889 2.8649C154.273 2.8649 154.657 2.96091 155.137 2.7689C155.329 2.6729 155.329 2.8649 155.425 2.96091C155.713 3.2489 156.001 3.2489 156.289 3.1529C156.481 3.1529 156.481 3.05691 156.481 2.8649C156.385 2.6729 156.289 2.4809 156.481 2.4809C156.577 2.3849 156.769 2.57691 156.865 2.6729C156.865 2.7689 156.961 2.8649 156.961 2.96091C157.153 3.1529 157.249 3.1529 157.633 2.96091C158.017 2.57691 158.305 2.57691 158.305 3.2489C158.305 3.3449 158.305 3.44091 158.401 3.44091C158.881 3.44091 159.36 3.2489 159.84 3.44091C159.84 3.44091 160.032 3.3449 160.032 3.2489C160.128 3.0569 160.32 2.96091 160.512 3.2489C160.704 3.5369 160.896 3.8249 161.28 3.8249C161.856 3.8249 162.336 4.30491 163.008 4.0169C163.2 3.92091 163.584 4.0169 163.872 4.2089C164.256 4.4969 164.736 4.4009 165.216 4.4969C165.6 4.6889 165.984 4.78491 166.464 4.5929C166.56 4.5929 166.752 4.5929 166.848 4.6889C167.615 5.4569 168.479 4.9769 169.343 4.9769C169.727 4.9769 170.111 4.8809 170.303 5.0729C170.783 5.5529 171.263 5.64891 171.839 5.8409C172.799 6.12891 173.663 6.51291 174.623 6.7049C174.911 7.0889 175.103 6.4169 175.295 6.60891C175.487 6.8009 175.775 6.8969 175.966 7.0889C176.638 7.7609 177.694 7.85691 178.558 8.33691C179.134 8.33691 179.71 8.5289 180.094 8.9129C180.19 9.0089 180.382 9.1049 180.574 9.1049C180.766 9.1049 181.054 9.0089 181.246 9.1049C181.438 9.20091 181.534 9.4889 181.726 9.68091L182.302 9.9689C183.838 10.7369 185.277 11.4089 186.717 12.2729L189.597 14.0009C190.749 14.6729 191.901 15.2489 192.764 16.2089C192.86 16.4009 192.956 16.4969 193.052 16.4969C193.82 16.8809 194.492 17.3609 195.068 18.0329C196.124 18.5129 196.796 19.3769 197.564 20.1449C198.524 21.1049 199.484 21.8729 200.252 23.0249H200.444C200.732 23.0249 200.827 23.2169 201.019 23.3129C201.403 23.6969 201.307 24.3689 201.979 24.6569C202.555 24.9449 202.555 25.6169 202.939 26.0969L204.379 27.9209C204.571 28.2089 204.763 28.4969 204.955 28.8809C205.723 30.4169 206.779 31.9529 207.355 33.7769L207.739 34.3529C207.931 34.8329 208.219 35.2169 208.219 35.6969C208.219 36.6569 208.891 37.4249 208.987 38.3849C209.658 39.0569 209.37 40.0169 209.754 40.6889C209.85 41.9369 210.042 43.0889 210.426 44.2409C210.234 44.7209 210.33 45.2969 210.426 45.8729C210.138 46.4489 210.522 47.1209 210.234 47.6969C210.138 47.8889 210.234 48.0809 210.33 48.2729C210.426 48.8489 210.618 49.4249 210.042 49.7129C209.85 49.8089 209.946 50.0969 210.138 50.1929C210.426 50.5769 210.522 50.8649 210.234 51.2489L209.946 51.6329C209.658 51.9209 209.754 52.2089 209.658 52.5929C209.658 53.0729 209.85 53.6489 209.275 54.0329C209.275 54.6089 208.699 54.9929 208.987 55.6649C208.603 56.0489 208.795 56.6249 208.411 57.0089C208.315 57.2009 208.123 57.2969 208.027 57.4889C207.739 58.0649 208.027 58.8329 207.451 59.4089C206.971 59.8889 206.875 60.3689 206.491 60.9449L205.339 62.6729L205.051 63.2489C204.763 63.8249 204.571 64.5929 203.899 65.1689C203.323 65.6489 203.035 66.4169 202.555 66.9929C201.403 68.3369 200.348 69.6809 199.292 71.0249C198.908 71.5049 198.14 71.6969 198.14 72.4649C198.14 72.5609 197.948 72.6569 197.756 72.7529C196.316 73.4249 195.452 74.8649 194.3 76.0169C194.108 76.2089 193.916 76.4009 193.724 76.4969C192.956 76.8809 192.285 77.5529 191.613 78.1289C190.845 78.7049 190.269 79.3769 189.501 79.9529C187.581 80.8169 186.141 82.5449 184.222 83.5049C182.782 84.8489 180.862 85.5209 179.326 86.7689C178.654 87.3449 177.79 87.7289 177.022 88.0169C176.734 88.1129 176.446 88.2089 176.35 88.4009C176.062 88.9769 175.391 88.9769 174.911 89.2649C174.143 89.7449 173.471 90.0329 172.703 90.5129C172.415 90.7049 171.935 90.8969 171.551 90.9929C169.727 91.4729 168.287 92.6249 166.656 93.2969C165.408 93.7769 164.16 94.6409 162.816 95.0249C161.76 95.3129 160.704 95.9849 159.648 96.3689C158.785 96.6569 157.921 97.2329 156.961 97.5209C155.905 97.8089 154.849 98.3849 153.889 98.8649C153.697 99.3449 153.313 98.9609 153.025 99.0569C151.777 99.7289 150.434 99.9209 149.186 100.497C148.034 100.977 146.69 101.361 145.442 101.841L144.77 102.129L144.194 102.417C142.562 102.513 141.123 103.089 139.683 103.665C138.147 104.241 136.611 104.625 135.075 104.913C134.116 105.105 133.252 105.393 132.292 105.681C131.14 106.065 129.892 106.353 128.74 106.641C126.82 107.121 124.901 107.505 122.981 107.985C121.349 108.369 119.717 108.657 118.085 108.945L113.862 109.809C113.094 110.001 112.326 110.193 111.558 110.193C110.694 110.193 109.926 110.385 109.063 110.577C108.199 110.769 107.335 110.961 106.471 110.961H106.183C105.415 111.441 104.647 111.153 103.879 111.249C103.015 111.345 102.055 111.345 101.191 111.633C100.04 112.017 98.8877 111.921 97.8319 111.921C97.4479 111.921 97.064 111.921 96.68 112.017C96.1041 112.209 95.4321 112.209 94.7602 112.209C94.4723 112.209 94.1843 112.305 93.9923 112.305C93.5124 112.305 93.0324 112.305 92.5525 112.401C92.1685 112.593 91.7846 112.401 91.4006 112.401C90.5367 112.401 89.5769 112.209 88.713 112.593C88.233 112.785 87.4651 112.209 87.0812 112.881Z" fill="white"/>
<path d="M49.9553 67H47.2673L41.2769 56.152V67H39.5489V54.904H42.2753L48.2273 65.6176V54.904H49.9553V67ZM53.7209 56.3824C53.7337 56.1264 53.7721 55.8768 53.8361 55.6336C53.9001 55.3776 53.9961 55.1472 54.1241 54.9424C54.2649 54.7376 54.4377 54.5776 54.6425 54.4624C54.8601 54.3344 55.1161 54.2704 55.4105 54.2704C55.6793 54.2704 55.9161 54.3344 56.1209 54.4624C56.3385 54.5776 56.5369 54.712 56.7161 54.8656C56.8953 55.0064 57.0617 55.1408 57.2153 55.2688C57.3817 55.384 57.5481 55.4416 57.7145 55.4416C58.0089 55.4416 58.2265 55.3392 58.3673 55.1344C58.5081 54.9168 58.5849 54.6736 58.5977 54.4048H59.5193C59.5065 54.6608 59.4617 54.9104 59.3849 55.1536C59.3209 55.3968 59.2185 55.6144 59.0777 55.8064C58.9497 55.9984 58.7833 56.1584 58.5785 56.2864C58.3737 56.4016 58.1241 56.4592 57.8297 56.4592C57.5609 56.4592 57.3177 56.4016 57.1001 56.2864C56.8953 56.1584 56.7033 56.024 56.5241 55.8832C56.3449 55.7424 56.1721 55.6144 56.0057 55.4992C55.8521 55.3712 55.6921 55.3072 55.5257 55.3072C55.2313 55.3072 55.0137 55.4224 54.8729 55.6528C54.7321 55.8704 54.6553 56.1136 54.6425 56.3824H53.7209ZM60.7481 67C60.2105 66.9872 59.7753 66.84 59.4425 66.5584C59.1225 66.264 58.9625 65.848 58.9625 65.3104C58.7577 65.9504 58.3737 66.4304 57.8105 66.7504C57.2473 67.0704 56.6201 67.2432 55.9289 67.2688C55.4809 67.2944 55.0329 67.2496 54.5849 67.1344C54.1497 67.0192 53.7529 66.8464 53.3945 66.616C53.0489 66.3856 52.7609 66.0976 52.5305 65.752C52.3129 65.4064 52.1977 65.0032 52.1849 64.5424C52.1721 63.8384 52.2937 63.2816 52.5497 62.872C52.8185 62.4624 53.1513 62.1552 53.5481 61.9504C53.9577 61.7328 54.4057 61.5984 54.8921 61.5472C55.3785 61.4832 55.8329 61.4512 56.2553 61.4512H58.9817V60.3568C58.9817 60.1136 58.9113 59.9088 58.7705 59.7424C58.6297 59.5632 58.4377 59.4224 58.1945 59.32C57.9641 59.2048 57.6953 59.1216 57.3881 59.0704C57.0937 59.0192 56.7801 58.9936 56.4473 58.9936C56.1401 58.9936 55.8457 59.0256 55.5641 59.0896C55.2825 59.1408 55.0329 59.224 54.8153 59.3392C54.5977 59.4544 54.4249 59.608 54.2969 59.8C54.1689 59.9792 54.1049 60.1904 54.1049 60.4336H52.5689C52.5689 59.9088 52.6777 59.4736 52.8953 59.128C53.1129 58.7696 53.4009 58.4816 53.7593 58.264C54.1305 58.0464 54.5465 57.8928 55.0073 57.8032C55.4809 57.7008 55.9737 57.6496 56.4857 57.6496C57.2921 57.6496 57.9577 57.7392 58.4825 57.9184C59.0201 58.0848 59.4489 58.296 59.7689 58.552C60.0889 58.808 60.3129 59.0896 60.4409 59.3968C60.5689 59.6912 60.6329 59.9728 60.6329 60.2416V65.0992C60.6329 65.496 60.8313 65.6944 61.2281 65.6944H61.4009V67H60.7481ZM53.8361 64.1776C53.8105 64.472 53.8489 64.7344 53.9513 64.9648C54.0537 65.1824 54.2009 65.368 54.3929 65.5216C54.5849 65.6752 54.8153 65.7968 55.0841 65.8864C55.3529 65.9632 55.6409 66.0016 55.9481 66.0016C56.2425 66.0016 56.5369 65.9696 56.8313 65.9056C57.1385 65.8288 57.4265 65.72 57.6953 65.5792C57.9641 65.4256 58.2073 65.2336 58.4249 65.0032C58.6553 64.76 58.8345 64.4784 58.9625 64.1584V62.5264H56.1977C56.0313 62.5264 55.8201 62.5392 55.5641 62.5648C55.3081 62.5904 55.0585 62.6608 54.8153 62.776C54.5721 62.8784 54.3545 63.0384 54.1625 63.256C53.9833 63.4736 53.8745 63.7808 53.8361 64.1776ZM62.4778 62.4112C62.4778 61.5792 62.5994 60.8688 62.8426 60.28C63.0858 59.6784 63.4186 59.192 63.841 58.8208C64.2634 58.4496 64.7626 58.1808 65.3386 58.0144C65.9274 57.8352 66.561 57.7456 67.2394 57.7456C67.9178 57.7456 68.545 57.8352 69.121 58.0144C69.7098 58.1808 70.2154 58.456 70.6378 58.84C71.0602 59.2112 71.3866 59.6912 71.617 60.28C71.8602 60.8688 71.9818 61.5792 71.9818 62.4112C71.9818 63.2432 71.8602 63.9536 71.617 64.5424C71.3866 65.1312 71.0602 65.6176 70.6378 66.0016C70.2154 66.3728 69.7098 66.648 69.121 66.8272C68.545 67.0064 67.9178 67.096 67.2394 67.096C66.561 67.096 65.9274 67.0064 65.3386 66.8272C64.7626 66.648 64.2634 66.3728 63.841 66.0016C63.4186 65.6176 63.0858 65.1312 62.8426 64.5424C62.5994 63.9536 62.4778 63.2432 62.4778 62.4112ZM67.2394 65.6368C67.713 65.6368 68.1354 65.5856 68.5066 65.4832C68.8906 65.368 69.217 65.1824 69.4858 64.9264C69.7546 64.6704 69.9594 64.3376 70.1002 63.928C70.241 63.5184 70.3114 63.0128 70.3114 62.4112C70.3114 61.8096 70.241 61.304 70.1002 60.8944C69.9594 60.4848 69.7546 60.1584 69.4858 59.9152C69.217 59.6592 68.8906 59.48 68.5066 59.3776C68.1354 59.2624 67.713 59.2048 67.2394 59.2048C66.7786 59.2048 66.3562 59.2624 65.9722 59.3776C65.5882 59.48 65.2618 59.6592 64.993 59.9152C64.7242 60.1584 64.513 60.4848 64.3594 60.8944C64.2186 61.304 64.1482 61.8096 64.1482 62.4112C64.1482 63 64.2186 63.5056 64.3594 63.928C64.513 64.3376 64.7242 64.6704 64.993 64.9264C65.2618 65.1696 65.5882 65.3488 65.9722 65.464C66.3562 65.5792 66.7786 65.6368 67.2394 65.6368ZM86.8553 63.9472C86.8041 64.5232 86.6633 65.0096 86.4329 65.4064C86.2025 65.7904 85.8953 66.104 85.5113 66.3472C85.1273 66.5776 84.6665 66.744 84.1289 66.8464C83.6041 66.9488 83.0153 67 82.3625 67C81.6585 67 81.0249 66.8912 80.4617 66.6736C79.9113 66.456 79.4441 66.1552 79.0601 65.7712C78.6761 65.3744 78.3817 64.9072 78.1769 64.3696C77.9721 63.832 77.8697 63.2496 77.8697 62.6224C77.8697 61.944 77.9657 61.3104 78.1577 60.7216C78.3497 60.1328 78.6377 59.6208 79.0217 59.1856C79.4185 58.7376 79.9177 58.3856 80.5193 58.1296C81.1337 57.8736 81.8569 57.7456 82.6889 57.7456C83.4057 57.7456 84.0393 57.8736 84.5897 58.1296C85.1401 58.3856 85.5945 58.744 85.9529 59.2048C86.3241 59.6528 86.5993 60.1904 86.7785 60.8176C86.9577 61.432 87.0281 62.1104 86.9897 62.8528H79.5785C79.5785 63.2752 79.6553 63.6592 79.8089 64.0048C79.9753 64.3376 80.1929 64.6256 80.4617 64.8688C80.7305 65.112 81.0441 65.2976 81.4025 65.4256C81.7609 65.5536 82.1385 65.6176 82.5353 65.6176C83.1881 65.6176 83.6937 65.5536 84.0521 65.4256C84.4105 65.2848 84.6793 65.1248 84.8585 64.9456C85.0377 64.7664 85.1529 64.5872 85.2041 64.408C85.2553 64.216 85.2937 64.0624 85.3193 63.9472H86.8553ZM85.4345 61.8736C85.4089 61.5536 85.3385 61.2336 85.2233 60.9136C85.1209 60.5936 84.9609 60.312 84.7433 60.0688C84.5257 59.8128 84.2377 59.608 83.8793 59.4544C83.5337 59.288 83.0985 59.2048 82.5737 59.2048C82.1257 59.2048 81.7161 59.288 81.3449 59.4544C80.9865 59.608 80.6729 59.8128 80.4041 60.0688C80.1481 60.312 79.9433 60.5936 79.7897 60.9136C79.6489 61.2336 79.5785 61.5536 79.5785 61.8736H85.4345ZM89.0632 67V57.8416H90.6568V60.184C90.8104 59.7744 91.0088 59.4224 91.252 59.128C91.508 58.8208 91.7832 58.5712 92.0776 58.3792C92.372 58.1744 92.6792 58.0208 92.9992 57.9184C93.3192 57.816 93.6328 57.7648 93.94 57.7648C95.2072 57.7648 96.1544 58.1232 96.7816 58.84C97.4216 59.544 97.7416 60.5104 97.7416 61.7392V67H96.0904V61.912C96.0904 61.0928 95.892 60.4464 95.4952 59.9728C95.0984 59.4864 94.4712 59.2432 93.6136 59.2432C92.6536 59.2432 91.9304 59.5184 91.444 60.0688C90.9576 60.6192 90.7144 61.3552 90.7144 62.2768V67H89.0632ZM100.373 59.2048H99.0098V57.8416H100.392V55.7872C100.392 55.5184 100.411 55.3008 100.45 55.1344C100.501 54.9552 100.584 54.8208 100.699 54.7312C100.827 54.6288 101 54.5584 101.218 54.52C101.435 54.4816 101.717 54.4624 102.063 54.4624H105.115V55.7872L102.888 55.768C102.645 55.768 102.459 55.7744 102.331 55.7872C102.216 55.7872 102.133 55.8 102.082 55.8256C102.031 55.8512 102.005 55.896 102.005 55.96C102.005 56.0112 102.005 56.088 102.005 56.1904V57.8416H104.674V59.2048H102.043V67H100.373V59.2048ZM114.493 63.9472C114.442 64.5232 114.301 65.0096 114.07 65.4064C113.84 65.7904 113.533 66.104 113.149 66.3472C112.765 66.5776 112.304 66.744 111.766 66.8464C111.242 66.9488 110.653 67 110 67C109.296 67 108.662 66.8912 108.099 66.6736C107.549 66.456 107.082 66.1552 106.698 65.7712C106.314 65.3744 106.019 64.9072 105.814 64.3696C105.61 63.832 105.507 63.2496 105.507 62.6224C105.507 61.944 105.603 61.3104 105.795 60.7216C105.987 60.1328 106.275 59.6208 106.659 59.1856C107.056 58.7376 107.555 58.3856 108.157 58.1296C108.771 57.8736 109.494 57.7456 110.326 57.7456C111.043 57.7456 111.677 57.8736 112.227 58.1296C112.778 58.3856 113.232 58.744 113.59 59.2048C113.962 59.6528 114.237 60.1904 114.416 60.8176C114.595 61.432 114.666 62.1104 114.627 62.8528H107.216C107.216 63.2752 107.293 63.6592 107.446 64.0048C107.613 64.3376 107.83 64.6256 108.099 64.8688C108.368 65.112 108.682 65.2976 109.04 65.4256C109.398 65.5536 109.776 65.6176 110.173 65.6176C110.826 65.6176 111.331 65.5536 111.69 65.4256C112.048 65.2848 112.317 65.1248 112.496 64.9456C112.675 64.7664 112.79 64.5872 112.842 64.408C112.893 64.216 112.931 64.0624 112.957 63.9472H114.493ZM113.072 61.8736C113.046 61.5536 112.976 61.2336 112.861 60.9136C112.758 60.5936 112.598 60.312 112.381 60.0688C112.163 59.8128 111.875 59.608 111.517 59.4544C111.171 59.288 110.736 59.2048 110.211 59.2048C109.763 59.2048 109.354 59.288 108.982 59.4544C108.624 59.608 108.31 59.8128 108.042 60.0688C107.786 60.312 107.581 60.5936 107.427 60.9136C107.286 61.2336 107.216 61.5536 107.216 61.8736H113.072ZM116.624 57.8416H118.275V60.184C118.505 59.3776 118.838 58.7824 119.273 58.3984C119.721 58.0144 120.31 57.8224 121.04 57.8224H122.499V59.3008H121.04C120.643 59.3008 120.272 59.3776 119.926 59.5312C119.593 59.6848 119.305 59.896 119.062 60.1648C118.819 60.4336 118.627 60.7536 118.486 61.1248C118.345 61.4832 118.275 61.8672 118.275 62.2768V67H116.624V57.8416ZM124.199 57.8416H125.85V60.184C126.08 59.3776 126.413 58.7824 126.848 58.3984C127.296 58.0144 127.885 57.8224 128.615 57.8224H130.074V59.3008H128.615C128.218 59.3008 127.847 59.3776 127.501 59.5312C127.168 59.6848 126.88 59.896 126.637 60.1648C126.394 60.4336 126.202 60.7536 126.061 61.1248C125.92 61.4832 125.85 61.8672 125.85 62.2768V67H124.199V57.8416ZM138.856 67.0192V64.8496C138.625 65.528 138.273 66.0592 137.8 66.4432C137.326 66.8272 136.641 67.0448 135.745 67.096C135.041 67.1344 134.44 67.0704 133.94 66.904C133.454 66.7248 133.051 66.4624 132.731 66.1168C132.411 65.7584 132.174 65.3232 132.02 64.8112C131.88 64.2992 131.809 63.7296 131.809 63.1024V57.8416H133.46V62.9296C133.46 63.3264 133.492 63.704 133.556 64.0624C133.62 64.408 133.742 64.7152 133.921 64.984C134.1 65.24 134.35 65.4448 134.67 65.5984C134.99 65.7392 135.412 65.8096 135.937 65.8096C136.411 65.8096 136.82 65.7264 137.166 65.56C137.524 65.3936 137.819 65.1632 138.049 64.8688C138.292 64.5744 138.472 64.2352 138.587 63.8512C138.715 63.4544 138.779 63.032 138.779 62.584V57.8416H140.43V67L138.856 67.0192ZM143.718 56.8624C143.398 56.8624 143.129 56.7664 142.912 56.5744C142.707 56.3696 142.605 56.1072 142.605 55.7872C142.605 55.4672 142.707 55.2048 142.912 55C143.129 54.7952 143.398 54.6928 143.718 54.6928C144.025 54.6928 144.288 54.7888 144.505 54.9808C144.736 55.1728 144.851 55.4288 144.851 55.7488C144.851 56.0816 144.742 56.3504 144.525 56.5552C144.32 56.76 144.051 56.8624 143.718 56.8624ZM140.646 70.456V69.0544H142.432C142.624 69.0544 142.752 68.984 142.816 68.8432C142.88 68.7152 142.912 68.5168 142.912 68.248V57.8416H144.582V68.2096C144.582 69.7072 143.955 70.456 142.701 70.456H140.646ZM155.136 67C154.598 66.9872 154.163 66.84 153.83 66.5584C153.51 66.264 153.35 65.848 153.35 65.3104C153.145 65.9504 152.761 66.4304 152.198 66.7504C151.635 67.0704 151.008 67.2432 150.316 67.2688C149.868 67.2944 149.42 67.2496 148.972 67.1344C148.537 67.0192 148.14 66.8464 147.782 66.616C147.436 66.3856 147.148 66.0976 146.918 65.752C146.7 65.4064 146.585 65.0032 146.572 64.5424C146.56 63.8384 146.681 63.2816 146.937 62.872C147.206 62.4624 147.539 62.1552 147.936 61.9504C148.345 61.7328 148.793 61.5984 149.28 61.5472C149.766 61.4832 150.22 61.4512 150.643 61.4512H153.369V60.3568C153.369 60.1136 153.299 59.9088 153.158 59.7424C153.017 59.5632 152.825 59.4224 152.582 59.32C152.352 59.2048 152.083 59.1216 151.776 59.0704C151.481 59.0192 151.168 58.9936 150.835 58.9936C150.528 58.9936 150.233 59.0256 149.952 59.0896C149.67 59.1408 149.42 59.224 149.203 59.3392C148.985 59.4544 148.812 59.608 148.684 59.8C148.556 59.9792 148.492 60.1904 148.492 60.4336H146.956C146.956 59.9088 147.065 59.4736 147.283 59.128C147.5 58.7696 147.788 58.4816 148.147 58.264C148.518 58.0464 148.934 57.8928 149.395 57.8032C149.868 57.7008 150.361 57.6496 150.873 57.6496C151.68 57.6496 152.345 57.7392 152.87 57.9184C153.408 58.0848 153.836 58.296 154.156 58.552C154.476 58.808 154.7 59.0896 154.828 59.3968C154.956 59.6912 155.02 59.9728 155.02 60.2416V65.0992C155.02 65.496 155.219 65.6944 155.616 65.6944H155.788V67H155.136ZM148.224 64.1776C148.198 64.472 148.236 64.7344 148.339 64.9648C148.441 65.1824 148.588 65.368 148.78 65.5216C148.972 65.6752 149.203 65.7968 149.472 65.8864C149.74 65.9632 150.028 66.0016 150.336 66.0016C150.63 66.0016 150.924 65.9696 151.219 65.9056C151.526 65.8288 151.814 65.72 152.083 65.5792C152.352 65.4256 152.595 65.2336 152.812 65.0032C153.043 64.76 153.222 64.4784 153.35 64.1584V62.5264H150.585C150.419 62.5264 150.208 62.5392 149.952 62.5648C149.696 62.5904 149.446 62.6608 149.203 62.776C148.96 62.8784 148.742 63.0384 148.55 63.256C148.371 63.4736 148.262 63.7808 148.224 64.1776ZM157.688 67V57.8416H159.282V60.1648C159.423 59.8704 159.589 59.5824 159.781 59.3008C159.973 59.0192 160.197 58.7696 160.453 58.552C160.709 58.3344 160.997 58.1552 161.317 58.0144C161.65 57.8608 162.027 57.7776 162.45 57.7648C162.77 57.7392 163.096 57.7648 163.429 57.8416C163.762 57.9056 164.082 58.0272 164.389 58.2064C164.696 58.3728 164.971 58.5968 165.215 58.8784C165.458 59.16 165.656 59.512 165.81 59.9344C166.04 59.4992 166.283 59.1408 166.539 58.8592C166.808 58.5776 167.09 58.36 167.384 58.2064C167.679 58.04 167.979 57.9248 168.287 57.8608C168.607 57.7968 168.933 57.7648 169.266 57.7648C170.482 57.7648 171.391 58.1232 171.992 58.84C172.594 59.5568 172.895 60.5232 172.895 61.7392V67H171.243V61.912C171.243 61.1312 171.058 60.4912 170.687 59.992C170.328 59.4928 169.72 59.2432 168.863 59.2432C167.032 59.2432 166.117 60.12 166.117 61.8736V67H164.466V61.912C164.466 61.1312 164.28 60.4912 163.909 59.992C163.551 59.4928 162.943 59.2432 162.085 59.2432C161.624 59.2432 161.221 59.32 160.875 59.4736C160.53 59.6272 160.242 59.8384 160.011 60.1072C159.781 60.376 159.608 60.696 159.493 61.0672C159.391 61.4384 159.339 61.8416 159.339 62.2768V67H157.688Z" fill="white"/>
</svg>
