<svg width="116" height="94" viewBox="0 0 116 94" fill="none" xmlns="http://www.w3.org/2000/svg">
<mask id="mask0_389_517" style="mask-type:luminance" maskUnits="userSpaceOnUse" x="38" y="45" width="78" height="50">
<path d="M38.7666 45.6006H115.976V94.0001H38.7666V45.6006Z" fill="white"/>
</mask>
<g mask="url(#mask0_389_517)">
<path d="M115.852 45.7135C115.493 46.654 115.108 47.5863 114.72 48.5197C114.314 49.4424 113.897 50.3615 113.47 51.2771C113.036 52.1891 112.57 53.0833 112.116 53.9882C111.891 54.4424 111.636 54.8776 111.396 55.3235L110.662 56.6541C108.646 60.1927 106.39 63.5708 103.891 66.786C98.8783 73.2165 92.8629 78.9787 85.9556 83.5149C82.4919 85.8003 78.8403 87.729 75.0008 89.3009L73.5537 89.861C73.0698 90.0429 72.5929 90.2379 72.0995 90.3984C71.6072 90.5601 71.1209 90.7325 70.6298 90.8907C70.1375 91.0488 69.6488 91.2165 69.1482 91.3461L67.6548 91.7611L66.9092 91.9668C66.6572 92.0334 66.4063 92.0869 66.1542 92.1428L64.6453 92.4757L63.8902 92.6398L63.128 92.773C55.021 94.2426 46.6607 93.968 38.8652 91.918C39.8724 91.8895 40.8783 91.8871 41.8843 91.8812C42.1363 91.8812 42.3872 91.8717 42.6393 91.861L43.3932 91.83C43.8962 91.8074 44.3896 91.7944 44.8866 91.7777C45.3837 91.7599 45.8795 91.7159 46.373 91.6862L47.8557 91.5839C48.1078 91.5625 48.3492 91.5542 48.5941 91.528L49.3313 91.4495L50.8022 91.2902C54.6881 90.8443 58.5157 90.1023 62.2862 89.0631C69.7784 87.0025 76.8403 83.7171 83.3052 79.4745C89.7701 75.2319 95.6536 70.0607 101.009 64.3259C103.694 61.4626 106.246 58.4495 108.702 55.3342L110.528 52.9787L112.322 50.5887C112.902 49.7777 113.499 48.9739 114.09 48.163C114.682 47.3508 115.248 46.5233 115.852 45.7135Z" fill="white"/>
</g>
<mask id="mask1_389_517" style="mask-type:luminance" maskUnits="userSpaceOnUse" x="52" y="0" width="60" height="76">
<path d="M52.1606 0H111.823V75.4316H52.1606V0Z" fill="white"/>
</mask>
<g mask="url(#mask1_389_517)">
<path d="M81.5017 74.7086C83.0748 73.5089 84.6468 72.3198 86.1105 71.0047C87.6063 69.7312 89.0035 68.3543 90.3864 66.9797C93.101 64.1748 95.5695 61.1676 97.7942 57.9607C98.8703 56.3484 99.9322 54.7277 100.866 53.0356C101.83 51.3614 102.685 49.6313 103.499 47.8882L104.07 46.5636L104.354 45.9025C104.447 45.6825 104.528 45.4637 104.615 45.2449C104.701 45.0261 104.788 44.8085 104.867 44.5862L105.099 43.9203C105.262 43.4803 105.394 43.0261 105.533 42.5766C106.075 40.7633 106.49 38.9215 106.781 37.0511C107.075 35.1688 107.267 33.277 107.358 31.3733C107.457 29.4661 107.479 27.5493 107.428 25.623C107.323 21.7728 106.987 17.906 106.536 14.0273C106.311 12.0844 106.074 10.1379 105.823 8.18782L105.445 5.25441L105.35 4.51957L105.301 4.16285C105.288 4.07367 105.276 4.00946 105.267 3.97617C105.256 3.9405 105.259 3.94168 105.267 3.97617C105.3 4.06654 105.346 4.14977 105.403 4.22706C105.51 4.37212 105.64 4.49222 105.792 4.58734C105.923 4.66939 106.062 4.72765 106.212 4.76214C106.413 4.799 106.385 4.77165 106.243 4.79543L105.562 4.89174L104.103 5.09745C103.131 5.23657 102.162 5.37926 101.196 5.5267C99.2651 5.82159 97.3436 6.13788 95.4399 6.49816C91.6278 7.19733 87.8727 8.05702 84.2449 9.21636C83.3376 9.50173 82.4375 9.81089 81.5493 10.1355L80.2342 10.6385C80.013 10.7193 79.7966 10.8121 79.5826 10.9072L78.9357 11.1866L78.2901 11.4672C78.0736 11.5612 77.8656 11.6694 77.661 11.7705C77.2389 11.9762 76.8144 12.1736 76.3959 12.3864C75.5731 12.8335 74.7371 13.2592 73.9417 13.7502L73.3364 14.1058C73.1331 14.2223 72.9429 14.3579 72.7455 14.4827C72.3555 14.7348 71.9607 14.9869 71.5731 15.2532L70.4411 16.0713L70.1569 16.2758L69.8822 16.4934L69.3352 16.9286L68.7811 17.3697C68.5968 17.5148 68.4292 17.6741 68.2508 17.8263L67.7264 18.2877C67.5528 18.4423 67.3697 18.5885 67.2021 18.7502L66.1961 19.7205C66.1129 19.8014 66.0261 19.8799 65.944 19.9631L65.705 20.2152L65.227 20.7241L64.7467 21.2342C64.5897 21.4054 64.4458 21.5885 64.2936 21.7645C63.9952 22.1224 63.6836 22.4696 63.3935 22.8359L62.5469 23.956C62.4767 24.0487 62.4042 24.1403 62.3364 24.2342L62.139 24.5243L61.7419 25.101L61.3436 25.6789C61.2116 25.8715 61.0915 26.0749 60.9666 26.2722C60.7241 26.6718 60.4732 27.0689 60.2342 27.4708C59.793 28.296 59.321 29.1058 58.9333 29.9595C58.126 31.6563 57.4553 33.4054 56.9214 35.208C56.3923 37.0237 55.9964 38.8692 55.7312 40.7419C55.4684 42.6373 55.3222 44.541 55.2948 46.4542C55.2568 48.3769 55.3329 50.3079 55.4874 52.2401C55.7895 56.1105 56.4244 59.9809 57.1937 63.8359C57.5826 65.7621 58.0035 67.6884 58.4423 69.6123L59.1034 72.5053C59.3305 73.4661 59.554 74.4304 59.7728 75.3983L59.2508 74.0154L58.7407 72.623L57.7348 69.8287C57.0843 67.9583 56.4589 66.0784 55.8834 64.1795C54.7252 60.3816 53.7514 56.5065 53.1224 52.535C52.8085 50.5398 52.5968 48.5327 52.4874 46.516C52.3828 44.478 52.409 42.4423 52.5683 40.4078C52.7288 38.3531 53.0475 36.3222 53.5255 34.3174C54.0035 32.2948 54.6468 30.3269 55.4565 28.4126C55.8489 27.4482 56.3233 26.5267 56.7764 25.5957C57.0201 25.1379 57.2794 24.6872 57.5314 24.2318C57.6575 24.0071 57.7823 23.7752 57.9167 23.5552L58.3305 22.8953L58.7455 22.2354L58.9631 21.8977L59.1878 21.5778L60.0903 20.3055C60.4006 19.887 60.7324 19.4851 61.0522 19.0749C61.2151 18.8727 61.3721 18.6634 61.5409 18.4649L62.0558 17.8787L62.5731 17.2913L62.8299 16.9988C62.9179 16.9036 63.0106 16.8109 63.101 16.717L64.1902 15.598C64.5612 15.2318 64.944 14.8846 65.3305 14.5303C65.5243 14.3567 65.7086 14.1724 65.9096 14.0047L66.5077 13.5017L67.1069 12.9988L67.4078 12.7479L67.7169 12.5112L68.9619 11.5766C69.384 11.2746 69.8156 10.9857 70.2437 10.6955C70.4589 10.5517 70.667 10.3959 70.8893 10.2604L71.5505 9.84775L72.2104 9.43752L72.5433 9.233L72.881 9.04157L74.2401 8.2877C74.6979 8.04632 75.1628 7.81921 75.623 7.58497C75.8561 7.47082 76.0844 7.34953 76.3198 7.24133L77.0273 6.92266L77.7336 6.6028C77.969 6.49579 78.2056 6.39115 78.4458 6.29721L79.8834 5.71933C80.843 5.35072 81.8073 5.00589 82.7764 4.68485C86.661 3.41612 90.6135 2.49816 94.5612 1.75619C96.5374 1.39353 98.5136 1.07961 100.484 0.787106C101.47 0.640851 102.454 0.500542 103.438 0.366178L104.911 0.165227L105.279 0.114097L105.462 0.0891269L105.696 0.0605894C106.201 -0.00480867 106.704 0.010649 107.204 0.108152C107.599 0.191386 107.968 0.33883 108.31 0.551672C108.674 0.779971 108.983 1.06653 109.237 1.41255C109.436 1.68722 109.596 1.9833 109.713 2.30197C109.8 2.53503 109.868 2.77284 109.917 3.01778C109.958 3.22587 109.983 3.40542 110.004 3.56118L110.047 3.94406L110.132 4.67771L110.471 7.62064C110.696 9.58735 110.918 11.5624 111.1 13.5505C111.461 17.5219 111.729 21.5338 111.691 25.5802C111.672 27.6028 111.592 29.6325 111.403 31.6611C111.218 33.6979 110.925 35.7205 110.523 37.7265C110.115 39.7491 109.56 41.73 108.858 43.6694C108.679 44.1557 108.508 44.6409 108.306 45.1177L108.011 45.8347C107.908 46.0713 107.799 46.3055 107.694 46.541C107.589 46.7764 107.484 47.0154 107.371 47.2449L107.027 47.9227L106.341 49.2782C104.439 52.8489 102.221 56.2128 99.6908 59.3698C97.1569 62.4875 94.3614 65.3495 91.3043 67.9548C88.2556 70.5243 84.9892 72.7764 81.5017 74.7086Z" fill="white"/>
</g>
<mask id="mask2_389_517" style="mask-type:luminance" maskUnits="userSpaceOnUse" x="0" y="40" width="69" height="47">
<path d="M0 40.7301H68.2937V86.9988H0V40.7301Z" fill="white"/>
</mask>
<g mask="url(#mask2_389_517)">
<path d="M54.9275 67.3878C54.7955 67.024 54.6659 66.6625 54.5279 66.3022C54.39 65.9431 54.2556 65.5816 54.1177 65.2225C53.8347 64.5079 53.5422 63.7968 53.2307 63.0965C52.6183 61.691 51.9536 60.3165 51.239 58.9716C50.8835 58.301 50.5018 57.6435 50.1213 56.9895C49.742 56.3355 49.3353 55.6982 48.9132 55.0751C48.0868 53.829 47.1843 52.6399 46.2057 51.5079C44.2663 49.2725 42.0143 47.3712 39.472 46.175C38.2081 45.5828 36.8882 45.1595 35.5148 44.905C34.1462 44.666 32.7693 44.5995 31.384 44.7041C29.975 44.8218 28.5909 45.0763 27.233 45.4663C25.8395 45.8575 24.478 46.3379 23.1474 46.9062C21.8014 47.4734 20.4792 48.1393 19.1581 48.8242C17.8371 49.5103 16.5327 50.2534 15.2307 51.0263C13.9298 51.8004 12.623 52.5876 11.3091 53.3854C9.99641 54.1821 8.67417 54.993 7.32102 55.7861C6.9869 55.9859 6.64207 56.1809 6.29843 56.3747C5.95479 56.5685 5.60877 56.7612 5.25919 56.9526L4.73481 57.2416L4.20093 57.5198L3.66585 57.798C3.76454 57.7505 3.85848 57.6946 3.94766 57.6316C4.04397 57.5614 4.13434 57.4853 4.21995 57.4009C4.29843 57.3236 4.37096 57.2392 4.43755 57.15C4.49462 57.068 4.54813 56.9847 4.59688 56.8979C4.63493 56.829 4.66941 56.7564 4.69914 56.6827C4.72887 56.6078 4.75384 56.5269 4.76573 56.4901C4.78 56.4437 4.79189 56.3961 4.8014 56.3474C4.8121 56.3034 4.82043 56.238 4.82399 56.2118C4.83469 56.1559 4.83945 56.0989 4.83945 56.043V55.9395C4.83826 55.9039 4.83588 55.8694 4.83113 55.8337C4.83113 55.8159 4.83113 55.823 4.83113 55.8159C4.83469 55.8266 4.83707 55.8373 4.83826 55.848L4.8561 55.9062L4.87988 55.98C4.91793 56.0894 4.96668 56.2202 5.02494 56.3569C5.14266 56.6387 5.28773 56.9467 5.44112 57.2582C5.75265 57.8872 6.10461 58.5269 6.46965 59.1678C7.19736 60.458 7.97857 61.7505 8.78 63.0287C9.18071 63.6672 9.58856 64.3046 10.0012 64.9336L10.6219 65.8694L10.9286 66.32L11.0701 66.5222L11.1213 66.5947L11.2045 66.6993C12.9655 69.0275 14.95 71.1452 17.1593 73.0513C19.3757 74.9716 21.7657 76.6435 24.3282 78.0668L25.2972 78.5876L25.7824 78.848L26.2794 79.087L27.2723 79.5662C27.4364 79.647 27.6052 79.7219 27.7752 79.7933L28.2782 80.0121L29.2842 80.4532L30.3175 80.8539C31 81.1334 31.7003 81.3569 32.4031 81.5971C32.5802 81.6554 32.7527 81.7231 32.931 81.7731L33.4625 81.9288L34.5279 82.2487C34.8835 82.3557 35.2449 82.4366 35.6028 82.5329C35.9619 82.628 36.321 82.7243 36.6837 82.8087L37.7741 83.043C38.1379 83.1215 38.5018 83.2059 38.868 83.263C39.6028 83.389 40.3341 83.5424 41.0761 83.6328L42.1855 83.7921C42.5565 83.8409 42.9286 83.8718 43.3008 83.917C43.673 83.9633 44.0452 84.0002 44.4185 84.0287L45.541 84.106C46.2889 84.1726 47.0404 84.1774 47.7907 84.2095C48.1688 84.2285 48.5458 84.2237 48.9227 84.2202H50.0547C50.4328 84.2202 50.8097 84.1964 51.1867 84.1869C51.5648 84.1762 51.9417 84.1655 52.3187 84.1441L53.4506 84.0632C53.8288 84.0347 54.2057 84.0156 54.5826 83.9716L55.7146 83.8563C55.9025 83.8349 56.0927 83.8206 56.2806 83.7945L56.8442 83.7148L57.9762 83.559C58.3543 83.5103 58.7313 83.433 59.1022 83.3747C59.4732 83.3153 59.8573 83.2487 60.2342 83.1785L61.3555 82.9455C62.1094 82.804 62.8454 82.6102 63.5921 82.433L64.1522 82.2998L64.7075 82.1476L65.8193 81.842C66.1962 81.7469 66.5529 81.6161 66.9215 81.5055L68.0297 81.1667C67.3413 81.5127 66.6552 81.8741 65.9512 82.1952L64.8906 82.6708L64.3591 82.9098L63.8204 83.1286C63.0987 83.414 62.3781 83.7101 61.6397 83.9574L60.5363 84.3355C60.1653 84.4604 59.7919 84.5638 59.4185 84.6803C56.4102 85.5923 53.3448 86.2273 50.2212 86.5852C48.6563 86.7505 47.0773 86.8706 45.5018 86.9027L44.3091 86.9253C43.9132 86.9253 43.5184 86.9098 43.1225 86.9039C42.7265 86.8967 42.3317 86.8896 41.9346 86.8694L40.7479 86.7957C37.5577 86.5876 34.4185 86.0703 31.3305 85.2428C30.5624 85.0263 29.7859 84.8254 29.0273 84.565L27.8835 84.1881L26.7515 83.7707L26.1879 83.559C25.9988 83.4889 25.8109 83.4152 25.6278 83.3343L24.5196 82.8587L23.9655 82.6197L23.4209 82.3581L22.3317 81.8325L22.0594 81.7065L21.7955 81.5614L21.264 81.2749L20.1986 80.6994L19.1593 80.0703C18.8157 79.8575 18.4625 79.6589 18.132 79.4271L17.1248 78.7493C16.9584 78.6363 16.7871 78.5269 16.6219 78.408L16.1355 78.0501L15.1593 77.326C14.9952 77.2071 14.8383 77.0739 14.6825 76.9479L14.2116 76.5638C11.6908 74.4936 9.42685 72.175 7.41971 69.6066L7.32221 69.4806L7.19617 69.32L7.00354 69.0644L6.65871 68.5614L5.99641 67.5769C5.56121 66.9205 5.13434 66.263 4.7146 65.603C3.87393 64.2749 3.05467 62.9395 2.25919 61.5507C1.86918 60.8515 1.48511 60.1429 1.11531 59.389C0.929818 59.0109 0.749081 58.6197 0.571911 58.1892C0.48392 57.974 0.397119 57.7445 0.312696 57.4924L0.248486 57.2927L0.186655 57.0727L0.128391 56.8218C0.109366 56.7207 0.0915302 56.6328 0.0748835 56.5198C0.0546696 56.389 0.0415898 56.257 0.0356445 56.125V56.0085C0.0356445 55.9681 0.0356445 55.936 0.0356445 55.8825C0.0356445 55.779 0.0487244 55.6744 0.0606148 55.5697C0.0677493 55.5198 0.084396 55.4318 0.0974757 55.364C0.111744 55.2951 0.131959 55.2202 0.152173 55.15C0.175954 55.0608 0.206869 54.974 0.241352 54.8896C0.28178 54.7933 0.325775 54.6993 0.373338 54.6078C0.431602 54.4996 0.498189 54.3961 0.571911 54.2986C0.651578 54.1904 0.739569 54.0882 0.834693 53.993C0.938142 53.8896 1.04872 53.7957 1.16763 53.7124C1.27702 53.6351 1.39117 53.5662 1.50889 53.5043L1.99997 53.2534L2.49106 53.0014L2.98214 52.7374C3.63731 52.389 4.2901 52.018 4.94884 51.6506C7.58261 50.1738 10.2235 48.5626 12.9607 47.0537C15.698 45.5436 18.5398 44.0953 21.5695 42.9597C23.0999 42.3795 24.6623 41.9074 26.2568 41.5424C27.8906 41.1726 29.5434 40.9657 31.2176 40.9217C32.9239 40.8872 34.604 41.0775 36.2604 41.4901C37.9096 41.9039 39.472 42.5329 40.9477 43.3771C42.3936 44.2083 43.7158 45.2035 44.9132 46.364C45.5065 46.93 46.0547 47.5329 46.5838 48.1441C47.1129 48.7552 47.604 49.3938 48.0654 50.0477C49.8787 52.6542 51.3436 55.4437 52.459 58.4163C53.5755 61.326 54.3983 64.3165 54.9275 67.3878Z" fill="white"/>
</g>
</svg>
